<svg
   width="200mm"
   height="200mm"
   viewBox="0 0 200 200"
   version="1.1"
   id="svg1"
   xml:space="preserve"
   xmlns="http://www.w3.org/2000/svg"
   xmlns:svg="http://www.w3.org/2000/svg"><defs
     id="defs1" /><g
     id="layer1"><path
       style="fill:#000000;stroke-width:0.132787"
       d="m 38.083002,182.93025 c 0.1247,-0.87788 0.3784,-0.95778 3.4022,-1.07173 2.0054,-0.0756 3.2673,-0.30096 3.2673,-0.58349 0,-0.89405 -1.0181,-3.93458 -1.4071,-4.20221 -0.5866,-0.40359 2.8965,-130.305744 3.5276,-131.561054 0.2688,-0.53451 0.9193,-1.35128 1.4456,-1.81504 0.5263,-0.46376 1.4932,-2.36096 2.1486,-4.216 1.0857,-3.07305 1.2125,-4.04726 1.4274,-10.96161 l 0.236,-7.58881 1.1376,-0.13131 c 0.9585,-0.11061 1.2739,0.13577 2.0025,1.56421 0.7024,1.37647 0.865,2.49199 0.865,5.92831 v 4.2328 h 16.8641 16.8639 l 0.01,-6.00781 c 0.01,-3.92845 0.1864,-6.35852 0.5269,-7.02117 1.465,-2.85049 5.6338,-3.76212 7.7099,-1.68595 1.2984,1.29832 1.928298,4.46429 1.0022,5.03668 -0.8332,0.51493 -1.6565,-0.34622 -1.6565,-1.73268 0,-1.26908 -1.2927,-2.50188 -2.6233,-2.50188 -1.3905,0 -2.4358,1.53783 -2.4358,3.58361 0,1.61613 0.1249,1.8972 0.8432,1.8972 0.7152,0 0.8432,0.28106 0.8432,1.85209 0,1.25738 0.203,1.93001 0.6323,2.09476 0.4462,0.17122 0.6324,0.86729 0.6324,2.36391 v 2.12124 h 10.329308 10.3292 v -2.27371 c 0,-1.63212 0.1785,-2.34215 0.6324,-2.51636 0.4334,-0.1663 0.6324,-0.84386 0.6324,-2.1531 0,-1.66746 0.114,-1.91043 0.8967,-1.91043 0.8261,0 0.8804,-0.17203 0.6877,-2.17878 -0.2258,-2.34899 -1.0105,-3.30203 -2.7191,-3.30203 -1.359,0 -2.6597,1.44338 -2.6597,2.95121 0,0.98372 -0.1874,1.2648 -0.8432,1.2648 -0.721,0 -0.8432,-0.28108 -0.8432,-1.93886 0,-1.62533 0.2118,-2.13664 1.3093,-3.16201 1.4962,-1.39762 3.461,-1.61218 5.4316,-0.59315 2.3486,1.21455 2.5342,1.88535 2.5342,9.16062 v 6.6518 h 17.7073 17.7072 v -3.9909 c 0,-4.92984 0.7634,-6.97071 2.6077,-6.97071 h 1.1868 l 0.01,6.64021 c 0.01,6.35154 0.068,6.83481 1.42,11.11678 0.7771,2.46212 1.792,4.85566 2.2554,5.31898 2.1586,2.15864 2.0591,0.0689 3.2446,68.115744 0.6092,34.9673 0.9962,63.75737 0.8599,63.97789 -0.1363,0.2205 -0.5918,0.40093 -1.0122,0.40093 -0.5627,0 -0.927,0.58395 -1.3809,2.21341 l -0.6166,2.2134 4.357,0.11966 c 4.3181,0.1186 4.357,0.12893 4.357,1.1594 v 1.03974 h -67.9069 -67.907008 z m 9.6208,-3.47821 c 0,-2.19232 -0.058,-2.3188 -1.054,-2.3188 -0.9965,0 -1.0541,0.12648 -1.0541,2.3188 0,2.19233 0.058,2.3188 1.0541,2.3188 0.9965,0 1.054,-0.12647 1.054,-2.3188 z m 2.9512,0 c 0,-2.19232 -0.058,-2.3188 -1.054,-2.3188 -0.9965,0 -1.054,0.12648 -1.054,2.3188 0,2.19233 0.058,2.3188 1.054,2.3188 0.9965,0 1.054,-0.12647 1.054,-2.3188 z m 2.108,0 c 0,-2.03773 -0.1022,-2.3188 -0.8432,-2.3188 -0.7411,0 -0.8432,0.28107 -0.8432,2.3188 0,2.03774 0.1021,2.3188 0.8432,2.3188 0.741,0 0.8432,-0.28106 0.8432,-2.3188 z m 2.5296,0 c 0,-2.19232 -0.058,-2.3188 -1.054,-2.3188 -0.9965,0 -1.054,0.12648 -1.054,2.3188 0,2.19233 0.058,2.3188 1.054,2.3188 0.9965,0 1.054,-0.12647 1.054,-2.3188 z m 2.108,0 c 0,-2.03773 -0.1022,-2.3188 -0.8433,-2.3188 -0.7409,0 -0.8431,0.28107 -0.8431,2.3188 0,2.03774 0.1022,2.3188 0.8431,2.3188 0.7411,0 0.8433,-0.28106 0.8433,-2.3188 z m 2.8551,0.63241 c -0.2355,-0.92752 -0.5717,-1.68641 -0.7471,-1.68641 -0.1755,0 -0.5117,0.75889 -0.7471,1.68641 -0.423,1.66649 -0.4142,1.68639 0.7471,1.68639 1.1613,0 1.1701,-0.02 0.7471,-1.68639 z m 3.0473,-0.63241 c 0,-2.03773 -0.1022,-2.3188 -0.8432,-2.3188 -0.7411,0 -0.8432,0.28107 -0.8432,2.3188 0,2.03774 0.1021,2.3188 0.8432,2.3188 0.741,0 0.8432,-0.28106 0.8432,-2.3188 z m 2.5296,0 c 0,-2.19232 -0.058,-2.3188 -1.054,-2.3188 -0.9965,0 -1.054,0.12648 -1.054,2.3188 0,2.19233 0.058,2.3188 1.054,2.3188 0.9965,0 1.054,-0.12647 1.054,-2.3188 z m 2.1079,0 c 0,-2.03773 -0.1021,-2.3188 -0.8432,-2.3188 -0.7409,0 -0.8431,0.28107 -0.8431,2.3188 0,2.03774 0.1022,2.3188 0.8431,2.3188 0.7411,0 0.8432,-0.28106 0.8432,-2.3188 z m 2.5297,0 c 0,-2.03773 -0.1022,-2.3188 -0.8432,-2.3188 -0.7411,0 -0.8432,0.28107 -0.8432,2.3188 0,2.03774 0.1021,2.3188 0.8432,2.3188 0.741,0 0.8432,-0.28106 0.8432,-2.3188 z m 2.5296,0.2108 c 0,-2.1377 0.6327,-2.89615 0.9672,-1.15941 0.1567,0.81335 0.191,0.78328 0.2402,-0.21079 0.053,-1.08113 -0.056,-1.1594 -1.629,-1.1594 h -1.6864 v 2.3188 c 0,2.19233 0.058,2.3188 1.054,2.3188 0.9837,0 1.054,-0.14052 1.054,-2.108 z m 62.818408,1.69246 c 0,-0.22855 -0.2291,-1.27202 -0.509,-2.31879 l -0.5091,-1.90327 H 104.954 c -16.415398,0 -29.848298,0.14229 -29.850798,0.31619 0,0.17392 -0.278,1.21738 -0.6122,2.31882 l -0.6077,2.00259 H 104.8508 c 20.06331,0 30.96741,-0.14631 30.96741,-0.41554 z m 2.9512,-1.90326 c 0,-2.19232 -0.058,-2.3188 -1.054,-2.3188 -0.9965,0 -1.0539,0.12648 -1.0539,2.3188 0,2.19233 0.058,2.3188 1.0539,2.3188 0.9966,0 1.054,-0.12647 1.054,-2.3188 z m 2.9512,0 c 0,-2.19232 -0.058,-2.3188 -1.0539,-2.3188 -0.9966,0 -1.054,0.12648 -1.054,2.3188 0,2.19233 0.058,2.3188 1.054,2.3188 0.9965,0 1.0539,-0.12647 1.0539,-2.3188 z m 2.1081,0 c 0,-2.03773 -0.1022,-2.3188 -0.8433,-2.3188 -0.7409,0 -0.8432,0.28107 -0.8432,2.3188 0,2.03774 0.1023,2.3188 0.8432,2.3188 0.7411,0 0.8433,-0.28106 0.8433,-2.3188 z m 2.1079,0 c 0,-1.78009 -0.1469,-2.3188 -0.6324,-2.3188 -0.4855,0 -0.6323,0.53871 -0.6323,2.3188 0,1.7801 0.1468,2.3188 0.6323,2.3188 0.4855,0 0.6324,-0.5387 0.6324,-2.3188 z m 2.5297,0 c 0,-2.03773 -0.1023,-2.3188 -0.8433,-2.3188 -0.7409,0 -0.8432,0.28107 -0.8432,2.3188 0,2.03774 0.1023,2.3188 0.8432,2.3188 0.741,0 0.8433,-0.28106 0.8433,-2.3188 z m 2.9448,1.79181 c -0.01,-0.28986 -0.2582,-1.36902 -0.5659,-2.39813 l -0.5594,-1.87111 -0.2765,1.72886 c -0.1521,0.95087 -0.392,2.03002 -0.5332,2.39812 -0.1941,0.50581 0.011,0.66925 0.8422,0.66925 0.6046,0 1.0963,-0.23714 1.0928,-0.52699 z m 2.9576,-1.79181 c 0,-2.03773 -0.1022,-2.3188 -0.8433,-2.3188 -0.741,0 -0.8432,0.28107 -0.8432,2.3188 0,2.03774 0.1022,2.3188 0.8432,2.3188 0.7411,0 0.8433,-0.28106 0.8433,-2.3188 z m 2.5295,0 c 0,-2.19232 -0.058,-2.3188 -1.0539,-2.3188 -0.9966,0 -1.054,0.12648 -1.054,2.3188 0,2.19233 0.058,2.3188 1.054,2.3188 0.9964,0 1.0539,-0.12647 1.0539,-2.3188 z m 2.5297,0 c 0,-2.19232 -0.058,-2.3188 -1.0541,-2.3188 -0.9964,0 -1.054,0.12648 -1.054,2.3188 0,2.19233 0.058,2.3188 1.054,2.3188 0.9966,0 1.0541,-0.12647 1.0541,-2.3188 z m 2.108,0.2108 c 0,-1.15941 0.1897,-2.10801 0.4216,-2.10801 0.2319,0 0.4216,0.9486 0.4216,2.10801 0,1.82694 0.1124,2.108 0.8432,2.108 0.7307,0 0.8431,-0.28106 0.8431,-2.108 0,-2.1377 0.6328,-2.89615 0.9674,-1.15941 0.1566,0.81335 0.1908,0.78328 0.24,-0.21079 0.057,-1.15178 0.039,-1.1594 -2.6829,-1.1594 h -2.7404 v 2.3188 c 0,2.03774 0.1022,2.3188 0.8431,2.3188 0.7308,0 0.8433,-0.28106 0.8433,-2.108 z m -25.4752,-2.4276 c -0.4967,-0.49678 -0.6944,0.25933 -0.3735,1.42925 l 0.3316,1.20915 0.1422,-1.19794 c 0.078,-0.65888 0.033,-1.30708 -0.1003,-1.44046 z m 15.5993,0 c -0.4968,-0.49678 -0.6944,0.25933 -0.3736,1.42925 l 0.3316,1.20915 0.1423,-1.19794 c 0.078,-0.65888 0.033,-1.30708 -0.1003,-1.44046 z m -106.662608,0.003 c -0.4864,-0.48642 -0.736,0.27539 -0.4042,1.23409 l 0.3391,0.98038 0.1551,-0.9848 c 0.085,-0.54165 0.045,-1.09499 -0.09,-1.22967 z m 13.5386,0.43071 c -0.107,-0.41022 -0.2014,-0.17669 -0.21,0.51896 -0.01,0.69566 0.079,1.03127 0.1943,0.74584 0.1155,-0.28545 0.1226,-0.85461 0.016,-1.2648 z m 2.108,0 c -0.107,-0.41022 -0.2015,-0.17669 -0.21,0.51896 -0.01,0.69566 0.079,1.03127 0.1943,0.74584 0.1156,-0.28545 0.1226,-0.85461 0.016,-1.2648 z m 88.944608,-0.21885 c -0.1169,-0.28985 -0.2126,-0.0527 -0.2126,0.52702 0,0.57969 0.096,0.81685 0.2126,0.52698 0.117,-0.28984 0.117,-0.76413 0,-1.054 z m 17.0065,-7.27261 v -6.11323 h -60.9212 -60.921408 l -0.01,3.26739 c 0,1.7971 -0.124,4.54806 -0.2717,6.11325 l -0.2689,2.8458 h 61.193108 61.193 z m -30.4937,-7.2726 c -16.8874,-0.061 -44.396808,-0.061 -61.132008,0 -16.7352,0.061 -2.9182,0.11098 30.704508,0.11098 33.6226,-2e-5 47.3149,-0.05 30.4275,-0.11098 z m -30.6384,-6.00786 c 0,-0.24091 -1.26481,-0.42159 -2.95121,-0.42159 -1.6864,0 -2.951197,0.18068 -2.951197,0.42159 0,0.24093 1.264797,0.42161 2.951197,0.42161 1.6864,0 2.95121,-0.18068 2.95121,-0.42161 z m 50.7007,-4.95379 c 0.5102,-0.56956 0.7186,-2.17991 0.9139,-7.06181 0.1391,-3.47821 0.3606,-8.83779 0.4923,-11.91021 l 0.2394,-5.5862 h -51.8659 c -28.526208,0 -51.938208,0.14227 -52.026608,0.31619 -0.2797,0.55002 0.4382,22.62495 0.7621,23.4341 0.1701,0.4252 0.7099,0.93491 1.1994,1.13268 0.4894,0.19779 23.1052,0.37163 50.257208,0.38632 46.5032,0.0252 49.4057,-0.016 50.0282,-0.71107 z m -10.3325,-2.80029 c -0.4057,-0.30803 -0.7378,-0.80282 -0.7378,-1.09952 0,-1.24133 2.9539,-2.28383 3.5837,-1.26481 0.1432,0.23188 0.7236,0.42161 1.2896,0.42161 0.767,0 1.0292,0.22733 1.0292,0.89236 0,0.71963 -0.2,0.85412 -1.0329,0.6949 -0.631,-0.12063 -1.118,0.0242 -1.2516,0.37245 -0.2778,0.72392 -1.9169,0.71426 -2.8802,-0.017 z m -28.9849,-1.04724 v -1.21254 l 3.7943,-0.0692 3.7944,-0.0692 v 1.28168 1.28167 h -3.1268 c -2.1071,0 -3.1962,-0.17187 -3.3395,-0.527 -0.1702,-0.42161 -0.2193,-0.42161 -0.246,0 -0.069,1.10111 -0.8764,0.46997 -0.8764,-0.68552 z m 11.3832,-0.65081 -1.8972,-1.48835 -5.6111,-0.0107 c -3.6309,-0.007 -5.5192,-0.15935 -5.3506,-0.43216 0.1518,-0.24554 2.515,-0.4216 5.6597,-0.4216 4.8173,0 5.5182,0.0938 6.5058,0.8706 1.0485,0.82478 2.2497,0.78552 1.7293,-0.0565 -0.1351,-0.21853 0.656,-0.42065 1.785,-0.45606 1.1151,-0.0349 3.1289,-0.0975 4.4753,-0.13888 2.0091,-0.0618 2.5237,0.0664 2.8708,0.71495 0.4107,0.76751 0.463,0.76543 1.8179,-0.072 1.219,-0.75335 2.0904,-0.86216 6.9066,-0.86216 3.2196,0 5.6198,0.17533 5.772,0.42161 0.1689,0.27319 -1.7621,0.4216 -5.4853,0.4216 -5.7293,0 -5.7514,0.004 -7.6352,1.29987 -1.692,1.16411 -2.2944,1.32066 -5.7676,1.4989 l -3.8783,0.19904 z m 7.9125,0.2973 c -0.6335,-0.0962 -1.7719,-0.0982 -2.5297,-0.004 -0.7577,0.0938 -0.2393,0.17254 1.1519,0.17492 1.3913,0.003 2.0113,-0.0744 1.3778,-0.1706 z m -82.957408,-0.75277 v -2.3188 h -4.0052 -4.0053 v 2.07286 c 0,1.26382 0.2058,2.15588 0.5271,2.28554 0.2898,0.11694 2.0922,0.22761 4.0052,0.24592 l 3.4782,0.0334 z m 112.988908,-0.21081 v -2.52959 h -3.9516 -3.9516 l -0.2175,2.2134 c -0.1196,1.21737 -0.1326,2.35569 -0.029,2.52959 0.1039,0.17391 1.9799,0.31622 4.1692,0.31622 h 3.9803 z m -112.988908,-5.27 v -2.31884 h -3.7944 -3.7945 v 2.3188 2.3188 h 3.7945 3.7944 z m 112.988908,-0.22663 v -2.54541 l -3.8998,0.12122 -3.8999,0.12122 -0.1264,2.4242 -0.1264,2.42421 h 4.0262 4.0263 z M 53.184602,136.02783 v -2.31881 h -3.7944 -3.7945 v 2.31881 2.3188 h 3.7945 3.7944 z m 112.903608,-0.31622 -0.1255,-2.635 -3.6491,-0.12122 -3.6491,-0.12125 -0.1705,2.44005 c -0.094,1.34202 -0.1005,2.58233 -0.015,2.75623 0.086,0.17391 1.8608,0.31621 3.9452,0.31621 h 3.7896 z M 52.763002,130.33622 v -2.52961 h -3.5836 -3.5837 v 2.52961 2.52961 h 3.5837 3.5836 z m 113.405808,0.94859 c 0,-0.63766 -0.1222,-1.87083 -0.266,-2.7404 l -0.2613,-1.58099 h -3.2725 c -3.717,0 -3.7844,0.0607 -3.7844,3.40728 v 2.07352 h 3.7945 3.7944 z M 52.861802,88.816626 l 0.112,-38.14682 1.3591,-1.359 c 1.3471,-1.34698 1.4067,-1.3617 6.7456,-1.66311 22.9731,-1.29697 57.663708,-1.44784 80.102008,-0.34838 11.766,0.57654 13.7713,0.88856 15.69,2.44137 l 1.5033,1.21675 0.2108,37.68681 0.2109,37.686774 3.4782,0.12245 3.4782,0.12245 v -5.50249 c 0,-3.02637 -0.2931,-20.61972 -0.6512,-39.096364 -0.6893,-35.55976 -0.7188,-35.96507 -2.6569,-36.56855 -1.3017,-0.40532 -17.9492,-2.28784 -25.1499,-2.84398 -12.3274,-0.95209 -48.076908,-0.71786 -68.720908,0.45027 -18.1117,1.02484 -19.7137,1.26729 -20.3936,3.08638 -0.1992,0.53296 -0.7657,17.37978 -1.2589,37.43743 -0.4932,20.057624 -0.9942,38.033594 -1.1132,39.946594 l -0.2164,3.47821 h 3.5794 3.5795 z m 6.7212,34.142574 -0.1364,-3.58459 h 1.9177 c 1.9058,0 1.9161,0.008 1.6646,1.2648 -0.3169,1.585 0.5423,1.72325 1.1284,0.18157 0.5677,-1.49293 2.2529,-1.2868 2.4365,0.29801 0.1025,0.8842 -0.2646,1.43437 -1.7918,2.68579 -2.6582,2.17826 -2.5339,2.73704 0.609,2.73704 1.4053,0 2.5295,-0.18738 2.5295,-0.4216 0,-0.23189 -0.6639,-0.4216 -1.4755,-0.4216 -0.8347,0 -1.4756,-0.2115 -1.4756,-0.48695 0,-0.27449 -0.4138,-0.13654 -0.9486,0.3162 l -0.9486,0.80315 0.7774,-0.92017 c 0.4276,-0.50609 1.0185,-0.82765 1.3132,-0.71458 0.2947,0.11309 1.0545,-0.41095 1.6886,-1.1645 0.9131,-1.08525 1.1059,-1.65985 0.9268,-2.76363 l -0.2262,-1.39353 h 3.3462 3.3464 v 3.37281 3.3728 h 41.738408 41.7384 v -10.96327 -10.96326 l -51.9621,0.10706 -51.962308,0.10707 -0.024,10.9616 c -0.012,6.02888 0.043,9.39641 0.1225,7.48339 l 0.1457,-3.4782 1.5641,0.005 c 3.3542,0.0122 3.4611,0.13084 3.4611,3.83782 0,1.82799 0.1422,3.32406 0.3162,3.32462 0.1738,0 0.2548,-1.61209 0.1798,-3.58361 z m 6.314,0.42062 c 0.6151,-0.69565 1.2097,-1.64425 1.3213,-2.108 0.1977,-0.82128 0.2041,-0.82059 0.2518,0.0265 0.027,0.49021 -0.549,1.41008 -1.3213,2.108 l -1.3702,1.23829 z m 65.777908,-20.76375 c -14.4524,-0.0615 -37.977808,-0.0615 -52.278408,2e-5 -14.3005,0.0615 -2.4758,0.11187 26.277408,0.11185 28.753,-1e-5 40.4536,-0.0503 26.001,-0.11187 z m 21.0073,-22.028654 v -13.91315 h -47.0207 -47.020508 l 0.1176,5.58619 0.1176,5.58621 8.3266,0.11431 8.3266,0.11431 v 8.2123 8.2123 h 38.576408 38.5764 z m -92.569008,12.47618 c -0.3882,-1.54663 0.4723,-2.77966 1.9398,-2.77966 0.6875,0 1.25,-0.18973 1.25,-0.4216 0,-0.61376 -2.4235,-0.5176 -2.6561,0.10539 -0.3962,1.06054 -0.8434,-1.0513 -0.4569,-2.15733 0.3112,-0.89046 0.6987,-1.13592 1.9587,-1.24077 1.339,-0.11141 1.6435,0.0286 2.0627,0.94859 0.3556,0.78043 0.3671,1.35275 0.042,2.06674 -0.2718,0.59669 -0.3012,1.2223 -0.074,1.58101 0.2067,0.32645 0.3787,1.1153 0.3822,1.75296 0.01,0.78115 0.2275,1.15941 0.684,1.15941 0.4446,0 0.5895,-0.22927 0.4216,-0.66689 -0.1408,-0.36678 -0.2559,-1.96313 -0.2559,-3.54744 v -2.88056 l -2.2134,-1.34694 c -1.2174,-0.74081 -2.6402,-1.73876 -3.1621,-2.21764 l -0.9486,-0.87072 v 5.76509 c 0,4.8756 0.099,5.7651 0.6406,5.7651 0.4659,0 0.571,-0.27638 0.3857,-1.01474 z m 3.1898,0.59314 c 0,-0.23188 -0.4744,-0.4216 -1.054,-0.4216 -0.5797,0 -1.054,0.18972 -1.054,0.4216 0,0.23187 0.4743,0.4216 1.054,0.4216 0.5796,0 1.054,-0.18973 1.054,-0.4216 z m 5.4808,0 c 0,-0.23188 -0.2846,-0.4216 -0.6324,-0.4216 -0.3479,0 -0.6325,0.18972 -0.6325,0.4216 0,0.23187 0.2846,0.4216 0.6325,0.4216 0.3478,0 0.6324,-0.18973 0.6324,-0.4216 z m 5.9024,-6.16483 c 0,-5.34807 -0.1027,-6.50112 -0.5467,-6.13269 -0.3125,0.25934 -1.945,0.41049 -3.8103,0.35278 -1.795,-0.0555 -3.4546,0.0171 -3.6882,0.16138 -0.2333,0.1443 0.5801,0.9107 1.8078,1.70314 l 2.2322,1.44081 v 4.53104 4.53105 h 2.0026 2.0026 z m -11.2778,3.7776 c -0.2899,-0.11694 -0.7642,-0.11694 -1.054,0 -0.2899,0.11696 -0.053,0.21266 0.527,0.21266 0.5797,0 0.8169,-0.0957 0.527,-0.21266 z m 0,-3.7944 c -0.2899,-0.11696 -0.7642,-0.11696 -1.054,0 -0.2899,0.11696 -0.053,0.21266 0.527,0.21266 0.5797,0 0.8169,-0.0957 0.527,-0.21266 z m 2.4242,-7.09878 c 0,-1.25905 -0.1392,-1.47072 -0.9486,-1.44232 -0.5218,0.0183 -0.7114,0.12897 -0.4216,0.24593 0.2899,0.11696 0.527,0.63952 0.527,1.16125 0,0.84634 0.309,1.51074 0.7027,1.51074 0.077,0 0.1405,-0.66403 0.1405,-1.4756 z m 8.8536,-0.6324 c 0,-0.6826 -0.2811,-0.8432 -1.4756,-0.8432 -0.8116,0 -1.4756,0.18971 -1.4756,0.4216 0,0.23187 0.5692,0.4216 1.2648,0.4216 0.6956,0 1.2648,0.18971 1.2648,0.4216 0,0.23187 0.095,0.4216 0.2108,0.4216 0.1159,0 0.2108,-0.37944 0.2108,-0.8432 z m -14.9668,-0.4216 c 0.1433,-0.23189 0.059,-0.4216 -0.1859,-0.4216 -0.2456,0 -0.4465,0.18971 -0.4465,0.4216 0,0.23187 0.084,0.4216 0.1859,0.4216 0.1023,0 0.3032,-0.18973 0.4465,-0.4216 z m 11.3832,0 c 0.1614,-0.26113 -0.5914,-0.41914 -1.9778,-0.41515 -1.6006,0.005 -2.058,0.12289 -1.6059,0.41515 0.8312,0.53707 3.2517,0.53707 3.5837,0 z m 64.504808,-23.60962 v -4.8484 h -29.5119 -29.512108 l -0.121,4.3983 c -0.067,2.41906 -0.024,4.64956 0.093,4.95667 0.1755,0.45748 5.5295,0.53881 29.633008,0.4501 l 29.4187,-0.10827 z m -49.538008,0.2108 v -4.0052 h 2.3091 c 1.9808,0 2.4047,0.14582 2.9811,1.02573 0.5254,0.80173 0.5695,1.21762 0.2018,1.90455 -0.3638,0.67987 -0.3301,1.07897 0.149,1.76307 1.2885,1.83955 -0.2271,3.31706 -3.4028,3.31706 h -2.2382 z m 4.4517,2.55429 c 1.2006,-0.89161 0.3236,-2.09577 -1.6486,-2.26354 -1.5064,-0.12815 -1.5383,-0.0998 -1.5383,1.3702 0,1.36407 0.1081,1.50106 1.1842,1.50106 0.6513,0 1.5525,-0.27348 2.0027,-0.60772 z m -0.2357,-3.60275 c 0.9727,-0.62005 -0.03,-1.87625 -1.6234,-2.03485 -1.2291,-0.1223 -1.3278,-0.0361 -1.3278,1.15939 0,1.12943 0.1455,1.29071 1.1594,1.28505 0.6377,-0.003 1.4439,-0.18786 1.7918,-0.40959 z m 2.6848,3.92813 c -0.3031,-1.20781 0.6214,-2.24727 1.9989,-2.24727 1.2538,0 2.0178,-0.46757 1.7794,-1.08889 -0.2617,-0.68198 -2.0654,-0.81106 -2.4579,-0.17591 -0.1433,0.23187 -0.5633,0.4216 -0.9334,0.4216 -0.586,0 -0.5744,-0.10884 0.09,-0.8432 0.8635,-0.95412 3.2328,-1.14562 3.9119,-0.31621 0.2374,0.28985 0.4978,1.58561 0.5787,2.87946 l 0.147,2.35245 -2.4176,0.0658 c -2.2848,0.0622 -2.4331,0.005 -2.6972,-1.04785 z m 3.6036,-0.66627 c 0.4529,-1.19693 0.4518,-1.19777 -1.0395,-0.79895 -1.6348,0.4372 -1.9481,1.74756 -0.4178,1.74756 0.7518,0 1.2118,-0.29942 1.4573,-0.94861 z m 2.986801,-2.2134 c 0,-2.38907 0.1701,-4.0052 0.4216,-4.0052 0.231897,0 0.421597,0.5363 0.421597,1.19178 0,1.0852 0.1135,1.17513 1.2687,1.00558 1.9422,-0.28506 2.5257,0.48543 2.5257,3.33506 0,1.37092 -0.1884,2.47799 -0.4215,2.47799 -0.232,0 -0.4217,-0.83824 -0.4217,-1.86273 0,-2.3539 -0.323,-3.19648 -1.2256,-3.19648 -1.2027,0 -1.7256,0.91977 -1.7256,3.03552 0,1.11303 -0.1897,2.02369 -0.421597,2.02369 -0.2515,0 -0.4216,-1.61615 -0.4216,-4.00521 z m 6.324107,1.12312 v -2.88248 l 1.7492,-0.0685 c 0.9621,-0.0377 2.0056,0.14414 2.3188,0.4041 0.6696,0.55573 0.8024,5.42862 0.148,5.42862 -0.2319,0 -0.4217,-0.83824 -0.4217,-1.86273 0,-2.3539 -0.3231,-3.19647 -1.2255,-3.19647 -1.2028,0 -1.7257,0.91976 -1.7257,3.03552 0,1.11302 -0.1897,2.02368 -0.4215,2.02368 -0.2401,0 -0.4216,-1.24176 -0.4216,-2.88209 z m 6.3239,-1.12312 c 0,-2.38907 0.1701,-4.0052 0.4216,-4.0052 0.2319,0 0.4216,0.5363 0.4216,1.19178 0,1.0852 0.1135,1.17513 1.2687,1.00558 1.9422,-0.28506 2.5258,0.48543 2.5258,3.33506 0,1.37092 -0.1884,2.47799 -0.4217,2.47799 -0.2318,0 -0.4216,-0.83824 -0.4216,-1.86273 0,-2.3539 -0.323,-3.19648 -1.2256,-3.19648 -1.2027,0 -1.7256,0.91977 -1.7256,3.03552 0,1.11303 -0.1897,2.02369 -0.4216,2.02369 -0.2515,0 -0.4216,-1.61615 -0.4216,-4.00521 z m 6.1786,3.2342 c -0.943,-1.04194 -0.9015,-3.55153 0.073,-4.43365 1.856,-1.67954 4.7099,-0.31405 4.7099,2.25345 0,2.6077 -3.1122,4.02635 -4.783,2.1802 z m 3.4416,-1.68074 c 0.1527,-1.59148 -0.4987,-2.60746 -1.6718,-2.60746 -1.071,0 -1.7322,1.76946 -1.1922,3.18998 0.326,0.85744 0.652,1.05431 1.5706,0.94861 0.9714,-0.11177 1.181,-0.35998 1.2934,-1.53113 z m 2.6062,-0.0427 c 0,-1.60047 -0.1888,-2.5711 -0.527,-2.7083 -0.3799,-0.15418 -0.3958,-0.31103 -0.057,-0.56214 0.2586,-0.19156 0.5979,-0.75764 0.7538,-1.25795 0.2995,-0.96018 1.331,-1.57349 1.9761,-1.17484 0.6055,0.37424 0.447,1.0305 -0.2488,1.0305 -0.7644,0 -0.8446,1.09552 -0.1055,1.44047 0.4216,0.19673 0.4216,0.29511 0,0.49185 -0.3345,0.15611 -0.5269,1.15707 -0.5269,2.74041 0,1.93624 -0.1416,2.49448 -0.6325,2.49448 -0.4908,0 -0.6324,-0.55824 -0.6324,-2.49448 z m 37.5225,-14.29045 c 0,-0.18838 -0.5691,-2.02632 -1.2649,-4.08429 -1.1873,-3.51269 -1.2647,-4.13705 -1.2647,-10.1975 0,-3.90931 -0.1621,-6.45571 -0.4108,-6.45571 -1.9138,0 -2.4205,11.05968 -0.8023,17.51167 l 0.895,3.56834 h 1.4238 c 0.7832,0 1.4239,-0.15413 1.4239,-0.34251 z m -4.1128,-1.13309 -0.2015,-1.054 -10.1747,0.0586 c -8.821,0.0509 -9.6137,0.10564 -5.9587,0.4117 2.3189,0.19416 6.3978,0.61909 9.0645,0.94427 7.3898,0.90116 7.5104,0.89517 7.2704,-0.36062 z m -105.256908,0.38493 c 1.438,-0.38613 2.2951,-5.06189 2.2885,-12.48611 -0.01,-5.84675 -0.4057,-8.34643 -1.3378,-8.34643 -0.1946,0 -0.3539,2.80852 -0.3539,6.24116 0,5.99418 -0.058,6.41128 -1.4477,10.54 -1.5439,4.58426 -1.5219,4.68849 0.8509,4.05138 z m 15.3527,-0.78643 8.6429,-0.53313 -11.067,-0.0597 c -9.5828,-0.0517 -11.067,0.0251 -11.067,0.57272 0,0.76944 1.3118,0.77139 13.4911,0.0201 z m 64.399508,-1.39024 c -14.0867,-0.0616 -37.137708,-0.0616 -51.224408,0 -14.0867,0.0616 -2.5613,0.11199 25.612208,0.11199 28.1734,0 39.699,-0.0504 25.6122,-0.11199 z m -40.368208,-2.00715 v -1.05847 l -18.2342,0.10988 -18.2342,0.10988 -0.1348,0.9486 -0.1346,0.9486 h 18.3689 18.3689 z m 23.751708,0.61035 c -0.8337,-0.83363 -6.5956,-1.33885 -12.36851,-1.08448 -3.1304,0.13794 -6.118498,0.37162 -6.640198,0.51928 -2.5943,0.73426 -0.045,1.01334 9.254208,1.01334 7.2046,0 10.071,-0.13168 9.7545,-0.44814 z m 41.0987,-0.50046 -0.1348,-0.9486 -18.6557,-0.10979 -18.6559,-0.10979 v 1.05839 1.05839 h 18.7905 18.7907 z m -60.107408,-1.01703 c -0.2899,-0.11695 -0.7642,-0.11695 -1.054,0 -0.2899,0.11696 -0.053,0.21265 0.527,0.21265 0.5797,0 0.8169,-0.0957 0.527,-0.21265 z m 18.972008,0 c -0.2898,-0.11695 -0.7641,-0.11695 -1.054,0 -0.2899,0.11696 -0.053,0.21265 0.5271,0.21265 0.5796,0 0.8168,-0.0957 0.5269,-0.21265 z m -23.715008,-2.46117 v -1.47561 h -17.918 -17.9181 v 1.47561 1.4756 h 17.9181 17.918 z m 24.031208,0 v -1.47561 h -10.3291 -10.329308 v 1.47561 1.4756 h 10.329308 10.3291 z m 40.0521,0 v -1.47561 h -18.3397 -18.3396 v 1.47561 1.4756 h 18.3396 18.3397 z m -64.429908,-8.63228 c 0.1257,-5.84159 0.205,-6.38255 1.061,-7.23747 1.9269,-1.92445 5.3706,-0.52708 5.7301,2.32518 0.1388,1.10052 0.1773,1.02738 0.2337,-0.44305 0.055,-1.4448 -0.1322,-1.91819 -1.0434,-2.635 -1.6933,-1.33187 -4.131,-1.17764 -5.6672,0.35857 l -1.2324,1.23237 v 6.35643 c 0,3.62756 0.168,6.35645 0.3912,6.35645 0.2171,0 0.4517,-2.80989 0.527,-6.31348 z m 29.013908,-0.11594 c 0,-7.02556 -0.4764,-8.37487 -3.2101,-9.12971 -2.8638,-0.79075 -5.5974,1.47445 -5.1183,4.24129 0.1801,1.04027 0.2665,0.90843 1.0096,-1.54 0.533,-1.75623 2.3085,-2.5771 4.0308,-1.86365 1.9851,0.8222 2.4463,2.48265 2.4463,8.80554 0,3.38183 0.1622,5.49435 0.4216,5.49435 0.2614,0 0.421,-2.28262 0.4201,-6.00782 z"
       id="path1" /></g></svg>
