<svg
   width="200mm"
   height="200mm"
   viewBox="0 0 200 200"
   version="1.1"
   id="svg1"
   xml:space="preserve"
   xmlns="http://www.w3.org/2000/svg"
   xmlns:svg="http://www.w3.org/2000/svg"><defs
     id="defs1" /><g
     id="layer1"><path
       style="fill:#000000;stroke-width:0.132787"
       d="m 33.850861,178.16882 c -0.1285,-0.33501 -0.168,-0.95214 -0.088,-1.37146 0.1289,-0.67289 0.7025,-0.77646 4.8841,-0.88165 2.6058,-0.0656 4.7379,-0.2187 4.7379,-0.3403 0,-0.12161 -0.2097,-1.05374 -0.4658,-2.07141 -0.434,-1.72324 -0.5715,-1.85911 -2.0027,-1.9785 l -1.5368,-0.12823 -0.1244,-6.95639 c -0.1047,-5.85407 1.627,-81.299391 2.174,-94.717861 0.1601,-3.9259 0.1081,-4.30202 -0.6212,-4.49274 -0.7497,-0.19606 -0.7959,0.10722 -0.7959,5.23321 0,6.88361 -0.166,7.12774 -4.8484,7.12774 -4.8884,0 -4.8484,0.0783 -4.8484,-9.48602 0,-7.23746 0.06,-7.86036 0.8432,-8.6428 0.5154,-0.51548 1.4053,-0.84319 2.2895,-0.84319 1.1788,0 1.4712,-0.17541 1.5809,-0.94861 0.1197,-0.84226 0.4105,-0.96288 2.5946,-1.0761 1.4716,-0.0763 2.7036,0.0748 3.0668,0.37628 0.3338,0.27706 0.6879,0.42287 0.7868,0.32399 0.099,-0.0989 0.3361,-4.0162 0.5272,-8.70515 l 0.3473,-8.52535 1.3565,-1.35641 c 1.2147,-1.21474 1.698,-1.38752 4.6271,-1.65414 1.799,-0.16376 4.6938,-0.31414 6.4329,-0.33419 3.4668,-0.0399 4.0407,-0.24116 4.2766,-1.49915 0.1303,-0.69497 0.5465,-0.8656 2.3676,-0.97063 l 2.2094,-0.12743 v -9.25317 -9.25318 h 4.2065 4.2065 l 0.1149,7.6942 0.1149,7.69421 0.6441,-4.0052 0.6442,-4.0052 28.332109,-0.10838 28.3321,-0.10835 0.2093,0.95156 c 0.1151,0.52337 0.2805,1.52072 0.3673,2.21636 0.087,0.69564 0.1863,-1.34384 0.221,-4.5322 l 0.063,-5.797 h 4.216 c 3.7282,0 4.2178,0.0853 4.2319,0.7378 0.01,0.40579 0,4.56996 -0.015,9.25372 l -0.032,8.51591 2.4393,0.12689 c 2.1631,0.11253 2.4547,0.23433 2.5742,1.0755 0.073,0.52173 -0.068,0.94859 -0.3162,0.94859 -0.2481,0 -0.4509,-0.39973 -0.4509,-0.88831 0,-0.63681 -0.1889,-0.81584 -0.6669,-0.63239 -0.3668,0.14074 -3.0341,0.2559 -5.9273,0.2559 -2.8933,0 -5.16,0.16237 -5.0375,0.3608 0.1227,0.19842 2.3631,0.49482 4.9787,0.65864 5.5743,0.34911 17.6229,1.7862 19.6669,2.34576 2.1058,0.57647 4.2017,2.16339 4.6867,3.54871 0.2355,0.67228 0.4281,5.05165 0.4281,9.73195 0,4.6803 0.1235,8.63316 0.2745,8.78414 0.1509,0.15098 0.5152,-0.0545 0.8093,-0.45672 0.4307,-0.58903 1.1943,-0.73126 3.9263,-0.73126 4.9752,0 4.872,-0.18489 5.0109,8.97301 0.1324,8.73873 -0.042,9.37119 -2.7548,9.97458 -0.9819,0.21844 -1.7854,0.55045 -1.7854,0.73779 0,0.18736 -1.0322,0.34063 -2.294,0.34063 -1.2616,0 -2.3768,0.14229 -2.4781,0.31621 -0.1013,0.17392 0.067,13.786334 0.3765,30.249821 0.3085,16.46351 0.5699,37.00071 0.5811,45.63824 l 0.02,15.7046 h -1.2148 c -1.0855,0 -1.2649,0.19926 -1.6864,1.87312 -0.2595,1.03017 -0.4717,2.07366 -0.4717,2.3188 0,0.28637 1.6677,0.44567 4.6644,0.44567 h 4.6642 l -0.1321,1.37026 -0.1321,1.37019 -67.5742,0.10665 c -58.594409,0.0925 -67.605109,0.0257 -67.807909,-0.50236 z m 12.4856,-11.19835 v -8.85361 h -1.054 -1.054 v 8.85361 8.85361 h 1.054 1.054 z m 2.5296,0 c 0,-8.57252 -0.026,-8.85361 -0.8432,-8.85361 -0.8164,0 -0.8432,0.28109 -0.8432,8.85361 0,8.57258 0.026,8.85361 0.8432,8.85361 0.8165,0 0.8432,-0.28103 0.8432,-8.85361 z m 2.5296,0 c 0,-8.57252 -0.026,-8.85361 -0.8432,-8.85361 -0.8165,0 -0.8432,0.28109 -0.8432,8.85361 0,8.57258 0.026,8.85361 0.8432,8.85361 0.8164,0 0.8432,-0.28103 0.8432,-8.85361 z m 2.5296,0 v -8.85361 h -1.0539 -1.0541 v 8.85361 8.85361 h 1.0541 1.0539 z m 2.108,1.47563 c 0,-7.09691 -0.032,-7.37799 -0.8432,-7.37799 -0.8111,0 -0.8432,0.28108 -0.8432,7.37799 0,7.09695 0.032,7.37798 0.8432,7.37798 0.8111,0 0.8432,-0.28103 0.8432,-7.37798 z m 90.694109,5.05999 -0.6824,-2.31799 h -44.1075 -44.107509 l -0.2495,1.3702 c -0.1373,0.75358 -0.3739,1.79709 -0.526,2.3188 l -0.2764,0.9486 h 45.315909 45.3159 z m 3.7444,-5.05999 v -7.37799 h -1.054 -1.054 v 7.37799 7.37798 h 1.054 1.054 z m 2.5296,-1.47563 c 0,-7.58877 -0.09,-8.85361 -0.6324,-8.85361 -0.4417,0 -0.6325,0.44504 -0.6325,1.47563 0,0.81158 -0.1897,1.47562 -0.4216,1.47562 -0.2649,0 -0.4216,2.74039 -0.4216,7.37799 v 7.37798 h 1.054 1.0541 z m 2.5296,0 v -8.85361 h -1.054 -1.054 v 8.85361 8.85361 h 1.054 1.054 z m 2.108,0 c 0,-8.57252 -0.026,-8.85361 -0.8432,-8.85361 -0.8164,0 -0.8432,0.28109 -0.8432,8.85361 0,8.57258 0.026,8.85361 0.8432,8.85361 0.8165,0 0.8432,-0.28103 0.8432,-8.85361 z m 1.6864,0 c 0,-5.62128 -0.154,-8.85361 -0.4216,-8.85361 -0.2677,0 -0.4217,3.23233 -0.4217,8.85361 0,5.62134 0.154,8.85361 0.4217,8.85361 0.2676,0 0.4216,-3.23227 0.4216,-8.85361 z m -115.603909,-1.1594 -0.086,-7.905 -0.2309,7.16719 c -0.215,6.67852 -0.1604,8.64281 0.2401,8.64281 0.089,0 0.1231,-3.55721 0.076,-7.905 z m 13.142,0.94861 -0.2572,-5.48078 -0.049,6.32401 c -0.026,3.4782 0.089,5.94455 0.2571,5.48078 0.1684,-0.46378 0.1905,-3.30953 0.049,-6.32401 z m 90.548809,-2.63497 c -0.079,-1.79707 -0.1436,-0.32674 -0.1436,3.2674 0,3.59411 0.065,5.06444 0.1436,3.26741 0.079,-1.79708 0.079,-4.73779 0,-6.53481 z m 12.6268,7.59682 c -0.1068,-0.41019 -0.2014,-0.17664 -0.21,0.51898 -0.01,0.69563 0.079,1.03122 0.1944,0.74584 0.1155,-0.28544 0.1226,-0.85463 0.016,-1.26482 z M 42.542061,164.44088 v -6.32402 h -1.2648 -1.2648 v 6.32402 6.32401 h 1.2648 1.2648 z m 120.577609,-0.21079 v -6.53482 h -1.4755 -1.4756 v 6.53482 6.5348 h 1.4756 1.4755 z m -16.8639,1.47561 v -4.63759 h -44.2681 -44.268009 v 4.63759 4.6376 h 44.268009 44.2681 z m 4.216,-6.5348 v -1.05404 h -47.6409 -47.640809 v 1.05404 1.05396 h 47.640809 47.6409 z m -18.445,-2.63496 c -16.7534,-0.061 -44.167909,-0.061 -60.921309,0 -16.7534,0.061 -3.046,0.11095 30.460609,0.11095 33.5067,0 47.214,-0.0501 30.4607,-0.11095 z m -17.3246,-3.19311 c 0.2868,-0.30693 0.9582,-0.47452 1.4922,-0.37244 1.0395,0.19872 1.1126,0.1036 0.715,-0.93222 -0.1407,-0.36678 -0.5918,-0.66689 -1.0024,-0.66689 -0.4104,0 -0.9826,-0.28457 -1.2712,-0.6324 -0.456,-0.54938 -0.2137,-0.63239 1.8456,-0.63239 1.3036,0 2.3703,-0.18972 2.3703,-0.42161 0,-0.26071 -2.2216,-0.42159 -5.8217,-0.42159 -4.4663,0 -6.0124,0.14413 -6.6403,0.619 -0.4501,0.34044 -1.2452,0.62501 -1.767,0.63239 -0.5561,0.008 -0.9485,0.27502 -0.9485,0.6458 0,0.5153 -0.7027,0.6324 -3.794409,0.6324 -3.1805,0 -3.7945,-0.10799 -3.7945,-0.66752 0,-0.36714 -0.2372,-0.58519 -0.527,-0.48457 -0.2898,0.10064 -0.9795,-0.16814 -1.5324,-0.59726 -0.8636,-0.67018 -1.8002,-0.78024 -6.6402,-0.78024 -3.4755,0 -5.6347,0.16155 -5.6347,0.42159 0,0.25857 2.0373,0.42161 5.2689,0.42161 h 5.269 l 2.054,1.4756 c 1.9587,1.40716 2.2187,1.47559 5.6067,1.47559 3.333109,0 3.695009,-0.0906 5.852109,-1.4648 2.0188,-1.28617 2.6335,-1.46475 5.0397,-1.46438 h 2.7403 l -1.1594,0.71883 c -1.4059,0.87172 -1.4888,1.84681 -0.2108,2.4798 1.3255,0.65646 1.8885,0.65991 2.4907,0.0153 z m -1.4103,-0.15155 c 0.3043,-0.12178 0.668,-0.10679 0.8081,0.0333 0.1401,0.14009 -0.1089,0.23973 -0.5534,0.22144 -0.4911,-0.0202 -0.591,-0.12014 -0.2547,-0.25473 z m 0,-2.108 c 0.3043,-0.12178 0.668,-0.1068 0.8081,0.0334 0.1401,0.14008 -0.1089,0.23973 -0.5534,0.22143 -0.4911,-0.0202 -0.591,-0.12013 -0.2547,-0.25473 z m -47.350909,-2.2416 v -4.4268 l -4.1107,-0.12067 -4.1106,-0.12065 v 4.66812 4.66814 l 4.1106,-0.12065 4.1107,-0.12069 z m 24.6635,3.162 v -1.08775 l -3.7944,0.0691 c -3.6344,0.0663 -3.7944,0.10919 -3.7944,1.0186 0,0.90942 0.16,0.95237 3.7944,1.01861 l 3.7944,0.0692 z m 5.7883,-2.15191 c -0.1401,-0.14009 -0.5038,-0.15507 -0.8082,-0.0334 -0.3362,0.1346 -0.2363,0.23449 0.2548,0.25472 0.4444,0.0184 0.6934,-0.0813 0.5534,-0.22144 z m 38.775609,-4.36581 c 0.7422,-0.45265 1.6116,-1.35311 1.9317,-2.00104 0.3202,-0.64791 1.2261,-5.30446 2.0131,-10.34784 0.9982,-6.39637 1.5935,-9.16982 1.968,-9.16982 0.6609,0 0.6497,1.01987 -0.054,4.95382 l -0.5473,3.05659 h 10.6877 10.6878 v -4.84841 -4.8484 h -54.1756 -54.175609 v 2.95121 2.9512 h -1.4756 c -1.4456,0 -1.4768,-0.0365 -1.5353,-1.79179 -0.1315,-3.94641 -0.088,-3.81386 -1.3105,-3.98098 -1.0255,-0.14017 -1.1592,-0.0228 -1.1576,1.01536 0,0.64559 0.5692,2.02755 1.2629,3.07101 0.6937,1.04347 1.262,2.03949 1.2631,2.21341 0,0.17391 -0.852,0.31619 -1.8955,0.31619 -1.5968,0 -1.8972,-0.12952 -1.8972,-0.81832 0,-0.45006 0.1875,-0.93423 0.4168,-1.07589 0.239,-0.1477 0.3096,0.0214 0.1657,0.39671 -0.144,0.37506 -0.027,0.6543 0.273,0.6543 0.3809,0 0.4506,-0.53443 0.2559,-1.95605 -0.1475,-1.07583 -0.2682,-2.40385 -0.2682,-2.95119 0,-0.94932 -0.1336,-0.99517 -2.8985,-0.99517 h -2.8984 l -0.2635,1.3175 c -0.145,0.72463 -0.2635,2.87938 -0.2635,4.78836 v 3.47083 l 2.5914,0.27086 c 1.4252,0.14897 6.6089,0.27086 11.5195,0.27086 h 8.9278 l -0.5355,-3.2674 c -0.6894,-4.20732 -0.6936,-4.743 -0.038,-4.743 0.3801,0 0.9619,2.62087 1.9422,8.74821 0.7696,4.81151 1.571,9.44019 1.7807,10.28594 0.7273,2.9331 -0.37,2.84311 34.943309,2.86577 30.4289,0.0194 31.4513,-0.005 32.7589,-0.80283 z m 8.5578,-18.14589 v -2.9512 h 2.7706 c 3.4824,0 3.975,0.44032 3.975,3.55348 v 2.34891 h -3.3729 -3.3727 z m 7.6749,0.1054 0.1246,-2.84581 1.4757,-0.13546 c 1.1898,-0.10921 1.3734,-0.0317 0.9486,0.40054 -0.6294,0.64011 -0.702,2.05372 -0.1054,2.05372 0.2319,0 0.4215,-0.27338 0.4215,-0.6075 0,-0.95889 0.8612,-1.24161 1.5832,-0.51972 0.5975,0.59752 0.5151,0.78624 -0.8838,2.02466 -0.8484,0.75115 -1.5425,1.6154 -1.5425,1.92054 0,0.3134 -0.467,0.55482 -1.0733,0.55482 -1.0562,0 -1.0713,-0.0451 -0.9486,-2.84579 z m 5.8163,2.4242 c 0,-0.23187 -0.4911,-0.42161 -1.0915,-0.42161 h -1.0915 l 1.0915,-1.29713 c 1.214,-1.44287 1.2862,-1.76724 0.6551,-2.94658 -0.4047,-0.75604 -0.2818,-0.81548 1.6864,-0.81548 h 2.1228 v 2.9512 2.95119 h -1.6864 c -0.9276,0 -1.6864,-0.18971 -1.6864,-0.42159 z M 48.739361,124.24525 c -0.1193,-0.3109 -0.047,-0.83262 0.1592,-1.15941 0.2738,-0.43243 0.3779,-0.27856 0.3827,0.56523 0.01,1.25901 -0.1998,1.48569 -0.5419,0.59418 z m 17.1733,17.53463 c -0.9997,-5.31674 -0.9298,-5.06608 -0.9796,-3.5114 -0.09,2.79978 -0.6037,2.9844 -8.3088,2.9844 -6.6184,0 -6.891,-0.034 -7.5235,-0.937 -0.9882,-1.41086 -0.8755,-5.16781 0.1869,-6.23021 l 0.8431,-0.8432 h -1.2647 -1.2648 v 4.0052 4.00521 h -3.3728 c -3.0917,0 -3.3728,0.0703 -3.3728,0.84319 0,0.82446 0.2811,0.8432 12.6375,0.8432 h 12.6375 z m 95.942309,0.10539 c 0,-0.49726 -0.5856,-0.63239 -2.7404,-0.63239 -2.4593,0 -2.7404,-0.0865 -2.7404,-0.8432 v -0.84321 l -0.8432,0.84321 c -0.7698,0.76977 -1.4054,0.8432 -7.2974,0.8432 -7.3032,0 -7.8326,-0.17775 -8.2648,-2.77484 -0.2684,-1.6126 -0.2852,-1.58415 -0.7067,1.19384 l -0.4317,2.8458 h 11.5124 c 9.952,0 11.5122,-0.0857 11.5122,-0.63241 z m -98.317209,-1.55991 c 0.2858,-0.28582 0.506,-1.65501 0.506,-3.14718 0,-2.17983 -0.1426,-2.71748 -0.8156,-3.07768 -0.4485,-0.24004 -3.4016,-0.43643 -6.5625,-0.43643 -3.1609,0 -6.114,0.19639 -6.5625,0.43643 -0.673,0.3602 -0.8155,0.89785 -0.8155,3.07768 0,1.49217 0.2201,2.86136 0.5059,3.14718 0.7072,0.70724 13.037,0.70724 13.7442,0 z m -16.8659,-2.97228 0.1247,-2.8458 h -2.7597 -2.7596 v 2.97132 2.97131 l 2.635,-0.12551 2.635,-0.12552 z m 108.353209,2.55068 c 0.2782,-0.27826 0.5059,-1.56837 0.5059,-2.86689 0,-1.29852 -0.2277,-2.58862 -0.5059,-2.86687 -0.7073,-0.70724 -13.037,-0.70724 -13.7442,0 -0.2783,0.27825 -0.506,1.56835 -0.506,2.86687 0,1.29852 0.2277,2.58863 0.506,2.86689 0.7072,0.70723 13.0369,0.70723 13.7442,0 z m 6.8299,-2.44529 v -2.95119 h -2.3188 -2.3188 v 2.95119 2.95121 h 2.3188 2.3188 z m -5.4808,-3.58361 c 0,-0.3478 -0.3078,-0.63239 -0.6841,-0.63239 -0.5602,0 -0.589,0.11447 -0.1591,0.63239 0.2886,0.34784 0.5965,0.63242 0.684,0.63242 0.088,0 0.1592,-0.28458 0.1592,-0.63242 z m -6.3999,-13.07513 c -0.1189,-0.11896 -1.8106,-0.68414 -3.7592,-1.25594 l -3.5429,-1.03963 -42.63561,-0.009 c -36.639099,-0.008 -42.844799,0.0786 -44.123899,0.61308 -0.8188,0.34205 -1.5647,0.85049 -1.6578,1.12985 -0.1064,0.31913 -0.4734,0.38972 -0.9873,0.18996 -0.7907,-0.3074 -0.7865,-0.34355 0.1241,-1.08667 0.9249,-0.75473 0.8478,-0.77142 -4.235,-0.91729 -4.0665,-0.1167 -5.4219,-0.30896 -6.3175,-0.89609 l -1.1402,-0.74753 v 2.11773 2.11771 h 54.2458 c 29.835209,0 54.148609,-0.0973 54.029509,-0.21632 z m 11.4591,-1.84621 v -2.06256 l -1.5648,0.79776 c -1.297,0.66125 -2.5774,0.80641 -7.4834,0.84837 -4.9468,0.0423 -5.6071,0.11824 -4.0214,0.46238 3.1043,0.67372 3.1146,0.67936 2.5254,1.38918 -0.4564,0.55006 0.1614,0.62742 5.0117,0.62742 h 5.5325 z m -102.581709,-2.2584 c 1.0275,-0.45589 0.2504,-0.55491 -5.7905,-0.7378 -7.5612,-0.22893 -8.7643,-0.57179 -9.7727,-2.78492 -0.362,-0.79439 -0.3026,-7.24307 0.2414,-26.222331 0.8497,-29.65184 0.8377,-27.48766 0.1543,-27.48766 -0.4318,0 -0.693,5.76737 -1.2647,27.93102 l -0.7204,27.931031 1.0774,0.94861 c 1.0236,0.90127 1.4219,0.94859 7.9829,0.94859 4.6066,0 7.3005,-0.17529 8.0923,-0.52654 z m 77.074809,-0.11767 c -2.5398,-0.83708 -72.373909,-0.8403 -74.201609,-0.004 -1.0833,0.49603 4.2709,0.57771 37.3116,0.56916 32.508609,-0.009 38.311209,-0.0974 36.890009,-0.56575 z m 24.3913,-0.38967 1.1156,-1.03386 -0.043,-7.50352 c -0.025,-4.12695 -0.2888,-16.610131 -0.5892,-27.740371 l -0.5462,-20.23681 0.2241,26.15628 c 0.2024,23.619851 0.1576,26.285011 -0.4623,27.483831 -1.336,2.5835 -1.5968,2.64034 -12.2738,2.67561 -8.6127,0.0285 -9.5418,0.0962 -8.2328,0.60032 1.063,0.40935 4.0224,0.57722 10.5838,0.60032 9.1042,0.032 9.1088,0.0316 10.2239,-1.0018 z m -92.894409,-3.16956 5.6752,-2.51705 -5.7935,-0.11796 c -3.4113,-0.0694 -5.8362,-0.2913 -5.8976,-0.53956 -0.068,-0.27689 9.1206,-0.45884 26.7729,-0.53011 15.659209,-0.0632 26.877009,0.0493 26.877009,0.26965 0,0.215 -8.5029,0.4608 -19.709909,0.56975 l -19.7098,0.1916 -5.4808,2.43545 c -3.0145,1.33952 -5.5598,2.50744 -5.6564,2.59538 -0.097,0.0879 14.9861,0.1426 33.5172,0.12144 l 33.692809,-0.0384 -2.5296,-0.89118 c -2.4038,-0.84688 -3.4673,-0.89817 -21.3962,-1.03194 -11.689909,-0.0872 -18.866509,-0.29491 -18.866509,-0.54597 0,-0.25497 10.0032,-0.40519 26.982409,-0.40519 17.2502,0 26.9824,0.14828 26.9824,0.41116 0,0.24552 -2.76,0.45782 -6.851,0.52699 l -6.8511,0.11585 3.5837,0.97484 c 3.3774,0.91876 4.1935,0.96728 14.1855,0.8432 11.8875,-0.14761 11.9543,-0.16481 12.7958,-3.28953 0.4366,-1.62176 -0.1783,-51.759341 -0.6406,-52.221581 -0.2604,-0.26037 -114.022009,-0.68837 -114.051609,-0.42909 -0.3451,3.0208 -1.5351,52.520741 -1.2789,53.194741 0.8994,2.36559 2.3913,2.74358 11.0053,2.78838 l 6.968,0.0362 z M 166.28177,78.648829 c -0.2319,-0.0774 -0.9301,-0.25238 -1.5516,-0.38896 -0.6214,-0.13657 -1.4277,-0.54616 -1.7918,-0.91018 -0.6014,-0.60145 -0.6619,-0.56289 -0.6619,0.42221 0,1.031 0.1085,1.08249 2.2134,1.05084 1.2175,-0.0184 2.0238,-0.0966 1.7919,-0.17391 z m 0.5703,-6.3277 c -0.094,-3.33151 0.01,-5.27011 0.2729,-5.27011 0.2665,0 0.3669,1.9386 0.2728,5.27011 l -0.1488,5.2701 h 1.4348 c 0.789,0 1.6622,-0.22768 1.9405,-0.50594 0.3571,-0.35721 0.5059,-2.81066 0.5059,-8.34766 0,-5.53703 -0.1488,-7.99048 -0.5059,-8.3477 -0.3002,-0.30019 -1.7453,-0.50592 -3.5535,-0.50592 -4.4676,0 -4.3727,-0.19224 -4.3727,8.85362 0,8.43433 0.1334,8.8536 2.814,8.8536 h 1.4888 z m -128.104509,4.00529 c 0.779,-0.77896 0.8433,-1.40533 0.8433,-8.22121 0,-6.81587 -0.065,-7.44224 -0.8433,-8.2212 -0.4811,-0.48115 -1.4053,-0.8432 -2.1523,-0.8432 h -1.3092 l 0.1498,5.05922 c 0.094,3.19161 -0.01,5.05921 -0.2718,5.05921 -0.266,0 -0.3663,-1.8676 -0.2718,-5.05921 l 0.1498,-5.05922 h -1.2286 c -0.6757,0 -1.5969,0.2693 -2.047,0.59841 -0.7595,0.55537 -0.8184,1.16454 -0.8184,8.46599 0,9.22257 -0.074,9.06441 4.2966,9.06441 2.0976,0 2.838,-0.1782 3.5029,-0.8432 z m 2.4174,-16.53666 c -0.089,-0.99162 -0.1632,-0.28519 -0.1648,1.56985 0,1.85505 0.072,2.66637 0.162,1.80295 0.091,-0.86342 0.092,-2.38118 0,-3.3728 z m -1.1525,-1.17054 c 0,-1.68054 -0.01,-1.68642 -1.6519,-1.68642 -2.0598,0 -2.9857,0.34086 -2.9857,1.09911 0,0.39014 0.4954,0.58731 1.4756,0.58731 0.9165,0 1.7551,0.30615 2.2134,0.80806 0.4057,0.44443 0.7852,0.82387 0.8432,0.84319 0.059,0.0193 0.1054,-0.72374 0.1054,-1.65125 z m 109.616109,-6.74561 v -5.48081 h -47.8517 -47.851609 v 5.48081 5.4808 h 47.851609 47.8517 z M 48.812861,41.118699 c 2.1807,-0.62615 7.4014,-1.14156 21.9764,-2.16959 12.4128,-0.87552 50.145309,-1.01659 60.710509,-0.22698 20.1132,1.50319 24.7044,2.18695 27.7202,4.12827 0.8285,0.53334 0.9486,0.53317 0.9486,-7.8e-4 0,-0.76992 -0.9923,-1.77446 -2.547,-2.57843 -1.452,-0.75085 -11.0444,-2.02068 -22.7659,-3.01371 -16.8138,-1.42444 -53.624809,-0.93185 -83.613109,1.11889 -6.2238,0.42562 -7.2346,0.93446 -7.5058,3.77837 l -0.1519,1.59366 1.6387,-1.03451 c 0.9014,-0.56899 2.5165,-1.28654 3.5893,-1.59458 z m 18.3272,-5.11918 c 2.4709,-0.15118 4.4924,-0.42575 4.4924,-0.61016 0,-0.18444 -2.6563,-0.39276 -5.903,-0.46295 -5.3899,-0.11651 -5.9031,-0.0635 -5.9025,0.6102 0,0.85177 0.4712,0.88154 7.3131,0.46291 z m 6.4863,-0.40143 c -0.1401,-0.14011 -0.5038,-0.15508 -0.8082,-0.0334 -0.3363,0.1346 -0.2364,0.2345 0.2548,0.25472 0.4444,0.0183 0.6934,-0.0813 0.5534,-0.22142 z m -1.9939,-9.8637 v -8.43201 h -3.5836 -3.5836 v 8.43201 8.432 h 3.5836 3.5836 z m 45.036709,8.11602 c -8.0408,-0.0641 -21.321209,-0.0642 -29.511909,-8e-5 -8.1908,0.064 -1.612,0.11643 14.619609,0.11648 16.2316,4e-5 22.9332,-0.0524 14.8923,-0.1164 z m 22.4194,-8.11602 v -8.43201 h -3.5837 -3.5836 v 8.43201 8.432 h 3.5836 3.5837 z m -22.8719,7.27279 c -8.0578,-0.0641 -21.243309,-0.0641 -29.301109,0 -8.0579,0.0641 -1.4651,0.1165 14.650509,0.1165 16.1157,0 22.7084,-0.0524 14.6506,-0.1165 z m 14.5058,-0.73368 c 0.1136,-0.11358 -0.039,-2.05821 -0.3361,-4.32141 -0.2985,-2.2632 -0.5495,-4.2572 -0.5579,-4.4311 -0.01,-0.17391 -12.5215,-0.3162 -27.8072,-0.3162 H 74.229061 l -0.2362,1.15939 c -0.4062,1.99406 -1.089,6.60607 -1.0924,7.37801 -0.01,0.6955 1.6486,0.73781 28.806209,0.73781 15.8451,0 28.9023,-0.0929 29.0158,-0.2065 z M 71.632461,16.459179 c 0,-0.248 -1.4756,-0.42161 -3.5836,-0.42161 -2.1079,0 -3.5836,0.17361 -3.5836,0.42161 0,0.24799 1.4757,0.4216 3.5836,0.4216 2.108,0 3.5836,-0.17361 3.5836,-0.4216 z m 67.456109,0 c 0,-0.248 -1.4756,-0.42161 -3.5837,-0.42161 -2.1079,0 -3.5836,0.17361 -3.5836,0.42161 0,0.24799 1.4757,0.4216 3.5836,0.4216 2.1081,0 3.5837,-0.17361 3.5837,-0.4216 z"
       id="path1" /></g></svg>
