<svg
   width="1100mm"
   height="200mm"
   viewBox="0 0 1100 200"
   version="1.1"
   id="svg1"
   xml:space="preserve"
   xmlns="http://www.w3.org/2000/svg"
   xmlns:svg="http://www.w3.org/2000/svg"><defs
     id="defs1" /><g
     id="layer1"><path
       style="fill:#000000;stroke-width:0.132787"
       d="m 38.457607,186.20834 c -0.1283,-0.33437 -0.16722,-0.95104 -0.0865,-1.37036 0.14092,-0.732 3.4409,-0.76685 82.564043,-0.87245 l 82.41708,-0.1099 -2.3188,-1.32809 c -2.97788,-1.70543 -7.05431,-5.80769 -8.7658,-8.82119 -1.33249,-2.3462 -2.82533,-6.61039 -3.1593,-9.02443 -0.0962,-0.69563 -0.2034,-0.0699 -0.23815,1.39032 -0.0547,2.29129 -0.21719,2.79788 -1.18709,3.69674 l -1.12385,1.04158 -43.03875,-0.13528 c -40.75513,-0.12805 -43.44148,-0.1828 -50.627629,-1.03215 -9.359294,-1.10623 -10.440494,-1.4083 -11.567364,-3.23162 -0.78639,-1.27239 -0.86988,-2.07251 -0.86988,-8.33525 0,-3.85763 0.17914,-7.10685 0.40419,-7.33192 0.25792,-0.25788 0.2503,-1.47127 -0.0209,-3.35172 -0.60061,-4.1635 -0.61417,-37.80918 -0.0198,-48.901964 0.94622,-17.65419 3.51543,-50.27278 4.1178,-52.27843 0.45125,-1.50239 1.9573,-2.74177 4.107904,-3.38043 1.71819,-0.51024 5.47236,-0.62478 20.476799,-0.62478 h 18.37282 l 1.11407,-1.03303 c 0.61272,-0.56816 1.83647,-2.3705 2.71939,-4.00521 0.88292,-1.63468 1.76838,-2.97217 1.96772,-2.97217 0.19933,0 -0.40971,1.39884 -1.35349,3.10851 -1.90658,3.45387 -1.96377,3.6371 -1.13514,3.6371 0.31941,0 0.81694,0.28458 1.10558,0.6324 0.44469,0.53577 2.41038,0.6324 12.86539,0.6324 h 12.3406 l 3.50676,-4.0052 3.50682,-4.00521 h 24.33128 24.33121 l 1.92985,2.25886 c 1.61781,1.89371 1.92979,2.54115 1.92979,4.00522 v 1.74633 h 18.78609 c 12.4167,0 18.69776,-0.14293 18.52554,-0.42159 -0.14336,-0.23188 -0.62883,-0.42161 -1.07893,-0.42161 -0.65414,0 -0.81828,-0.29602 -0.81828,-1.4756 v -1.4756 h 25.0852 25.08519 v 1.4756 c 0,1.17958 -0.16413,1.4756 -0.81827,1.4756 -0.4501,0 -0.93556,0.18973 -1.07888,0.42161 -0.1707,0.27612 2.47583,0.40178 7.66931,0.36417 4.36141,-0.0316 7.48888,-0.14148 6.94988,-0.24423 -0.89857,-0.1713 -0.95582,-0.33304 -0.68888,-1.9452 0.16017,-0.96709 0.45266,-2.06627 0.65002,-2.44262 0.52596,-1.003 3.60735,-1.63452 7.97528,-1.63452 4.7656,0 7.34698,0.61358 8.4429,2.00684 1.06374,1.3523 1.12018,3.75848 0.0945,4.02653 -0.40576,0.10605 15.741,0.21481 35.8818,0.24171 l 36.61956,0.0489 -0.15197,-9.48898 -0.15197,-9.48899 57.23308,0.10838 c 31.47814,0.0596 57.2807,-0.0345 57.33886,-0.20911 0.0584,-0.17461 43.16982,-0.4253 95.80356,-0.55703 52.63374,-0.13175 95.77336,-0.31523 95.86584,-0.40771 0.0925,-0.0925 -0.90126,-1.49177 -2.20832,-3.10949 -2.56242,-3.1715 -3.03102,-4.82969 -1.50212,-5.31495 0.48083,-0.15261 1.38201,-0.0838 2.00257,0.15288 0.62056,0.23671 3.04831,0.82659 5.39502,1.31085 4.07077,0.84006 5.50719,0.80965 6.13499,-0.12995 0.18332,-0.27443 1.81926,-0.0891 4.63762,0.52531 5.87632,1.28111 5.92567,1.2984 5.6628,1.98326 -0.1254,0.32687 -0.0312,0.59432 0.2104,0.59432 0.24116,0 0.14043,0.29813 -0.22395,0.66252 -0.79523,0.79514 -0.82333,1.11603 -0.15661,1.78276 0.39348,0.39349 0.35448,0.50592 -0.1757,0.50592 -0.37488,0 -0.7448,0.15218 -0.8221,0.33817 -0.077,0.186 -2.46604,-0.20915 -5.30846,-0.87811 -2.84232,-0.66897 -5.06036,-1.3903 -4.9289,-1.60298 0.1314,-0.21267 -0.0677,-0.38668 -0.44322,-0.38668 -0.3752,0 -0.58048,-0.16439 -0.45632,-0.36532 0.12416,-0.20092 -1.1927,-0.64757 -2.9264,-0.99253 -1.73364,-0.34496 -3.15208,-0.56756 -3.15208,-0.49465 0,0.0729 1.53676,1.37328 3.41494,2.88973 l 3.41496,2.75718 5.33328,-0.0179 c 3.0501,-0.0102 6.32594,-0.2656 7.65206,-0.59655 1.27538,-0.31827 1.90746,-0.59482 1.40468,-0.61454 -1.49676,-0.0586 -2.24786,-0.50007 -2.24786,-1.32089 0,-0.42525 0.16004,-0.87215 0.35574,-0.99309 0.33316,-0.20587 2.86568,0.32198 4.28188,0.89244 0.3478,0.14012 0.7946,0.21799 0.99295,0.17303 0.19835,-0.045 0.61051,0.12572 0.91605,0.37928 0.35808,0.29719 1.46592,0.358 3.11766,0.17115 l 2.5621,-0.28989 v 1.31926 1.31926 h 13.66694 c 8.4877,0 13.72004,0.15556 13.80738,0.41051 0.0904,0.26405 32.06537,0.45206 89.62523,0.527 82.42557,0.10731 89.48477,0.0623 89.48467,-0.56969 -10e-5,-0.97346 1.0501,-1.7212 2.1902,-1.55958 0.703,0.0996 1.0087,0.45767 1.105,1.29414 l 0.133,1.15637 22.4226,-0.0128 22.42301,-0.0128 10.75132,-2.74075 c 13.486,-3.43803 12.343,-3.06042 12.0982,-3.99682 -0.1679,-0.64168 0.1998,-0.90326 2.0095,-1.42932 3.9085,-1.13625 3.988,-1.11609 4.8955,1.24203 0.4463,1.15939 0.8115,2.61125 0.8117,3.22633 0,1.01677 -0.2639,1.19863 -2.9109,2.0026 -3.5477,1.07757 -3.6394,1.07926 -5.0341,0.0923 -1.1159,-0.78979 -1.1495,-0.78453 -12.0807,1.88832 l -10.96222,2.6803 -7.4838,0.009 c -6.17101,0.007 -7.48351,0.11363 -7.48351,0.60616 0,0.3285 -0.1779,0.66051 -0.3954,0.73781 -0.3794,0.13477 -1.7125,8.9909 -1.7125,11.37537 0,1.02624 0.1718,1.1657 1.5809,1.28232 1.3704,0.11342 1.581,0.27122 1.581,1.18485 0,0.93637 -0.2111,1.07753 -1.892,1.2648 l -1.8919,0.21079 -5.407,42.37083 -5.4069,42.370844 -0.4146,16.2316 c -0.2279,8.9274 -0.482,16.43571 -0.5646,16.68517 -0.082,0.24945 -2.1135,0.6995 -4.513,1.00011 -2.3995,0.30062 -4.5956,0.7327 -4.88,0.96017 -0.2845,0.22749 -1.8971,0.47949 -3.5836,0.56 -2.8047,0.13394 -39.475,5.4244 -40.6944,5.87107 -0.3846,0.14092 -0.5269,1.67588 -0.5269,5.68709 0,4.60252 -0.1026,5.49404 -0.6324,5.49404 -0.5298,0 -0.6324,-0.89031 -0.6324,-5.48281 v -5.48276 l -43.53024,0.10741 -43.53013,0.10735 -0.11704,6.00779 c -0.0966,4.95644 -0.22559,6.00779 -0.73779,6.00779 -0.51536,0 -0.62084,-0.94476 -0.62084,-5.55903 0,-5.13733 -0.07,-5.63345 -0.92207,-6.54058 -0.68063,-0.72454 -0.97328,-1.66988 -1.11728,-3.61079 l -0.19513,-2.6292 -0.56096,2.74039 c -1.27495,6.22853 -6.13285,12.90839 -11.51986,15.84032 l -2.26818,1.23451 99.88432,0.2108 99.88573,0.21079 v 1.26482 1.26477 l -484.32773,0.1056 C 101.4812,186.8026 38.660667,186.7375 38.457607,186.20836 Z m 181.684463,-3.32535 c 3.84783,-1.39667 6.08053,-2.81183 8.86594,-5.61954 4.29014,-4.32453 6.99771,-11.61495 6.39494,-17.21915 -0.63459,-5.90022 -2.71211,-10.32802 -6.73577,-14.35616 -9.12653,-9.13676 -23.19333,-8.85038 -31.99016,0.65126 -11.16839,12.06317 -6.05986,31.56359 9.62644,36.74617 1.38399,0.45726 3.65804,0.7107 6.62103,0.73782 3.73921,0.0343 4.97675,-0.12702 7.21758,-0.9404 z m -11.77319,-6.36812 c -2.28593,-0.75444 -4.8022,-2.37251 -6.65257,-4.2778 -1.60531,-1.6529 -3.63406,-5.3285 -3.63406,-6.58396 0,-0.89596 0.11525,-0.89101 -3.36877,-0.14431 -1.505,0.32258 -2.83307,0.48985 -2.95124,0.37169 -0.5312,-0.53121 -0.11642,-8.10044 0.56583,-10.32599 2.90074,-9.46228 11.3302,-15.95781 20.70896,-15.95781 12.12443,0 21.74156,9.80078 21.718,22.13267 -0.005,1.8558 -0.15534,3.60851 -0.33728,3.89495 -0.25746,0.40535 -0.93353,0.41693 -3.05009,0.0524 -1.4957,-0.25769 -2.95654,-0.65758 -3.2464,-0.88862 -0.38342,-0.3057 -0.52812,-0.20504 -0.53109,0.36928 -0.008,1.47155 -2.05133,5.19614 -3.98584,7.2643 -2.65701,2.84058 -6.17262,4.38467 -10.34447,4.54351 -1.85735,0.0707 -3.87535,-0.11502 -4.89098,-0.45021 z m 10.30316,-1.71766 c 5.96723,-2.67801 9.52788,-9.69248 8.06814,-15.89441 -0.75834,-3.22183 -1.90791,-5.26374 -4.24504,-7.54018 -6.92998,-6.74999 -18.39556,-4.51105 -22.71467,4.43564 -1.46073,3.02569 -1.65709,7.67258 -0.45842,10.84872 3.02292,8.01007 11.60627,11.62534 19.34999,8.15023 z m -9.18664,-0.67631 c -2.44226,-0.74321 -5.63834,-3.16663 -7.06154,-5.35423 -2.56211,-3.93842 -2.86059,-8.05294 -0.89414,-12.32572 1.87841,-4.08154 5.78821,-6.8829 10.36239,-7.42465 4.55049,-0.53895 9.71395,2.2876 12.11856,6.63389 1.14329,2.06652 1.26448,2.65059 1.26175,6.08052 -0.005,4.16513 -0.63628,5.91601 -3.19037,8.82501 -2.67778,3.0498 -8.69454,4.75274 -12.59665,3.56518 z m 8.09543,-1.55277 c 2.71805,-1.20787 4.35146,-2.80695 5.77297,-5.65166 2.66521,-5.3336 0.97764,-11.72147 -3.96082,-14.99257 -10.61072,-7.02825 -23.32402,5.84902 -16.17446,16.38302 3.25291,4.79271 9.19741,6.55639 14.36231,4.26121 z m -7.68944,-2.32765 c -0.80919,-0.25768 -2.26533,-1.26255 -3.2358,-2.23302 -3.64455,-3.64456 -3.51503,-8.99804 0.30754,-12.71683 4.29537,-4.17867 11.74958,-2.61429 14.07623,2.95409 2.99063,7.15762 -3.70755,14.36524 -11.14797,11.99576 z m 6.55547,-1.17225 c 0.44556,-0.72088 -0.96019,-1.9334 -1.55359,-1.33999 -0.26432,0.26432 -0.36649,0.77795 -0.22703,1.14135 0.29179,0.76033 1.35984,0.87955 1.78062,0.19864 z m -5.85274,-0.63448 c 0.35945,-0.93661 -0.76335,-1.55701 -1.49476,-0.82584 -0.31727,0.31715 -0.44836,0.7846 -0.29133,1.03874 0.42416,0.68632 1.48977,0.55929 1.78609,-0.2129 z m -3.42245,-3.92218 c -0.42416,-0.68626 -1.48977,-0.55925 -1.78609,0.21289 -0.35939,0.93667 0.76341,1.55702 1.49476,0.82584 0.31727,-0.31715 0.44841,-0.78459 0.29133,-1.03873 z m 8.58538,0.34868 c 2.56869,-2.56868 1.0791,-6.83015 -2.59138,-7.41353 -1.39272,-0.22135 -1.73762,-0.0818 -3.05662,1.23729 -1.07515,1.0751 -1.48679,1.85633 -1.48679,2.82146 0,4.1492 4.3126,6.17704 7.13479,3.35478 z m -4.86277,-0.53324 c -0.82014,-0.70543 -1.14776,-1.38639 -1.14776,-2.3855 0,-0.9991 0.32762,-1.68008 1.14776,-2.38554 1.47719,-1.27058 2.98051,-1.2539 4.28193,0.0475 1.68456,1.68453 1.25872,4.04924 -0.94005,5.22031 -1.34349,0.71553 -2.05546,0.6097 -3.34188,-0.49681 z m 3.46185,-0.17856 c 1.77666,-1.18629 1.45794,-4.00587 -0.53865,-4.76497 -2.35673,-0.89603 -4.54526,2.40036 -2.84267,4.28171 0.73152,0.80832 2.51319,1.06293 3.38132,0.48326 z m 5.57329,0.21725 c -0.0741,-0.52172 -0.41932,-0.9486 -0.76713,-0.9486 -0.34782,0 -0.69307,0.42688 -0.76714,0.9486 -0.10368,0.73008 0.073,0.94861 0.76714,0.94861 0.69405,0 0.87081,-0.21853 0.76713,-0.94861 z m -12.65105,-5.06531 c 0.1678,-0.87128 -1.04926,-1.45835 -1.69166,-0.816 -0.64233,0.64235 -0.0552,1.85943 0.81601,1.69164 0.40385,-0.0777 0.79792,-0.47181 0.87565,-0.87564 z m 12.65105,-0.41548 c -0.0741,-0.52173 -0.41932,-0.94861 -0.76713,-0.94861 -0.34782,0 -0.69307,0.42688 -0.76714,0.94861 -0.10368,0.73008 0.073,0.94859 0.76714,0.94859 0.69405,0 0.87081,-0.21851 0.76713,-0.94859 z m -3.85994,-3.08495 c 0.35137,-0.91569 -0.54068,-1.77684 -1.17918,-1.13832 -0.53969,0.53967 -0.20538,1.79906 0.47757,1.79906 0.2464,0 0.56215,-0.29732 0.70161,-0.66074 z m -5.05377,-0.4358 c 0.35945,-0.93665 -0.76336,-1.557 -1.49471,-0.82586 -0.31732,0.31718 -0.44841,0.78461 -0.29132,1.03875 0.4241,0.68628 1.48977,0.55925 1.78603,-0.21289 z m 16.98872,3.20455 c -1.53089,-6.94748 -7.11029,-11.92609 -13.91524,-12.41684 -2.59371,-0.18703 -2.62152,-0.17951 -0.571,0.15461 5.3291,0.86833 9.23557,3.15478 11.81561,6.91565 1.634,2.38194 2.21,4.12732 2.59913,7.87617 0.21532,2.07414 0.32069,2.38164 0.43345,1.2648 0.0819,-0.81156 -0.0809,-2.51906 -0.36195,-3.79439 z m -17.38837,-12.05953 c -0.14005,-0.14009 -0.50369,-0.15507 -0.80804,-0.0333 -0.33636,0.13459 -0.23645,0.23449 0.25472,0.25472 0.4444,0.0183 0.69342,-0.0813 0.55332,-0.22143 z m 270.36002,37.15183 c 0,-0.112 -0.92913,-0.67452 -2.0647,-1.24994 -2.68813,-1.36216 -7.09155,-5.72968 -8.73608,-8.66475 -1.44065,-2.5713 -2.988,-7.00504 -3.23691,-9.27519 -0.089,-0.81159 -0.19217,-0.22441 -0.2293,1.30486 -0.073,3.01034 -0.66089,3.98565 -2.61914,4.34534 -0.56756,0.1042 -51.07058,0.20364 -112.22901,0.22086 l -111.19708,0.0314 v 5.69157 c 0,4.77816 -0.10147,5.69162 -0.63239,5.69162 -0.5315,0 -0.63238,-0.92562 -0.63238,-5.80095 0,-5.24892 -0.0765,-5.84878 -0.8035,-6.30284 -0.44195,-0.27595 -1.03507,-1.20338 -1.31806,-2.06093 l -0.51463,-1.55916 -0.94458,2.90812 c -0.51951,1.5995 -1.48534,3.85406 -2.14635,5.0102 -1.57232,2.75028 -5.84156,6.98991 -8.67458,8.61453 l -2.25154,1.29113 129.11509,0.005 c 71.01329,0 129.11514,-0.0877 129.11514,-0.19974 z m 16.04961,-0.46499 c 7.25032,-2.11727 12.87357,-7.7271 15.38905,-15.35212 1.01358,-3.07243 1.03056,-9.05028 0.035,-12.2894 -2.45896,-7.99977 -8.97126,-14.05484 -16.92861,-15.73984 -3.69534,-0.7825 -5.56589,-0.78556 -9.20269,-0.015 -4.10384,0.86953 -7.9424,2.94794 -10.98208,5.94628 -2.25107,2.22048 -5.36308,6.93595 -5.30175,8.03336 0.011,0.19942 0.60655,-0.77417 1.32312,-2.16352 0.72764,-1.41083 2.5346,-3.75793 4.0929,-5.3162 4.33007,-4.33014 9.27158,-6.4443 15.01136,-6.42253 12.15423,0.046 21.73157,9.8084 21.70596,22.12528 -0.009,4.21649 -0.16767,4.40593 -3.18624,3.79973 -3.63563,-0.73013 -3.69822,-0.70861 -4.50015,1.54934 -2.16666,6.10042 -8.34641,10.08777 -15.01906,9.69079 -6.14153,-0.36533 -12.0204,-4.95481 -13.5794,-10.601 l -0.39814,-1.44187 -2.62991,0.56431 c -3.52189,0.75561 -3.6763,0.74095 -3.73279,-0.35474 -0.0372,-0.72408 -0.0949,-0.77242 -0.24297,-0.20422 -0.30709,1.1779 1.45874,5.93088 3.19926,8.6111 2.91843,4.4943 6.91236,7.62299 11.83799,9.27363 3.45651,1.15829 9.69309,1.30415 13.10912,0.30656 z m 290.87542,0.46499 c 0,-0.112 -0.9338,-0.67684 -2.07498,-1.25511 -2.73881,-1.38788 -7.20899,-5.90627 -8.86215,-8.95781 -0.72767,-1.3432 -1.68428,-3.58049 -2.12572,-4.97181 -0.6566,-2.06924 -0.80699,-2.29057 -0.82637,-1.21624 -0.0304,1.69235 -1.47434,3.53504 -2.76979,3.53504 -0.54918,0 -1.11579,-0.18967 -1.2591,-0.42159 -0.17203,-0.27845 -25.23012,-0.42158 -73.80492,-0.42158 H 622.6337 v -2.38414 c 0,-2.35744 -0.009,-2.37558 -0.84319,-1.62108 -0.78753,0.71273 -0.89433,0.71687 -1.61795,0.062 -0.7248,-0.656 -0.82272,-0.64815 -1.5191,0.12132 -0.72938,0.80593 -0.76153,0.80652 -1.59686,0.0285 -0.78737,-0.7335 -0.92975,-0.74357 -1.86448,-0.13109 -0.92243,0.6044 -1.07843,0.60295 -1.76274,-0.0163 -0.68882,-0.62337 -0.83034,-0.62372 -1.71471,-0.005 -0.87082,0.60992 -1.02705,0.61196 -1.61764,0.0215 -0.5902,-0.5902 -0.75071,-0.59031 -1.64948,0 -0.81151,0.53173 -1.11486,0.55344 -1.64037,0.11736 -0.52178,-0.43312 -0.84358,-0.42851 -1.68911,0.0238 -0.92134,0.49309 -1.11408,0.46395 -1.63399,-0.24704 -0.57829,-0.79087 -0.60608,-0.79105 -1.47067,-0.009 -0.85113,0.77022 -0.91013,0.77137 -1.72452,0.0343 -0.81361,-0.73642 -0.87269,-0.73642 -1.68638,0 -0.81368,0.73635 -0.87277,0.73635 -1.68637,0 -0.81369,-0.73642 -0.8727,-0.73642 -1.68646,0 -0.81369,0.73635 -0.87269,0.73635 -1.68638,0 -0.80987,-0.73292 -0.87611,-0.73333 -1.67555,-0.01 -0.78925,0.71419 -0.88982,0.7157 -1.93727,0.0297 -1.05896,-0.69389 -1.14327,-0.68771 -2.03425,0.14935 -0.87495,0.82194 -0.97171,0.83113 -1.64645,0.15639 -0.49165,-0.49164 -0.71685,-0.54702 -0.71685,-0.17617 0,0.83875 -7.13199,0.56105 -8.15601,-0.31756 -0.71724,-0.61534 -0.83595,-0.59608 -1.51824,0.24652 l -0.74012,0.91405 -0.89122,-0.89113 c -0.86763,-0.86773 -0.91364,-0.87069 -1.7492,-0.11462 -0.82832,0.74962 -0.88732,0.75009 -1.70124,0.0134 -0.81369,-0.73636 -0.87269,-0.73636 -1.68638,0 -0.81376,0.73641 -0.87276,0.73641 -1.68645,0 -0.81377,-0.73642 -0.87277,-0.7363 -1.69043,0.005 -0.73491,0.66503 -0.98486,0.69325 -1.88285,0.2126 -0.84575,-0.4526 -1.15557,-0.45458 -1.69027,-0.011 -0.54264,0.45045 -0.79757,0.41402 -1.4899,-0.2126 -0.80333,-0.72694 -0.86763,-0.72665 -1.67852,0.007 -0.782,0.70772 -0.89853,0.71308 -1.60479,0.0739 -0.69584,-0.62963 -0.84366,-0.63167 -1.71222,-0.0233 -0.87301,0.61149 -1.01733,0.60545 -1.76804,-0.0739 -0.77967,-0.70569 -0.85619,-0.70459 -1.66061,0.0233 -0.81361,0.73635 -0.87269,0.73635 -1.68638,0 -0.80434,-0.72798 -0.88086,-0.72903 -1.66061,-0.0233 -0.75141,0.67998 -0.89433,0.68579 -1.7706,0.072 -0.86529,-0.60609 -1.04605,-0.60689 -1.95867,-0.009 -0.92002,0.60282 -1.07399,0.59671 -1.81295,-0.072 -0.78769,-0.71285 -0.80753,-0.66438 -0.80722,1.96954 v 2.70029 l -12.01599,-0.12945 -12.0159,-0.12952 v 5.71573 c 0,5.43463 -0.0412,5.71565 -0.84327,5.71565 -0.80021,0 -0.84311,-0.28102 -0.84311,-5.5197 0,-4.88132 -0.0975,-5.64369 -0.84318,-6.59165 -0.46379,-0.58956 -0.84327,-1.41459 -0.84327,-1.83344 0,-1.59892 -0.76052,-1.13235 -1.26712,0.77742 -1.46196,5.51028 -5.67237,10.68129 -11.59166,14.23629 l -1.68638,1.01279 143.66027,0.0134 c 79.01312,0.007 143.66027,-0.0785 143.66027,-0.19055 z m 16.04957,-0.4689 c 11.19875,-3.28934 18.18976,-14.7281 15.82143,-25.88711 -1.70162,-8.01793 -7.4443,-14.38573 -15.42873,-17.10829 -3.05701,-1.04241 -9.37361,-1.0585 -12.71102,-0.0324 -7.39466,2.27363 -12.84592,7.76406 -15.34288,15.45315 -0.99522,3.0645 -0.99693,8.6512 -0.008,12.0156 2.11311,7.15836 7.99059,13.22549 14.92374,15.40535 3.14202,0.98794 9.6344,1.06624 12.74122,0.15366 z m -10.9905,-6.84399 c -1.0434,-0.38814 -2.46637,-1.02115 -3.16206,-1.40667 -2.72121,-1.50826 -5.82628,-5.39117 -6.62536,-8.28493 -0.39016,-1.41296 -0.44155,-1.44153 -2.15709,-1.2006 -0.96663,0.13574 -2.35931,0.36992 -3.09493,0.52039 -1.32223,0.27037 -1.34076,0.25117 -1.63259,-1.69492 -0.91044,-6.07104 1.63804,-13.1107 6.51003,-17.9827 4.32924,-4.3292 9.2711,-6.44338 15.01045,-6.42161 6.03735,0.0228 10.98638,2.13074 15.42549,6.56976 4.12764,4.12766 6.29305,9.49103 6.28044,15.55552 -0.01,4.37087 -0.0674,4.42474 -3.95912,3.65034 -2.95643,-0.58829 -3.20163,-0.58352 -3.20163,0.0619 0,2.26509 -3.65719,7.13333 -6.89603,9.17978 -3.52851,2.22943 -8.7723,2.83935 -12.4976,1.45374 z m 8.39307,-0.689 c 4.76336,-1.26773 9.0224,-5.61377 10.16376,-10.37146 1.55787,-6.49397 -1.85753,-13.47069 -8.01682,-16.376 -1.92835,-0.90964 -2.92203,-1.09376 -5.90235,-1.09376 -2.98042,0 -3.97392,0.18412 -5.90245,1.09376 -6.08496,2.8703 -9.49696,9.70347 -8.00771,16.03708 0.69805,2.96865 1.39899,4.29154 3.45699,6.52416 3.85687,4.18425 8.77343,5.63276 14.20858,4.18622 z m -7.76067,-1.62967 c -3.89461,-1.52701 -6.38471,-3.97625 -7.74868,-7.62178 -1.74478,-4.66359 -0.72431,-9.57388 2.72803,-13.12612 2.65958,-2.73646 5.10548,-3.75772 9.02591,-3.76853 5.14871,-0.0142 8.97827,2.34316 11.47678,7.06481 1.40993,2.66455 1.3659,8.15344 -0.0884,11.00093 -1.33859,2.62111 -4.51098,5.47811 -7.03907,6.33955 -2.27536,0.77528 -6.51672,0.83172 -8.35455,0.11114 z m 8.03712,-0.98986 c 2.89612,-0.98683 6.14161,-4.29636 7.12942,-7.27012 2.098,-6.31645 -1.56751,-13.14874 -8.06803,-15.0385 -5.4095,-1.57257 -11.36919,1.25366 -13.78094,6.53525 -1.3322,2.91741 -1.22601,7.17273 0.24966,10.00343 2.78844,5.34921 8.73991,7.72236 14.46989,5.76994 z m -7.61552,-3.02072 c -4.48901,-2.1397 -6.4775,-7.3264 -4.47063,-11.66096 2.7318,-5.90044 10.39819,-7.05686 14.65347,-2.21035 3.61482,4.11707 2.78984,10.26348 -1.79398,13.36594 -2.07988,1.40778 -6.00023,1.64394 -8.38886,0.50537 z m 7.16723,-1.33179 c 0,-0.34776 -0.42685,-0.69302 -0.94859,-0.76708 -0.7301,-0.10368 -0.94851,0.073 -0.94851,0.76708 0,0.69411 0.21841,0.87087 0.94851,0.76713 0.52174,-0.0741 0.94859,-0.41926 0.94859,-0.76713 z m -5.69156,-0.4216 c 0,-0.89419 -1.41133,-1.2078 -1.89727,-0.42158 -0.38921,0.62989 0.15241,1.26483 1.07894,1.26483 0.53724,0 0.81833,-0.28964 0.81833,-0.84325 z m -3.80978,-2.72188 c 0.57935,-0.69813 0.25055,-1.49412 -0.61707,-1.49412 -0.75872,0 -1.19038,0.72269 -0.89379,1.49581 0.29947,0.78045 0.86227,0.77982 1.51086,0 z m 8.90142,-0.61847 c 0.96645,-0.96653 1.23231,-1.61014 1.23231,-2.98362 0,-1.37348 -0.26586,-2.01711 -1.23231,-2.98363 -0.96654,-0.96652 -1.61023,-1.23238 -2.98365,-1.23238 -1.37352,0 -2.01712,0.26586 -2.98366,1.23238 -0.96654,0.96652 -1.2324,1.61015 -1.2324,2.98363 0,1.37348 0.26586,2.01709 1.2324,2.98362 0.96654,0.96653 1.61014,1.23235 2.98366,1.23235 1.37342,0 2.01711,-0.26582 2.98365,-1.23235 z m -5.12928,-0.39972 c -0.70506,-0.57095 -0.97424,-1.2265 -0.97424,-2.37311 0,-1.9369 1.29665,-3.162 3.34677,-3.162 1.58598,0 3.14587,1.56791 3.14587,3.162 0,0.51717 -0.39323,1.44017 -0.87383,2.05113 -1.06319,1.35169 -3.19087,1.49919 -4.64457,0.32198 z m 3.83805,-0.39599 c 1.78873,-1.44843 0.7167,-4.71752 -1.54693,-4.71752 -1.29569,0 -2.67508,1.41308 -2.67508,2.7404 0,1.24498 1.35487,2.74042 2.48284,2.74042 0.43805,0 1.22067,-0.34351 1.73917,-0.7633 z m 5.68552,0.34171 c 0,-0.34782 -0.42685,-0.69303 -0.94859,-0.76714 -0.73009,-0.10369 -0.9486,0.073 -0.9486,0.76714 0,0.69406 0.21851,0.87081 0.9486,0.76708 0.52174,-0.0741 0.94859,-0.41926 0.94859,-0.76708 z m -13.04455,-4.67807 c 0.44558,-0.72091 -0.96024,-1.9334 -1.55359,-1.34002 -0.26429,0.26433 -0.36653,0.77793 -0.22699,1.14133 0.29177,0.76038 1.35977,0.87954 1.78058,0.19869 z m 12.71653,-0.0109 c 0.57944,-0.57949 0.23382,-1.63503 -0.5354,-1.63503 -0.74068,0 -1.16727,0.73044 -0.87357,1.49581 0.28153,0.7335 0.76669,0.78146 1.40897,0.13922 z M 795.76981,155.8 c 0.13945,-0.3634 0.0376,-0.87701 -0.227,-1.14134 -0.59335,-0.59338 -1.99908,0.61912 -1.5535,1.34002 0.42072,0.68086 1.48881,0.5617 1.7805,-0.19868 z m 5.12473,-0.28786 c -0.0735,-0.52174 -0.41932,-0.94861 -0.76712,-0.94861 -0.3478,0 -0.69298,0.42687 -0.76712,0.94861 -0.10365,0.73008 0.0735,0.94859 0.76712,0.94859 0.69411,0 0.87076,-0.21851 0.76712,-0.94859 z m 12.17308,5.27802 c -0.10689,-0.41021 -0.20143,-0.17665 -0.2101,0.51898 -0.009,0.69564 0.0788,1.03126 0.19452,0.74583 0.11537,-0.28545 0.12247,-0.8546 0.0158,-1.26481 z m -0.4258,-2.72208 c -0.13464,-0.33632 -0.23452,-0.23641 -0.25466,0.25473 -0.0184,0.44443 0.0814,0.69344 0.22139,0.55334 0.14007,-0.14009 0.15504,-0.50372 0.0333,-0.80807 z m -2.00425,-4.61432 c -1.26479,-2.3633 -6.35091,-6.30388 -8.06916,-6.25173 -0.29904,0.009 0.0814,0.28822 0.84599,0.62031 2.25864,0.98121 5.03299,3.16149 6.24079,4.9043 1.22811,1.77214 1.74731,2.15645 0.98238,0.72712 z m -9.45616,-6.68984 c -0.46379,-0.19927 -1.98149,-0.34292 -3.37278,-0.31919 l -2.52958,0.0432 2.74038,0.27606 c 3.97024,0.39997 4.0928,0.39997 3.16198,0 z M 496.28619,174.8904 c 2.7954,-1.27978 5.56355,-3.98456 7.03469,-6.87372 0.905,-1.77741 1.05391,-2.63595 1.05391,-6.07515 0,-3.42346 -0.15055,-4.30004 -1.03694,-6.03521 -2.42113,-4.73945 -6.71297,-7.72367 -11.76712,-8.18197 -11.00722,-0.9981 -18.92494,10.77314 -13.90043,20.66557 3.41958,6.73257 11.75292,9.64244 18.61589,6.50048 z m -11.40422,-1.5608 c -7.76051,-3.92434 -9.52489,-13.79218 -3.56892,-19.96021 3.6958,-3.82741 8.58002,-4.98674 13.40431,-3.18173 8.73811,3.26934 11.15418,14.23422 4.58429,20.80423 -2.38571,2.38565 -4.58352,3.29801 -8.41803,3.49438 -3.12273,0.15994 -3.5676,0.0741 -6.00165,-1.15667 z m 10.69601,-0.7651 c 2.43724,-1.24947 4.33418,-3.27549 5.54689,-5.92441 0.88585,-1.93486 1.00744,-2.70816 0.83899,-5.33338 -0.4174,-6.50393 -5.21124,-10.96885 -11.71263,-10.90896 -3.31461,0.0305 -5.24565,0.80266 -7.7264,3.08931 -6.11697,5.63843 -4.71286,15.20943 2.78815,19.00477 2.36416,1.19629 2.9071,1.30794 5.57064,1.14585 1.87647,-0.11422 3.58604,-0.50508 4.69436,-1.07318 z m -9.16026,-2.75034 c -1.02191,-0.53952 -2.42728,-1.78904 -3.12288,-2.77669 -1.14444,-1.62491 -1.26486,-2.10951 -1.26486,-5.09312 0,-3.05541 0.0957,-3.41621 1.30402,-4.91748 1.6452,-2.04417 3.65213,-3.42025 5.49154,-3.76532 6.40604,-1.20178 11.99699,4.8307 10.304,11.11781 -1.41121,5.24076 -7.85834,7.99716 -12.71182,5.4348 z m 7.76455,-0.875 c 0.28428,-0.74083 -0.0552,-1.09522 -1.0501,-1.09522 -0.49188,0 -0.77289,0.30662 -0.77289,0.84317 0,0.98213 1.46514,1.18466 1.82299,0.25205 z m -6.03901,-0.67363 c 0,-0.5621 -0.28109,-0.84318 -0.84319,-0.84318 -0.56218,0 -0.84327,0.28108 -0.84327,0.84318 0,0.56215 0.28109,0.84323 0.84327,0.84323 0.5621,0 0.84319,-0.28108 0.84319,-0.84323 z m -3.37284,-3.22033 c 0,-0.7939 -1.199,-1.2301 -1.78119,-0.64793 -0.33192,0.33193 -0.31541,0.63355 0.0592,1.08493 0.60219,0.7257 1.72195,0.44155 1.72195,-0.437 z m 8.56422,0.0943 c 4.1441,-3.84057 -1.2275,-9.98539 -5.54969,-6.34851 -3.14593,2.64716 -1.4123,7.33482 2.7209,7.35721 1.25373,0.007 2.03285,-0.27101 2.82879,-1.0087 z m -5.19138,-0.66834 c -0.52202,-0.52196 -0.84319,-1.40531 -0.84319,-2.31877 0,-1.90592 1.22687,-3.16201 3.08847,-3.16201 2.85697,0 4.31122,3.48 2.25976,5.4073 -1.24189,1.16672 -3.37703,1.20152 -4.50504,0.0734 z m 4.18534,-0.68922 c 1.11136,-1.41284 1.10171,-2.17582 -0.0428,-3.39418 -1.13136,-1.20434 -2.42891,-1.24573 -3.64139,-0.11615 -1.17246,1.09234 -1.17464,2.40146 -0.008,3.64542 1.20944,1.28734 2.61185,1.23597 3.69035,-0.13509 z m 5.62295,1.28041 c 0.47188,-0.47186 -0.19897,-1.43436 -0.99981,-1.43436 -0.51703,0 -0.79812,0.29695 -0.79812,0.84317 0,0.8039 1.19294,1.19617 1.79793,0.59119 z m -13.32272,-5.4679 c 0.13949,-0.36341 0.0374,-0.87701 -0.22699,-1.14134 -0.59339,-0.59338 -1.99915,0.61912 -1.55358,1.34003 0.42082,0.68085 1.48882,0.56168 1.78057,-0.19869 z m 13.16478,0.0843 c 0.36445,-0.43917 0.32234,-0.70603 -0.17702,-1.12044 -0.80582,-0.66877 -1.70506,0.0363 -1.32137,1.03616 0.31222,0.81378 0.86708,0.84499 1.49839,0.0843 z m -9.37036,-3.87867 c 0.13942,-0.3634 0.0374,-0.87701 -0.22706,-1.14134 -0.59332,-0.59338 -1.99907,0.61911 -1.5535,1.34002 0.42073,0.68086 1.48881,0.5617 1.78056,-0.19868 z m 5.48626,-0.0142 c 0.35947,-0.93665 -0.7634,-1.55701 -1.49473,-0.82587 -0.31729,0.31718 -0.44838,0.78462 -0.29137,1.03876 0.42417,0.68627 1.48975,0.55925 1.7861,-0.21289 z m -393.21697,4.25049 v -9.49409 l -9.380619,0.11346 -9.380644,0.11348 -0.11793,7.1672 c -0.082,4.98953 0.0367,7.45701 0.39028,8.12104 0.70116,1.31621 2.41241,1.7342 10.689274,2.61094 3.942,0.41758 7.309559,0.78232 7.483469,0.8106 0.1739,0.0284 0.31617,-4.2209 0.31617,-9.44263 z m 3.79443,-41.51957 V 67.924756 h -1.47563 -1.47556 v 35.977934 c 0,19.78788 0.12555,42.55429 0.27903,50.59205 l 0.2791,14.61407 h 1.19654 1.19652 z m 80.52566,42.67021 c 0,-8.70144 0.3673,-10.94634 2.5339,-15.486 1.57494,-3.29992 4.96615,-7.18198 8.21692,-9.40622 4.43186,-3.03235 4.37385,-3.02198 16.90411,-3.02198 h 11.23961 l 2.79217,1.36926 c 3.8771,1.90132 8.77902,6.64043 10.75186,10.39471 2.18248,4.15335 2.69454,6.82496 3.01768,15.74546 l 0.28644,7.90501 h 111.04593 111.04599 v -7.71104 c 0,-8.68028 0.38848,-10.91523 2.73236,-15.7175 1.67902,-3.44011 4.08026,-6.3267 7.14852,-8.59339 4.50674,-3.32932 4.17859,-3.26315 17.28927,-3.48525 l 11.78175,-0.19959 2.91084,1.49735 c 3.61064,1.85733 8.04563,5.92302 9.98928,9.15749 2.61005,4.34362 3.35399,7.26852 3.36925,13.2471 0.008,2.89851 0.13529,6.8352 0.28412,8.74822 l 0.27082,3.4782 h 11.32069 11.32069 V 144.02352 118.93829 H 323.08675 104.90856 v 25.08523 25.08521 h 40.05205 40.05202 z m -78.57008,6.8678 c -0.36009,-0.93837 0.13981,-1.89721 0.9891,-1.89721 1.16756,0 1.91729,1.1189 1.27135,1.89721 -0.2887,0.34781 -0.86075,0.63244 -1.27135,0.63244 -0.41053,0 -0.85569,-0.28463 -0.9891,-0.63244 z m 66.0859,-0.39203 c -0.41979,-1.09389 0.1686,-1.99804 1.20448,-1.8509 0.69679,0.0989 0.95053,0.4163 0.95053,1.18896 0,0.77266 -0.25374,1.08999 -0.95053,1.18895 -0.57012,0.0809 -1.05211,-0.12992 -1.20448,-0.52701 z m 7.58877,0 c -0.41973,-1.09389 0.16862,-1.99804 1.20455,-1.8509 0.6968,0.0989 0.95047,0.4163 0.95047,1.18896 0,0.77266 -0.25367,1.08999 -0.95047,1.18895 -0.57013,0.0809 -1.05216,-0.12992 -1.20455,-0.52701 z m 63.28476,0.17745 c -0.44778,-0.72442 0.22969,-2.10422 1.03308,-2.10422 1.18168,0 1.938,1.11408 1.28804,1.89721 -0.5987,0.72134 -1.92991,0.84009 -2.32112,0.20701 z m 7.20733,-0.26042 c -0.29527,-0.76952 0.41961,-1.8438 1.22701,-1.8438 0.80734,0 1.52223,1.07428 1.22695,1.8438 -0.14476,0.3772 -0.69691,0.68579 -1.22695,0.68579 -0.5301,0 -1.08225,-0.30859 -1.22701,-0.68579 z m 106.41625,-0.76877 c 0,-1.03419 0.0971,-1.07503 2.55892,-1.07503 2.41253,0 2.55124,0.0541 2.42422,0.94861 -0.11939,0.84033 -0.41147,0.96303 -2.55892,1.07503 -2.35051,0.12259 -2.42422,0.0937 -2.42422,-0.94861 z m 8.58242,0.39524 c -0.27945,-0.72816 0.53574,-1.89185 1.32516,-1.89185 0.80739,0 1.52228,1.07427 1.22701,1.84379 -0.33176,0.86441 -2.22524,0.90009 -2.55217,0.0482 z m 7.58878,0 c -0.27939,-0.72816 0.53574,-1.89185 1.32522,-1.89185 0.80733,0 1.52222,1.07427 1.22694,1.84379 -0.33169,0.86441 -2.22518,0.90009 -2.55216,0.0482 z m 70.42064,0.0348 c -0.41973,-1.09395 0.16861,-1.99805 1.20455,-1.85096 0.69679,0.0989 0.95046,0.41629 0.95046,1.18895 0,0.77267 -0.25367,1.09005 -0.95046,1.18902 -0.57013,0.0809 -1.05218,-0.12997 -1.20455,-0.52701 z m 7.2526,-0.0817 c -0.41252,-1.07492 0.81583,-2.17765 1.76135,-1.58128 0.4014,0.25326 0.72984,0.81921 0.72984,1.25766 0,1.08458 -2.09474,1.3567 -2.49119,0.32362 z m 84.2347,0.0817 c -0.4198,-1.09395 0.16853,-1.99805 1.20446,-1.85096 0.69684,0.0989 0.95053,0.41629 0.95053,1.18895 0,0.77267 -0.25369,1.09005 -0.95053,1.18902 -0.57012,0.0809 -1.05212,-0.12997 -1.20446,-0.52701 z M 107.01657,126.10547 v -4.6376 h 9.9076 9.90764 v 4.6376 4.63761 h -9.90764 -9.9076 z m 8.01045,-0.2108 c 0,-2.7117 -0.0123,-2.74024 -1.1594,-2.72699 -1.05404,0.0123 -1.09232,0.0643 -0.4216,0.57349 0.5343,0.40559 0.73775,1.15768 0.73775,2.72699 0,1.1918 0.18974,2.16691 0.4216,2.16691 0.23785,0 0.42165,-1.19453 0.42165,-2.7404 z m 5.48077,2.3188 c 0,-0.23187 -0.38511,-0.42159 -0.8558,-0.42159 -0.84766,0 -0.84714,-0.0118 0.0541,-1.23089 0.62481,-0.84514 0.8281,-1.55726 0.6486,-2.2723 -0.44643,-1.77881 -2.35928,-1.89919 -3.26571,-0.20551 -0.59532,1.11238 -0.0367,1.59544 0.69249,0.59856 0.55121,-0.75379 1.88301,-0.70923 1.88301,0.063 0,0.19366 -0.66403,0.99573 -1.47563,1.78234 -0.81158,0.78662 -1.47561,1.58271 -1.47561,1.76911 0,0.18638 0.85377,0.33888 1.89721,0.33888 1.04351,0 1.8972,-0.18971 1.8972,-0.42159 z m 388.29382,-4.42681 v -4.00519 h 11.59407 11.594 v 4.00519 4.00522 h -11.594 -11.59407 z m 9.69682,-0.42158 c 0,-2.45933 -0.0865,-2.74041 -0.84319,-2.74041 -0.4637,0 -0.84318,0.18973 -0.84318,0.42161 0,0.23188 0.1897,0.42159 0.42159,0.42159 0.23181,0 0.42159,1.04346 0.42159,2.31879 0,1.27535 0.1897,2.31881 0.42168,2.31881 0.23773,0 0.42151,-1.19453 0.42151,-2.74039 z m 5.48081,2.3188 c 0,-0.23187 -0.41249,-0.42161 -0.91668,-0.42161 h -0.91667 l 0.91667,-0.97576 c 1.81319,-1.93003 0.54233,-4.81527 -1.61289,-3.66184 -0.85891,0.45969 -1.18857,2.10799 -0.42159,2.10799 0.23181,0 0.42159,-0.28457 0.42159,-0.63238 0,-0.35134 0.37473,-0.63241 0.84319,-0.63241 1.2907,0 1.04285,1.4868 -0.4216,2.5296 -1.81512,1.29251 -1.65204,2.108 0.4216,2.108 0.92749,0 1.68638,-0.18972 1.68638,-0.42159 z m 8.46528,0.1054 c 0.0179,-1.10143 0.12898,-1.76544 0.24598,-1.47559 0.11692,0.28984 0.43638,0.52698 0.70984,0.52698 0.27346,0 0.85339,0.47431 1.28868,1.054 1.23139,1.63975 1.94894,1.3574 1.87507,-0.73779 -0.0444,-1.25809 -0.11552,-1.44646 -0.23882,-0.6324 -0.0988,0.6521 -0.44355,1.1594 -0.78808,1.1594 -0.40057,0 -0.55797,-0.328 -0.45499,-0.9486 0.0865,-0.52173 0.0762,-0.71144 -0.0226,-0.42159 -0.0991,0.28984 -0.37185,0.52698 -0.606,0.52698 -0.23423,0 -0.34484,-0.23714 -0.24591,-0.52698 0.099,-0.28985 -0.20021,-0.86023 -0.66485,-1.26749 -0.46464,-0.40727 -0.70922,-0.87607 -0.54349,-1.04179 0.16572,-0.16573 0.4704,-0.0277 0.67707,0.30667 0.20667,0.33439 0.48535,0.49833 0.61939,0.36433 0.3457,-0.3457 -0.17553,-1.54795 -0.76067,-1.75447 -0.27012,-0.0953 -0.0475,-0.0984 0.49375,-0.007 1.68809,0.28532 3.02036,1.99367 3.02036,3.87294 0,2.70242 -0.25921,3.00485 -2.57471,3.00485 h -2.0629 z m 4.6264,-3.86921 c -0.32211,-0.44693 -0.93317,-0.90346 -1.35788,-1.01452 -1.32862,-0.34745 -0.84264,-1.12408 0.70346,-1.12408 1.40529,0 1.47558,0.0703 1.47558,1.4756 0,1.71322 -0.0404,1.74598 -0.82116,0.663 z m 114.86405,35.70018 v -11.06717 l 9.39401,-0.11348 9.3941,-0.11351 -0.11887,11.18081 -0.11886,11.18077 h 33.83341 33.8334 v -7.38793 -7.38796 l 7.27266,0.11535 7.27258,0.11534 v 7.27292 7.27285 h 8.74816 8.74824 v -7.84411 c 0,-8.50507 0.42027,-11.15328 2.397,-15.10297 2.44541,-4.88647 6.82296,-9.1948 11.60409,-11.42063 2.19421,-1.02155 2.41368,-1.0385 13.49408,-1.04256 9.77586,-0.004 11.47424,0.092 12.8587,0.72354 4.84074,2.20796 9.82795,6.83354 12.23024,11.3435 2.14502,4.02692 2.63218,6.91568 2.63927,15.64907 l 0.009,7.69416 42.89773,-0.0186 42.89786,-0.0186 21.9233,-3.26751 21.9232,-3.26761 0.1101,-17.36443 0.11,-17.36442 -10.0176,-0.11304 -10.0178,-0.11304 -0.1223,-3.47819 -0.1225,-3.47821 6.2356,0.0129 c 4.4425,0.009 6.0234,0.13638 5.4978,0.44254 -0.7824,0.45573 -1.0291,2.07423 -0.3162,2.07423 0.2319,0 0.4216,-0.28458 0.4216,-0.6324 0,-0.35134 0.3749,-0.6324 0.8432,-0.6324 1.2907,0 1.0429,1.48679 -0.4216,2.52959 -1.815,1.29251 -1.6519,2.10801 0.4216,2.10801 0.9276,0 1.6865,-0.18971 1.6865,-0.42159 0,-0.23188 -0.4126,-0.42161 -0.9167,-0.42161 h -0.9169 l 0.9167,-0.97577 c 1.1043,-1.17552 1.1961,-3.03561 0.1788,-3.62806 -0.5424,-0.31593 0.2392,-0.43312 2.9513,-0.44254 2.9923,-0.0103 3.689,-0.13226 3.689,-0.64524 0,-0.56105 -18.6675,-0.63239 -165.47812,-0.63239 H 624.32163 v 24.87442 24.87438 h 13.80737 13.80744 z m -26.18618,10.04241 c -0.4198,-1.09388 0.16853,-1.99803 1.20446,-1.85095 0.69677,0.099 0.95045,0.4163 0.95045,1.18901 0,0.77266 -0.25368,1.08999 -0.95045,1.18895 -0.57012,0.0809 -1.0522,-0.12992 -1.20446,-0.52701 z m 132.6845,0.0238 c -0.70735,-0.85238 -0.1061,-1.95062 1.068,-1.95062 1.20321,0 1.73043,1.0119 0.99124,1.90256 -0.64998,0.78319 -1.43385,0.80152 -2.05924,0.0482 z m 76.76264,0.0378 c -0.66198,-0.79761 0.33047,-2.13436 1.42788,-1.92304 1.17559,0.22644 1.12158,2.20971 -0.0648,2.37926 -0.4841,0.0692 -1.09741,-0.13615 -1.36301,-0.45622 z m -194.35732,-0.82892 c 0.11934,-0.84033 0.4114,-0.96303 2.55892,-1.07509 2.35045,-0.12259 2.42416,-0.0937 2.42416,0.94866 0,1.03419 -0.0971,1.07503 -2.55891,1.07503 -2.41249,0 -2.5512,-0.0541 -2.42417,-0.9486 z m 310.38556,-5.55665 c -0.4198,-1.09392 0.1686,-1.99804 1.2045,-1.85094 0.6968,0.0989 0.9504,0.41628 0.9504,1.18896 0,0.77268 -0.2536,1.09003 -0.9504,1.18898 -0.5701,0.081 -1.0521,-0.12994 -1.2045,-0.527 z m -281.37121,-3.82397 v -10.32921 h -8.64284 -8.64276 v 10.04814 c 0,5.52647 0.12649,10.17463 0.28101,10.32922 0.15459,0.15459 4.04391,0.28107 8.64284,0.28107 h 8.36175 z m -10.02275,-0.1054 0.11513,-7.48342 3.47823,-0.12244 3.47823,-0.12245 v 7.60585 7.60585 h -3.59336 -3.59336 z m 2.32873,6.53478 c -0.2656,-0.79772 -1.58121,-0.91113 -1.58121,-0.13632 0,0.3911 0.36049,0.66334 0.87837,0.66334 0.51516,0 0.80575,-0.21789 0.70284,-0.52702 z m 2.21321,-0.10537 c 0,-0.35134 -0.37473,-0.63241 -0.84319,-0.63241 -0.46845,0 -0.84318,0.28107 -0.84318,0.63241 0,0.35131 0.37473,0.63239 0.84318,0.63239 0.46846,0 0.84319,-0.28108 0.84319,-0.63239 z m 2.00281,-0.10541 c 0.10291,-0.30911 -0.18768,-0.527 -0.70292,-0.527 -0.5178,0 -0.87829,0.27222 -0.87829,0.6633 0,0.77488 1.31553,0.66143 1.58121,-0.1363 z m -4.21602,-1.4756 c -0.2656,-0.79774 -1.58121,-0.91116 -1.58121,-0.13632 0,0.3911 0.36049,0.66332 0.87837,0.66332 0.51516,0 0.80575,-0.2179 0.70284,-0.527 z m 2.21321,-0.1054 c 0,-0.35133 -0.37473,-0.63241 -0.84319,-0.63241 -0.46845,0 -0.84318,0.28108 -0.84318,0.63241 0,0.35133 0.37473,0.6324 0.84318,0.6324 0.46846,0 0.84319,-0.28107 0.84319,-0.6324 z m 2.10797,0 c 0,-0.35133 -0.37473,-0.63241 -0.84318,-0.63241 -0.46846,0 -0.84319,0.28108 -0.84319,0.63241 0,0.35133 0.37473,0.6324 0.84319,0.6324 0.46845,0 0.84318,-0.28107 0.84318,-0.6324 z m -4.21594,-1.68641 c 0,-0.35132 -0.37473,-0.63239 -0.84326,-0.63239 -0.46838,0 -0.84319,0.28107 -0.84319,0.63239 0,0.35135 0.37481,0.6324 0.84319,0.6324 0.46853,0 0.84326,-0.28105 0.84326,-0.6324 z m 2.10797,0 c 0,-0.35132 -0.37473,-0.63239 -0.84319,-0.63239 -0.46845,0 -0.84318,0.28107 -0.84318,0.63239 0,0.35135 0.37473,0.6324 0.84318,0.6324 0.46846,0 0.84319,-0.28105 0.84319,-0.6324 z m 2.10797,0 c 0,-0.35132 -0.37473,-0.63239 -0.84318,-0.63239 -0.46846,0 -0.84319,0.28107 -0.84319,0.63239 0,0.35135 0.37473,0.6324 0.84319,0.6324 0.46845,0 0.84318,-0.28105 0.84318,-0.6324 z m -4.21594,-1.6864 c 0,-0.35133 -0.37473,-0.6324 -0.84326,-0.6324 -0.46838,0 -0.84319,0.28107 -0.84319,0.6324 0,0.35134 0.37481,0.6324 0.84319,0.6324 0.46853,0 0.84326,-0.28106 0.84326,-0.6324 z m 2.10797,0 c 0,-0.35133 -0.37473,-0.6324 -0.84319,-0.6324 -0.46845,0 -0.84318,0.28107 -0.84318,0.6324 0,0.35134 0.37473,0.6324 0.84318,0.6324 0.46846,0 0.84319,-0.28106 0.84319,-0.6324 z m 2.10797,0 c 0,-0.35133 -0.37473,-0.6324 -0.84318,-0.6324 -0.46846,0 -0.84319,0.28107 -0.84319,0.6324 0,0.35134 0.37473,0.6324 0.84319,0.6324 0.46845,0 0.84318,-0.28106 0.84318,-0.6324 z m -4.32118,-1.79179 c 0.10291,-0.30912 -0.18768,-0.527 -0.70284,-0.527 -0.51788,0 -0.87837,0.27222 -0.87837,0.6633 0,0.77486 1.31561,0.66145 1.58121,-0.1363 z m 2.21321,0.10539 c 0,-0.35132 -0.37473,-0.63239 -0.84319,-0.63239 -0.46845,0 -0.84318,0.28107 -0.84318,0.63239 0,0.35135 0.37473,0.6324 0.84318,0.6324 0.46846,0 0.84319,-0.28105 0.84319,-0.6324 z m 2.10797,0 c 0,-0.35132 -0.37473,-0.63239 -0.84318,-0.63239 -0.46846,0 -0.84319,0.28107 -0.84319,0.63239 0,0.35135 0.37473,0.6324 0.84319,0.6324 0.46845,0 0.84318,-0.28105 0.84318,-0.6324 z m -4.21594,-2.108 c 0,-0.35133 -0.37473,-0.6324 -0.84326,-0.6324 -0.46838,0 -0.84319,0.28107 -0.84319,0.6324 0,0.35134 0.37481,0.6324 0.84319,0.6324 0.46853,0 0.84326,-0.28106 0.84326,-0.6324 z m 2.10797,0 c 0,-0.35133 -0.37473,-0.6324 -0.84319,-0.6324 -0.46845,0 -0.84318,0.28107 -0.84318,0.6324 0,0.35134 0.37473,0.6324 0.84318,0.6324 0.46846,0 0.84319,-0.28106 0.84319,-0.6324 z m 2.10797,0 c 0,-0.35133 -0.37473,-0.6324 -0.84318,-0.6324 -0.46846,0 -0.84319,0.28107 -0.84319,0.6324 0,0.35134 0.37473,0.6324 0.84319,0.6324 0.46845,0 0.84318,-0.28106 0.84318,-0.6324 z m -4.32118,-1.7918 c 0.10291,-0.30911 -0.18768,-0.527 -0.70284,-0.527 -0.51788,0 -0.87837,0.27223 -0.87837,0.66331 0,0.77486 1.31561,0.66144 1.58121,-0.13631 z m 2.21321,0.1054 c 0,-0.35132 -0.37473,-0.6324 -0.84319,-0.6324 -0.46845,0 -0.84318,0.28108 -0.84318,0.6324 0,0.35134 0.37473,0.6324 0.84318,0.6324 0.46846,0 0.84319,-0.28106 0.84319,-0.6324 z m 2.00281,-0.1054 c 0.10291,-0.30911 -0.18768,-0.527 -0.70292,-0.527 -0.5178,0 -0.87829,0.27223 -0.87829,0.66331 0,0.77486 1.31553,0.66144 1.58121,-0.13631 z m -4.21602,-1.8972 c -0.2656,-0.79774 -1.58121,-0.91116 -1.58121,-0.13632 0,0.39111 0.36049,0.66332 0.87837,0.66332 0.51516,0 0.80575,-0.21789 0.70284,-0.527 z m 2.21321,-0.1054 c 0,-0.35133 -0.37473,-0.6324 -0.84319,-0.6324 -0.46845,0 -0.84318,0.28107 -0.84318,0.6324 0,0.35135 0.37473,0.6324 0.84318,0.6324 0.46846,0 0.84319,-0.28105 0.84319,-0.6324 z m 2.00281,0.1054 c -0.26568,-0.79774 -1.58121,-0.91116 -1.58121,-0.13632 0,0.39111 0.36049,0.66332 0.87829,0.66332 0.51524,0 0.80583,-0.21789 0.70292,-0.527 z m 73.88525,15.7046 c 0,-0.46842 -0.28109,-0.84318 -0.63239,-0.84318 -0.35138,0 -0.63247,0.37476 -0.63247,0.84318 0,0.46843 0.28109,0.84323 0.63247,0.84323 0.3513,0 0.63239,-0.3748 0.63239,-0.84323 z m 2.52957,0 c 0,-0.6183 -0.28109,-0.84318 -1.05399,-0.84318 -0.77297,0 -1.05398,0.22488 -1.05398,0.84318 0,0.61837 0.28101,0.84323 1.05398,0.84323 0.7729,0 1.05399,-0.22486 1.05399,-0.84323 z m 2.52956,0 c 0,-0.6183 -0.28108,-0.84318 -1.05398,-0.84318 -0.7729,0 -1.05399,0.22488 -1.05399,0.84318 0,0.61837 0.28109,0.84323 1.05399,0.84323 0.7729,0 1.05398,-0.22486 1.05398,-0.84323 z m 2.10805,0 c 0,-0.5621 -0.28109,-0.84318 -0.84319,-0.84318 -0.56217,0 -0.84326,0.28108 -0.84326,0.84318 0,0.56216 0.28109,0.84323 0.84326,0.84323 0.5621,0 0.84319,-0.28107 0.84319,-0.84323 z m 2.10797,0 c 0,-0.46842 -0.28108,-0.84318 -0.63239,-0.84318 -0.35138,0 -0.63239,0.37476 -0.63239,0.84318 0,0.46843 0.28101,0.84323 0.63239,0.84323 0.35131,0 0.63239,-0.3748 0.63239,-0.84323 z m 2.52965,0 c 0,-0.5621 -0.28109,-0.84318 -0.84319,-0.84318 -0.56218,0 -0.84327,0.28108 -0.84327,0.84318 0,0.56216 0.28109,0.84323 0.84327,0.84323 0.5621,0 0.84319,-0.28107 0.84319,-0.84323 z M 545.90245,105.26895 c 0,-45.731604 -0.11715,-59.637714 -0.5059,-60.026434 -0.39349,-0.39349 -0.39349,-0.50592 0,-0.50592 0.38026,0 0.5059,-2.67012 0.5059,-10.7508 0,-9.24642 -0.088,-10.75082 -0.62858,-10.75082 -0.55463,0 -0.62928,8.39697 -0.63371,71.3032 -0.008,63.400274 0.0654,71.244884 0.62858,70.777214 0.55844,-0.46347 0.63371,-7.59768 0.63371,-60.04644 z m 5.48088,-0.0843 c 0,-53.775544 -0.0708,-60.492534 -0.63247,-60.026414 -0.55665,0.46198 -0.63239,7.65256 -0.63239,60.045334 0,57.89207 0.049,60.53233 1.13837,60.53233 0.0692,0 0.12649,-27.24805 0.12649,-60.55125 z m 1.26229,-10.935684 c -0.008,-46.1931 -0.14984,-71.01396 -0.41918,-71.01396 -0.26926,0 -0.41576,24.91149 -0.4191,71.27615 -0.008,47.708674 0.13513,71.189484 0.4191,71.014014 0.28195,-0.17426 0.42253,-24.08668 0.41918,-71.276204 z m 10.12091,10.987304 c 0,-52.421854 -0.0756,-59.616054 -0.63239,-60.078034 -0.56171,-0.46612 -0.63247,6.2566 -0.63247,60.078034 0,53.82144 0.0708,60.54414 0.63247,60.07805 0.55657,-0.46197 0.63239,-7.6562 0.63239,-60.07805 z m 1.68638,-0.0516 c 0,-53.775544 -0.0708,-60.492524 -0.63247,-60.026424 -0.55657,0.462 -0.63231,7.65257 -0.63231,60.045344 0,57.89206 0.049,60.53233 1.13829,60.53233 0.0692,0 0.12649,-27.24805 0.12649,-60.55125 z m 1.68638,0.0516 c 0,-52.421854 -0.0755,-59.616054 -0.6324,-60.078034 -0.56163,-0.46612 -0.63239,6.2566 -0.63239,60.078034 0,53.82144 0.0708,60.54414 0.63239,60.07805 0.55665,-0.46197 0.6324,-7.6562 0.6324,-60.07805 z m 3.37283,0 c 0,-52.421854 -0.0756,-59.616054 -0.63239,-60.078034 -0.56171,-0.46612 -0.63247,6.2566 -0.63247,60.078034 0,53.82144 0.0708,60.54414 0.63247,60.07805 0.55665,-0.46197 0.63239,-7.6562 0.63239,-60.07805 z M 571.196,94.485456 c -0.008,-62.85948 -0.0791,-71.25045 -0.63371,-71.25045 -0.54062,0 -0.62858,1.5044 -0.62858,10.75081 0,7.12974 0.14697,10.75081 0.43639,10.75081 0.30086,0 0.30086,0.25334 0,0.81549 -0.29487,0.55095 -0.43639,19.91074 -0.43639,59.684154 0,55.41953 0.0898,60.49963 1.0701,60.49963 0.10859,0 0.19507,-32.06268 0.19219,-71.250444 z m 1.68887,10.750814 c 0,-52.421854 -0.0756,-59.616054 -0.63239,-60.078034 -0.56163,-0.46612 -0.63239,6.2566 -0.63239,60.078034 0,53.82144 0.0708,60.54414 0.63239,60.07805 0.55673,-0.46197 0.63239,-7.6562 0.63239,-60.07805 z m 5.05921,-0.0516 c 0,-53.775544 -0.0708,-60.492524 -0.63239,-60.026424 -0.55665,0.462 -0.63239,7.65257 -0.63239,60.045344 0,57.89206 0.049,60.53233 1.13836,60.53233 0.0693,0 0.12642,-27.24805 0.12642,-60.55125 z m 6.74566,-10.488394 v -71.03965 h -2.31884 -2.31877 v 70.75858 c 0,38.917224 0.12642,70.885044 0.28101,71.039694 0.1546,0.15453 1.19807,0.28102 2.31877,0.28102 h 2.03783 z m 2.10548,-0.21079 c -0.008,-62.8595 -0.0791,-71.25046 -0.63371,-71.25046 -0.54061,0 -0.62858,1.5044 -0.62858,10.75081 0,7.12974 0.14697,10.75081 0.43639,10.75081 0.30086,0 0.30086,0.25334 0,0.81548 -0.29487,0.55097 -0.43639,19.91075 -0.43639,59.684164 0,55.41953 0.0898,60.49963 1.0701,60.49963 0.10859,0 0.19508,-32.06268 0.19219,-71.250434 z m 1.68887,10.750804 c 0,-52.421854 -0.0755,-59.616044 -0.63239,-60.078044 -0.56163,-0.4661 -0.63239,6.25662 -0.63239,60.078044 0,53.82144 0.0708,60.54414 0.63239,60.07804 0.55665,-0.46197 0.63239,-7.65619 0.63239,-60.07804 z m 2.10797,-0.0653 c 0,-60.538274 0,-60.564634 -0.84318,-59.801894 -0.83556,0.75615 -0.84319,1.29851 -0.84319,59.793994 0,54.33722 0.0552,59.09219 0.69778,59.8019 0.38376,0.42403 0.76316,0.77097 0.84319,0.77097 0.0799,0 0.1454,-27.25422 0.1454,-60.56497 z m 1.68646,0.0653 c 0,-52.421854 -0.0755,-59.616044 -0.63239,-60.078044 -0.56163,-0.4661 -0.63239,6.25662 -0.63239,60.078044 0,53.82144 0.0708,60.54414 0.63239,60.07804 0.55665,-0.46197 0.63239,-7.65619 0.63239,-60.07804 z m 3.37275,0 c 0,-52.421854 -0.0756,-59.616044 -0.63239,-60.078044 -0.56163,-0.4661 -0.63239,6.25662 -0.63239,60.078044 0,53.82144 0.0708,60.54414 0.63239,60.07804 0.55673,-0.46197 0.63239,-7.65619 0.63239,-60.07804 z m 3.37284,0 c 0,-52.421854 -0.0755,-59.616044 -0.63239,-60.078044 -0.56164,-0.4661 -0.63248,6.25662 -0.63248,60.078044 0,53.82144 0.0708,60.54414 0.63248,60.07804 0.55664,-0.46197 0.63239,-7.65619 0.63239,-60.07804 z m 3.37275,0 c 0,-52.421854 -0.0756,-59.616044 -0.63239,-60.078044 -0.56163,-0.4661 -0.63239,6.25662 -0.63239,60.078044 0,53.82144 0.0708,60.54414 0.63239,60.07804 0.55673,-0.46197 0.63239,-7.65619 0.63239,-60.07804 z m 3.37283,0 c 0,-52.421854 -0.0755,-59.616044 -0.63239,-60.078044 -0.56163,-0.4661 -0.63239,6.25662 -0.63239,60.078044 0,53.82144 0.0708,60.54414 0.63239,60.07804 0.55665,-0.46197 0.63239,-7.65619 0.63239,-60.07804 z m 2.95116,0 c 0,-39.564074 -0.14369,-60.117114 -0.42159,-60.288844 -0.28031,-0.17325 -0.42152,20.02993 -0.42152,60.288844 0,40.25891 0.14121,60.4621 0.42152,60.28883 0.2779,-0.1717 0.42159,-20.72475 0.42159,-60.28883 z m 2.10805,-0.0516 c 0,-53.775544 -0.0708,-60.492534 -0.63239,-60.026424 -0.55665,0.46199 -0.63239,7.65256 -0.63239,60.045354 0,57.89206 0.049,60.53231 1.13829,60.53231 0.0692,0 0.12649,-27.24803 0.12649,-60.55124 z m 1.26237,-10.935684 c -0.008,-46.19309 -0.14985,-71.01396 -0.41918,-71.01396 -0.26926,0 -0.41576,24.91149 -0.4191,71.27616 -0.008,47.708664 0.13513,71.189464 0.4191,71.013994 0.28195,-0.17426 0.42253,-24.08666 0.41918,-71.276194 z m 2.11046,10.935684 c 0,-53.775544 -0.0708,-60.492534 -0.63239,-60.026424 -0.55673,0.46199 -0.63247,7.65256 -0.63247,60.045354 0,57.89206 0.0498,60.53231 1.13837,60.53231 0.0693,0 0.12649,-27.24803 0.12649,-60.55124 z m 1.68638,0.0843 c 0,-45.731604 -0.11723,-59.637714 -0.5059,-60.026424 -0.39349,-0.39349 -0.39349,-0.50593 0,-0.50593 0.38026,0 0.5059,-2.67013 0.5059,-10.7508 0,-9.24641 -0.088,-10.75082 -0.62858,-10.75082 -0.55462,0 -0.62927,8.39697 -0.63379,71.30321 -0.008,63.400264 0.0654,71.244864 0.62858,70.777194 0.55852,-0.46342 0.63379,-7.59767 0.63379,-60.04643 z m 1.68638,-0.0843 c 0,-53.775544 -0.0708,-60.492534 -0.63239,-60.026424 -0.55665,0.46199 -0.6324,7.65256 -0.6324,60.045354 0,57.89206 0.0498,60.53231 1.13837,60.53231 0.0692,0 0.12642,-27.24803 0.12642,-60.55124 z m 1.26486,0.0516 c 0,-39.564074 -0.14378,-60.117114 -0.4216,-60.288844 -0.28038,-0.17325 -0.42159,20.02993 -0.42159,60.288844 0,40.25891 0.14121,60.4621 0.42159,60.28883 0.27782,-0.1717 0.4216,-20.72475 0.4216,-60.28883 z m 2.10797,-0.0516 c 0,-53.775544 -0.0708,-60.492534 -0.63239,-60.026424 -0.55665,0.46199 -0.63247,7.65256 -0.63247,60.045354 0,57.89206 0.0498,60.53231 1.13837,60.53231 0.0692,0 0.12649,-27.24803 0.12649,-60.55124 z m -77.15284,0.0649 c 0,-53.217734 -0.0724,-60.037154 -0.63239,-59.822154 -0.55805,0.21413 -0.63239,7.25118 -0.63239,59.818884 0,47.26649 0.10882,59.62018 0.52699,59.78884 0.28981,0.11695 0.5744,0.22762 0.63239,0.24594 0.0584,0.018 0.1054,-26.99587 0.1054,-60.03151 z m 3.79442,-0.0483 c 0,-47.903154 -0.10711,-60.077494 -0.52707,-59.937514 -0.41754,0.13919 -0.54941,12.50985 -0.63535,59.586174 -0.06,32.67578 -0.0178,59.64766 0.0922,59.93752 0.97319,2.55764 1.07025,-2.84441 1.07025,-59.58618 z m 2.10798,0.0351 c 0,-52.047084 -0.0755,-59.194474 -0.6324,-59.656444 -0.56163,-0.46611 -0.63239,6.20977 -0.63239,59.656444 0,53.44668 0.0708,60.12256 0.63239,59.65647 0.55666,-0.46197 0.6324,-7.60937 0.6324,-59.65647 z m 4.63761,-0.0249 c 0,-39.961244 -0.14128,-60.015604 -0.42159,-59.842344 -0.47586,0.29404 -0.61543,119.189344 -0.14059,119.664224 0.1546,0.1546 0.3443,0.28102 0.4216,0.28102 0.077,0 0.14058,-27.04629 0.14058,-60.1029 z m 2.00405,0.14777 c 0.0943,-52.676904 0.0327,-59.735564 -0.52707,-60.199934 -0.5635,-0.46771 -0.63379,6.169 -0.63379,59.849554 0,48.1131 0.10703,60.33993 0.52699,60.19993 0.41763,-0.13916 0.54918,-12.56142 0.63387,-59.84955 z m 1.36878,-0.14798 c 0,-39.961244 -0.14136,-60.015604 -0.42167,-59.842344 -0.47577,0.29404 -0.61534,119.189344 -0.14051,119.664224 0.1546,0.1546 0.3443,0.28102 0.4216,0.28102 0.077,0 0.14058,-27.04629 0.14058,-60.1029 z m 1.68638,0.26058 c 0,-39.440144 -0.14378,-59.931194 -0.4216,-60.102924 -0.2803,-0.17326 -0.42159,19.8811 -0.42159,59.842344 0,39.78757 0.14245,60.1029 0.42159,60.1029 0.27907,0 0.4216,-20.22848 0.4216,-59.84232 z m 1.68638,-0.2873 c 0,-53.400804 -0.0708,-60.070944 -0.6324,-59.604824 -0.55664,0.46197 -0.63239,7.60571 -0.63239,59.623734 0,57.47777 0.0498,60.11071 1.13829,60.11071 0.0693,0 0.1265,-27.05831 0.1265,-60.12962 z m 6.74558,0 c 0,-53.400804 -0.0708,-60.070944 -0.63239,-59.604824 -0.55657,0.46197 -0.63239,7.60571 -0.63239,59.623734 0,57.47777 0.0498,60.11071 1.13829,60.11071 0.0692,0 0.12649,-27.05831 0.12649,-60.12962 z m 6.74318,-10.909994 c -0.008,-62.67227 -0.0791,-71.03966 -0.63372,-71.03966 -0.54069,0 -0.62858,1.50447 -0.62858,10.75081 0,7.12974 0.14697,10.75081 0.43639,10.75081 0.30078,0 0.30078,0.25335 0,0.81548 -0.47274,0.88335 -0.65014,117.871694 -0.18052,119.095354 0.14074,0.36678 0.42595,0.66682 0.63372,0.66682 0.2213,0 0.37566,-29.44329 0.37271,-71.039614 z m 1.68886,10.961604 c 0,-39.283014 -0.14377,-59.695514 -0.42159,-59.867234 -0.28031,-0.17326 -0.42159,19.88939 -0.42159,59.867234 0,39.97785 0.14128,60.04049 0.42159,59.86722 0.27782,-0.1717 0.42159,-20.5842 0.42159,-59.86722 z m 2.84576,-30.282824 c -0.0615,-16.50331 -0.11108,-2.87603 -0.11108,30.282824 0,33.15887 0.0498,46.66158 0.11108,30.00603 0.0608,-16.65555 0.0608,-43.785534 0,-60.288854 z m 14.86144,30.257934 c 0,-39.961244 -0.14129,-60.015604 -0.4216,-59.842344 -0.47577,0.29404 -0.61534,119.189344 -0.14058,119.664224 0.1546,0.1546 0.34437,0.28102 0.42159,0.28102 0.077,0 0.14059,-27.04629 0.14059,-60.1029 z m 3.37275,0 c 0,-39.961244 -0.14121,-60.015604 -0.42151,-59.842344 -0.47578,0.29404 -0.61543,119.189344 -0.14059,119.664224 0.1546,0.1546 0.3443,0.28102 0.4216,0.28102 0.077,0 0.1405,-27.04629 0.1405,-60.1029 z m 3.37283,0 c 0,-39.961244 -0.14128,-60.015604 -0.42159,-59.842344 -0.47577,0.29404 -0.61535,119.189344 -0.14051,119.664224 0.1546,0.1546 0.3443,0.28102 0.4216,0.28102 0.077,0 0.1405,-27.04629 0.1405,-60.1029 z m 3.37284,0.0249 c 0,-41.132244 -0.13763,-60.078034 -0.43647,-60.078034 -0.30086,0 -0.30086,-0.25336 0,-0.8155 0.26622,-0.49733 0.43647,-4.77386 0.43647,-10.96161 0,-8.71071 -0.0889,-10.14612 -0.62866,-10.14612 -0.55455,0 -0.6292,8.33346 -0.63371,70.75729 0,38.916534 0.12205,70.884384 0.27735,71.039674 0.15529,0.15528 0.44043,0.28236 0.63371,0.28236 0.19321,0 0.35131,-27.03512 0.35131,-60.07806 z m 2.95123,-0.0249 c 0,-39.961244 -0.14136,-60.015604 -0.42167,-59.842344 -0.47577,0.29404 -0.61542,119.189344 -0.1405,119.664224 0.15459,0.1546 0.34429,0.28102 0.42159,0.28102 0.077,0 0.14058,-27.04629 0.14058,-60.1029 z m 15.85626,36.38793 c 0.22419,-17.05919 0.17709,-22.66103 -0.19048,-22.66103 -0.29759,0 -0.48823,-0.74088 -0.48823,-1.8972 0,-1.04346 0.1897,-1.89721 0.4216,-1.89721 0.2761,0 0.42159,-8.2212 0.42159,-23.820424 0,-15.5992 -0.14549,-23.82041 -0.42159,-23.82041 -0.2319,0 -0.4216,-0.84253 -0.4216,-1.87231 0,-1.02978 0.1897,-1.98959 0.4216,-2.13288 0.62492,-0.3862 0.56832,-20.32846 -0.0584,-20.53732 -0.34376,-0.11455 -0.45593,-2.93648 -0.39537,-9.94275 0.0576,-6.67725 -0.0576,-9.78277 -0.36328,-9.78277 -0.30414,0 -0.44791,3.36617 -0.44791,10.48839 0,8.80867 0.10127,10.57245 0.63239,11.01323 0.34788,0.28867 0.63239,0.71456 0.63239,0.94644 0,0.23518 -0.27961,0.18953 -0.63239,-0.10323 -0.56155,-0.46612 -0.63239,6.21406 -0.63239,59.695154 0,52.64291 0.077,60.14234 0.61207,59.60263 0.51205,-0.51642 0.66073,-4.31994 0.90983,-23.27831 z m 117.3694,22.8718 c 0,-0.46842 -0.28109,-0.8432 -0.63239,-0.8432 -0.35138,0 -0.63247,0.37478 -0.63247,0.8432 0,0.46842 0.28109,0.84317 0.63247,0.84317 0.3513,0 0.63239,-0.37475 0.63239,-0.84317 z m 2.52957,0 c 0,-0.61836 -0.28109,-0.8432 -1.05399,-0.8432 -0.77297,0 -1.05398,0.22484 -1.05398,0.8432 0,0.61836 0.28101,0.84317 1.05398,0.84317 0.7729,0 1.05399,-0.22481 1.05399,-0.84317 z m 2.52956,0 c 0,-0.61836 -0.28108,-0.8432 -1.05398,-0.8432 -0.7729,0 -1.05399,0.22484 -1.05399,0.8432 0,0.61836 0.28109,0.84317 1.05399,0.84317 0.7729,0 1.05398,-0.22481 1.05398,-0.84317 z m 2.10805,0 c 0,-0.5621 -0.28109,-0.8432 -0.84319,-0.8432 -0.56217,0 -0.84326,0.2811 -0.84326,0.8432 0,0.56215 0.28109,0.84317 0.84326,0.84317 0.5621,0 0.84319,-0.28102 0.84319,-0.84317 z m 2.10797,0 c 0,-0.46842 -0.28108,-0.8432 -0.63239,-0.8432 -0.35138,0 -0.63239,0.37478 -0.63239,0.8432 0,0.46842 0.28101,0.84317 0.63239,0.84317 0.35131,0 0.63239,-0.37475 0.63239,-0.84317 z m 2.52965,-1.22532 c 0,-1.86097 -0.0847,-2.04642 -0.84319,-1.84803 -1.04464,0.27317 -1.13066,1.78949 -0.10548,1.85746 0.70269,0.0467 0.70269,0.0581 0,0.24172 -1.05032,0.27449 -0.96088,1.81734 0.10548,1.81734 0.7286,0 0.84319,-0.28102 0.84319,-2.06849 z m -283.43445,-2.45788 c -0.0969,-0.64086 -0.17879,-0.21659 -0.18193,0.9428 -0.005,1.15941 0.0762,1.68375 0.17617,1.1652 0.10008,-0.51853 0.10264,-1.46714 0.005,-2.108 z m 271.62965,1.57521 c 0,-0.46844 -0.28109,-0.84321 -0.63239,-0.84321 -0.35138,0 -0.63247,0.37477 -0.63247,0.84321 0,0.46844 0.28109,0.8432 0.63247,0.8432 0.3513,0 0.63239,-0.37476 0.63239,-0.8432 z m 2.52957,0 c 0,-0.61835 -0.28109,-0.84321 -1.05399,-0.84321 -0.99202,0 -1.41291,0.76532 -0.77297,1.40534 0.62904,0.62904 1.82696,0.26047 1.82696,-0.56213 z m 2.52956,0 c 0,-0.61835 -0.28108,-0.84321 -1.05398,-0.84321 -0.99202,0 -1.41292,0.76532 -0.7729,1.40534 0.62904,0.62904 1.82688,0.26047 1.82688,-0.56213 z m 2.10805,0 c 0,-0.56214 -0.28109,-0.84321 -0.84319,-0.84321 -0.56217,0 -0.84326,0.28107 -0.84326,0.84321 0,0.56213 0.28109,0.8432 0.84326,0.8432 0.5621,0 0.84319,-0.28107 0.84319,-0.8432 z m 2.10797,0 c 0,-0.46844 -0.28108,-0.84321 -0.63239,-0.84321 -0.35138,0 -0.63239,0.37477 -0.63239,0.84321 0,0.46844 0.28101,0.8432 0.63239,0.8432 0.35131,0 0.63239,-0.37476 0.63239,-0.8432 z m 208.58861,-47.77441 0.1072,-47.142024 -1.1612,0.13356 -1.1612,0.1336 -0.1072,47.142014 -0.1073,47.14202 1.1613,-0.13359 1.1612,-0.13358 z m 4.0281,46.49418 c 5.4646,-0.78766 4.9291,-0.21428 4.9291,-5.27787 v -4.43404 l -4.1106,0.12066 -4.1106,0.12066 -0.1187,4.95382 c -0.066,2.72458 -0.01,4.95379 0.13,4.95379 0.1368,0 1.6132,-0.19666 3.2808,-0.43702 z m -221.89186,-1.24938 c 0,-0.46843 -0.28109,-0.8432 -0.63239,-0.8432 -0.35138,0 -0.63247,0.37477 -0.63247,0.8432 0,0.46845 0.28109,0.8432 0.63247,0.8432 0.3513,0 0.63239,-0.37475 0.63239,-0.8432 z m 2.52957,0 c 0,-0.61835 -0.28109,-0.8432 -1.05399,-0.8432 -0.77297,0 -1.05398,0.22485 -1.05398,0.8432 0,0.61835 0.28101,0.8432 1.05398,0.8432 0.7729,0 1.05399,-0.22485 1.05399,-0.8432 z m 2.52956,0 c 0,-0.61835 -0.28108,-0.8432 -1.05398,-0.8432 -0.7729,0 -1.05399,0.22485 -1.05399,0.8432 0,0.61835 0.28109,0.8432 1.05399,0.8432 0.7729,0 1.05398,-0.22485 1.05398,-0.8432 z m 2.10805,0 c 0,-0.56214 -0.28109,-0.8432 -0.84319,-0.8432 -0.56217,0 -0.84326,0.28106 -0.84326,0.8432 0,0.56214 0.28109,0.8432 0.84326,0.8432 0.5621,0 0.84319,-0.28106 0.84319,-0.8432 z m 2.10797,0 c 0,-0.46843 -0.28108,-0.8432 -0.63239,-0.8432 -0.35138,0 -0.63239,0.37477 -0.63239,0.8432 0,0.46845 0.28101,0.8432 0.63239,0.8432 0.35131,0 0.63239,-0.37475 0.63239,-0.8432 z m 2.52965,0 c 0,-0.56214 -0.28109,-0.8432 -0.84319,-0.8432 -0.56218,0 -0.84327,0.28106 -0.84327,0.8432 0,0.56214 0.28109,0.8432 0.84327,0.8432 0.5621,0 0.84319,-0.28106 0.84319,-0.8432 z m -561.95014,-5.34577 c 1.32079,-4.05202 3.17466,-7.10023 6.09361,-10.01917 9.36846,-9.36845 24.26407,-9.35463 33.64993,0.0313 2.78798,2.788 5.23821,6.84748 6.20142,10.27455 0.84237,2.99704 0.96943,0.83312 0.17984,-3.06345 -1.22631,-6.052 -4.54834,-10.62519 -9.96151,-13.71326 l -2.37012,-1.3521 h -11.03248 c -12.97029,0 -12.73366,-0.0649 -17.54092,4.80359 -4.69339,4.75305 -6.59038,9.28001 -6.46011,15.4164 0.0372,1.74836 0.14029,2.51481 0.22924,1.70322 0.089,-0.81157 0.54401,-2.64803 1.0111,-4.08102 z m 277.82175,0.33851 c 1.25284,-4.11455 2.84744,-6.722 6.13498,-10.03184 4.86174,-4.89479 10.01825,-7.06026 16.81202,-7.06026 6.77703,0 12.024,2.19868 16.90993,7.08592 3.07361,3.07439 4.79455,5.87591 6.11459,9.95429 l 0.75056,2.3188 0.0226,-1.60317 c 0.0404,-2.87251 -1.29094,-7.58012 -2.94525,-10.41243 -1.64263,-2.81235 -4.15943,-5.23529 -7.54674,-7.26542 l -1.92255,-1.15221 -11.75132,-0.007 -11.75124,-0.007 -2.70464,1.93003 c -6.07994,4.33857 -9.49926,11.02372 -9.35486,18.28997 0.0349,1.74835 0.14192,2.60968 0.23815,1.91403 0.0963,-0.69565 0.54343,-2.47464 0.99369,-3.95331 z m 1.81139,0.58051 c 0.24955,-1.15189 0.22011,-1.13308 -0.33012,0.2108 -0.33229,0.81158 -0.59672,2.04477 -0.5877,2.7404 0.0158,1.22965 0.0249,1.22377 0.33012,-0.2108 0.17252,-0.81157 0.43701,-2.04475 0.5877,-2.7404 z m 282.317,2.31881 c 0,-0.56214 -0.28109,-0.8432 -0.84319,-0.8432 -1.03748,0 -1.1228,1.12992 -0.10548,1.39577 0.40587,0.10605 0.78528,0.21483 0.84327,0.24171 0.0584,0.0269 0.1054,-0.33053 0.1054,-0.79428 z m 69.84327,-0.527 c -0.11695,-0.28985 -0.21263,-0.0527 -0.21263,0.527 0,0.5797 0.0957,0.81685 0.21263,0.52699 0.11696,-0.28984 0.11696,-0.76414 0,-1.05399 z m -81.64807,0.31619 c 0,-0.34782 -0.28459,-0.63239 -0.63239,-0.63239 -0.34788,0 -0.63247,0.28457 -0.63247,0.63239 0,0.34783 0.28459,0.6324 0.63247,0.6324 0.3478,0 0.63239,-0.28457 0.63239,-0.6324 z m 2.52957,0 c 0,-0.3935 -0.39824,-0.63239 -1.05399,-0.63239 -0.65582,0 -1.05398,0.23889 -1.05398,0.63239 0,0.39351 0.39816,0.6324 1.05398,0.6324 0.65575,0 1.05399,-0.23889 1.05399,-0.6324 z m 2.52956,0 c 0,-0.3935 -0.39808,-0.63239 -1.05398,-0.63239 -0.65582,0 -1.05399,0.23889 -1.05399,0.63239 0,0.39351 0.39817,0.6324 1.05399,0.6324 0.6559,0 1.05398,-0.23889 1.05398,-0.6324 z m 2.10805,0 c 0,-0.35133 -0.37481,-0.63239 -0.84319,-0.63239 -0.46845,0 -0.84326,0.28106 -0.84326,0.63239 0,0.35135 0.37481,0.6324 0.84326,0.6324 0.46838,0 0.84319,-0.28105 0.84319,-0.6324 z m 2.10797,0 c 0,-0.34782 -0.28459,-0.63239 -0.63239,-0.63239 -0.3478,0 -0.63239,0.28457 -0.63239,0.63239 0,0.34783 0.28459,0.6324 0.63239,0.6324 0.3478,0 0.63239,-0.28457 0.63239,-0.6324 z m 28.39885,-9.17671 c 4.6684,-6.98022 13.57166,-11.36526 21.64599,-10.66104 9.75546,0.85087 17.80047,7.24818 21.23592,16.88655 l 0.75128,2.108 0.0228,-2.31879 c 0.049,-5.02785 -2.49299,-10.32325 -6.57021,-13.68635 -4.92583,-4.06312 -4.74296,-4.02088 -17.41161,-4.02088 h -11.06945 l -2.93577,1.9517 c -5.37956,3.57632 -9.0938,9.736 -9.46768,15.70123 l -0.20154,3.21629 1.18726,-3.3728 c 0.65294,-1.85504 1.91889,-4.46681 2.81306,-5.80391 z m -37.674,7.27951 c 0,-0.46843 -0.28109,-0.8432 -0.63239,-0.8432 -0.35138,0 -0.63247,0.37477 -0.63247,0.8432 0,0.46846 0.28109,0.8432 0.63247,0.8432 0.3513,0 0.63239,-0.37474 0.63239,-0.8432 z m 2.52957,0 c 0,-0.61834 -0.28109,-0.8432 -1.05399,-0.8432 -0.99202,0 -1.41291,0.76532 -0.77297,1.40534 0.62904,0.62904 1.82696,0.26046 1.82696,-0.56214 z m 2.52956,0 c 0,-0.61834 -0.28108,-0.8432 -1.05398,-0.8432 -0.99202,0 -1.41292,0.76532 -0.7729,1.40534 0.62904,0.62904 1.82688,0.26046 1.82688,-0.56214 z m 2.10805,0 c 0,-0.56213 -0.28109,-0.8432 -0.84319,-0.8432 -0.56217,0 -0.84326,0.28107 -0.84326,0.8432 0,0.56214 0.28109,0.8432 0.84326,0.8432 0.5621,0 0.84319,-0.28106 0.84319,-0.8432 z m 2.10797,0 c 0,-0.46843 -0.28108,-0.8432 -0.63239,-0.8432 -0.35138,0 -0.63239,0.37477 -0.63239,0.8432 0,0.46846 0.28101,0.8432 0.63239,0.8432 0.35131,0 0.63239,-0.37474 0.63239,-0.8432 z m 2.52965,0 c 0,-0.56213 -0.28109,-0.8432 -0.84319,-0.8432 -0.56218,0 -0.84327,0.28107 -0.84327,0.8432 0,0.56214 0.28109,0.8432 0.84327,0.8432 0.5621,0 0.84319,-0.28106 0.84319,-0.8432 z m -251.48457,-5.32654 c -1.76375,-1.56576 -4.42915,-3.10838 -5.35867,-3.10134 -0.29899,0.003 0.40486,0.45617 1.56425,1.00868 1.15946,0.55252 2.77204,1.58641 3.58362,2.29756 0.81159,0.71114 1.57048,1.29279 1.68638,1.29256 0.11599,0 -0.54809,-0.67409 -1.47558,-1.49746 z m 467.34393,-1.62986 v -2.31881 h -4.4268 -4.4268 v 2.31881 2.3188 h 4.4268 4.4268 z m -866.81024,-8.43989 v -9.49392 l -9.591419,0.11333 -9.591434,0.11331 0.0741,8.17308 c 0.0407,4.4952 0.18507,8.61542 0.32075,9.15603 0.26921,1.07257 0.15198,1.06154 14.255824,1.34199 l 4.532199,0.0901 z m 390.92887,6.23774 c -0.75359,-0.0935 -1.98677,-0.0935 -2.74036,0 -0.75367,0.0935 -0.137,0.17005 1.37018,0.17005 1.50718,0 2.12385,-0.0765 1.37018,-0.17005 z m 475.79707,-3.17321 0.1264,-2.42422 h -4.4479 -4.4478 v 2.54437 2.54436 l 4.3214,-0.12015 4.3214,-0.12017 z m 0.084,-5.58621 v -2.3188 h -4.4267 -4.4269 v 2.3188 2.3188 h 4.4269 4.4267 z m -0.085,-5.797 -0.1255,-2.63501 -4.3215,-0.12015 -4.3213,-0.12015 v 2.75516 2.75515 h 4.4469 4.4469 z m -866.73775,-5.0592 c -0.01,-1.99572 -0.11707,-2.456 -0.44255,-1.8972 -1.006739,1.72846 -2.499759,2.00259 -10.906979,2.00259 -6.679454,0 -8.031324,0.10139 -8.031324,0.60229 0,0.33126 0.29813,0.90041 0.66247,1.26479 0.56111,0.56107 2.04598,0.66252 9.696864,0.66252 h 9.034309 z m 865.86605,-25.08522 c -0.1697,-26.154784 -0.21,-27.260034 -1.5046,-41.130314 -1.4695,-15.74648 -1.5208,-15.94155 -4.3998,-16.74816 -0.8752,-0.24521 -2.8673,-0.38983 -4.4268,-0.32139 -2.5752,0.11299 -2.8478,0.2115 -2.9702,1.07302 -0.1299,0.91448 -0.2929,0.94859 -4.5322,0.94859 -4.1164,0 -4.3975,-0.0538 -4.3975,-0.84319 0,-0.81098 -0.278,-0.84284 -7.2726,-0.83384 -6.5688,0.009 -7.3746,0.0892 -8.3266,0.83384 -0.8364,0.65417 -1.7288,0.82638 -4.3214,0.83383 -1.7971,0.005 -3.263,-0.13293 -3.2577,-0.30683 0.01,-0.17391 1.4785,-1.90576 3.2736,-3.84856 l 3.2638,-3.53236 1.4694,0.89577 c 1.2927,0.78801 2.1036,0.89522 6.7395,0.89113 5.1172,-0.004 5.3772,0.04 8.9678,1.53863 2.0338,0.84882 3.7623,1.46823 3.8412,1.37644 0.079,-0.0918 0.2636,-3.62925 0.4103,-7.86107 l 0.267,-7.69419 h -2.5272 c -1.4036,0 -2.5271,0.18742 -2.5271,0.42159 0,0.2797 -29.3716,0.4216 -87.27135,0.4216 -57.8997,0 -87.27122,0.1419 -87.27122,0.4216 0,0.26884 -3.51334,0.4216 -9.69683,0.4216 -5.33321,0 -9.69675,0.0888 -9.69675,0.19726 0,0.1085 2.00367,2.95429 4.45259,6.324 l 4.45266,6.12675 h 35.38861 35.38857 v -1.24496 c 0,-3.41243 1.80596,-4.35736 8.43202,-4.41188 6.61485,-0.0544 9.27522,1.17176 9.27522,4.27505 0,1.35448 0.035,1.38055 1.79178,1.31863 1.30296,-0.046 1.46885,-0.11176 0.60797,-0.24118 -1.04672,-0.15736 -1.16884,-0.33319 -1.05399,-1.51781 l 0.12974,-1.33985 25.19068,-0.10871 25.1907,-0.10874 v 1.44961 c 0,1.16809 -0.1843,1.48508 -0.9487,1.63231 -0.5218,0.10048 4.6007,0.20854 11.3832,0.24011 12.0317,0.056 12.3319,0.0779 12.3319,0.90062 0,0.82472 -0.281,0.8432 -12.8237,0.8432 -9.8467,0 -12.8809,0.12234 -13.0696,0.52702 -0.1968,0.42159 -0.2952,0.42159 -0.4919,0 -0.1919,-0.41116 -4.818,-0.52702 -21.0449,-0.52702 -16.22694,0 -20.85295,0.11586 -21.04484,0.52702 -0.19679,0.42159 -0.2951,0.42159 -0.49189,0 -0.19583,-0.41972 -23.53125,-0.52702 -114.61084,-0.52702 H 624.87058 l -0.27331,4.74301 c -0.15031,2.60865 -0.27416,7.16194 -0.27517,10.1184 v 5.37541 h 167.16442 167.16455 l 0.01,2.00261 c 0.01,1.10142 0,15.80474 -0.01,32.67402 l -0.011,30.671414 h 4.2516 4.2516 z m -23.0743,21.60701 c 0,-2.45932 -0.087,-2.7404 -0.8432,-2.7404 -0.4638,0 -0.8433,0.18973 -0.8433,0.42161 0,0.23187 0.1898,0.42158 0.4216,0.42158 0.232,0 0.4217,1.04346 0.4217,2.3188 0,1.27535 0.1897,2.31881 0.4216,2.31881 0.2378,0 0.4216,-1.19453 0.4216,-2.7404 z m -846.275469,-1.054 c 0.41588,-0.82277 0.53416,-8.42377 0.539,-34.646514 0.007,-37.06175 0.19101,-34.61326 -2.64236,-35.13353 -0.74614,-0.13701 -3.25387,-0.19189 -5.57269,-0.12196 l -4.216024,0.12715 -0.48296,4.85437 c -1.57017,15.78036 -3.51869,48.856334 -3.5209,59.765394 v 6.43892 l 7.682164,-0.11492 7.68221,-0.11491 z M 974.02887,83.266076 c 2.6713,-21.3588 4.857,-39.05021 4.857,-39.31423 0,-0.34068 -2.1417,-0.48003 -7.378,-0.48003 -4.0579,0 -7.378,0.12736 -7.378,0.28301 0,0.15564 0.3232,0.6402 0.7184,1.07675 0.5887,0.65051 0.9638,3.58622 2.0785,16.26482 1.2354,14.05065 1.39,17.61928 1.6844,38.86986 0.1784,12.869364 0.3775,23.114244 0.4425,22.766414 0.066,-0.34781 2.3038,-18.10776 4.9752,-39.466594 z M 669.85286,113.87907 v -1.6864 H 651.93497 634.0169 v 1.6864 1.6864 h 17.91807 17.91799 z m 83.05524,0 v -1.6864 h -39.20872 -39.20881 v 1.40534 c 0,0.77293 0.12649,1.53182 0.28109,1.68641 0.15452,0.15458 17.7985,0.28105 39.20881,0.28105 h 38.92773 z m 166.53207,0 v -1.6864 h -38.3656 -38.36563 v 1.40534 c 0,0.77293 0.1265,1.53182 0.28109,1.68641 0.1546,0.15458 17.41915,0.28105 38.36564,0.28105 h 38.0845 z m 32.4633,0 v -1.6864 h -13.9128 -13.9128 v 1.6864 1.6864 h 13.9128 13.9128 z M 121.35097,91.534256 v -23.60962 h -7.37799 -7.37799 v 23.60962 23.609614 h 7.37799 7.37799 z m 20.65846,5.69161 v -17.91802 h -9.2752 -9.27526 v 17.91802 17.918004 h 9.27526 9.2752 z m 20.65839,0 v -17.91802 h -9.2752 -9.27519 v 17.91802 17.918004 h 9.27519 9.2752 z m 84.32005,16.231604 v -1.6864 h -25.92838 -25.92843 v 1.6864 1.6864 h 25.92843 25.92838 z m 44.26803,0 v -1.6864 h -19.60442 -19.60437 v 1.6864 1.6864 h 19.60437 19.60442 z m 76.73127,0 v -1.6864 h -35.62522 -35.62522 v 1.6864 1.6864 h 35.62522 35.62522 z m 80.44569,0.1054 -0.13086,-1.58099 -37.83859,-0.10765 -37.83864,-0.10766 v 1.68864 1.68866 h 37.9695 37.96944 z M 246.56628,89.637046 v -21.71241 h -25.50679 -25.50684 v 21.71241 21.712424 h 25.50684 25.50679 z m 44.68962,0 v -21.71241 h -19.60442 -19.60437 v 21.71241 21.712424 h 19.60437 19.60442 z m 76.73127,6.11321 v -15.5992 h -35.62522 -35.62522 v 15.5992 15.599214 h 35.62522 35.62522 z m 80.52563,-6.11321 v -21.71241 h -37.73322 -37.73323 v 21.71241 21.712424 h 37.73323 37.73322 z m 221.76175,-0.21079 V 67.503036 H 652.14576 634.0169 v 21.92322 21.923214 h 18.12886 18.12879 z m 82.63365,0 v -21.92322 h -39.20882 -39.20881 v 21.92322 21.923214 h 39.20881 39.20882 z m 166.53207,0 v -21.92322 h -38.5764 -38.57643 v 21.92322 21.923214 h 38.57643 38.5764 z m 32.8849,0 v -21.92322 h -14.1236 -14.1236 v 21.92322 21.923214 h 14.1236 14.1236 z m -114.25378,3.3728 v -13.06961 h -40.05196 -40.05202 v 13.06961 13.069604 h 40.05202 40.05196 z M 534.51925,103.76067 v -1.68641 H 493.83486 453.1504 v 1.68641 1.68639 h 40.68446 40.68439 z m 0.42159,-13.276284 v -11.1683 l -41.10606,-0.10952 -41.10603,-0.10952 6e-5,11.27782 v 11.277804 h 41.10605 41.10598 z M 151.98502,77.199836 h 10.6828 v -4.6376 -4.6376 H 143.0634 123.45897 v 4.91545 4.91545 l 8.92163,-0.27784 c 4.90686,-0.15282 13.72881,-0.27786 19.60442,-0.27786 z m 213.89414,-3.5836 v -3.58359 h -33.72801 -33.728 v 3.58359 3.5836 h 33.728 33.72801 z m 469.24105,-0.4216 v -3.5836 h -37.73317 -37.73326 v 3.5836 3.58362 h 37.73326 37.73317 z m -302.70893,-0.4216 v -3.5836 h -38.78722 -38.78725 v 3.5836 3.58361 h 38.78725 38.78722 z m 8.75641,-18.6558 -0.11365,-9.16981 -10.72575,-0.11281 c -8.79657,-0.0925 -10.85068,-0.22582 -11.42002,-0.74107 -0.61347,-0.55517 -25.57962,-0.61562 -214.61953,-0.51959 -194.7802,0.0989 -214.057509,0.16884 -215.401069,0.78116 -1.826984,0.83262 -2.449364,1.5614 -2.790594,3.26749 l -0.26601,1.33001 5.006544,0.003 c 5.78341,0.003 7.75733,0.43418 9.224269,2.01625 1.01199,1.09134 1.05225,1.34877 1.05225,6.7253 v 5.59051 h 220.08362 220.08359 z m -434.5727,-4.32141 c 0,-2.71698 -0.123,-3.37281 -0.63238,-3.37281 -0.34789,0 -0.63246,-0.18971 -0.63246,-0.4216 0,-0.23186 0.4743,-0.4216 1.05405,-0.4216 1.04617,0 1.05397,0.0281 1.05397,3.79441 0,2.24853 -0.17176,3.7944 -0.4216,3.7944 -0.24593,0 -0.42158,-1.40532 -0.42158,-3.3728 z m 3.79443,3.00124 c 0,-0.20435 0.66787,-0.88101 1.48423,-1.50367 1.96453,-1.49841 2.86869,-2.93163 2.5275,-4.00652 -0.37138,-1.17007 -2.04319,-1.12095 -2.88421,0.0847 l -0.66172,0.9486 -0.0221,-0.93376 c -0.0425,-1.80647 2.85687,-2.44337 3.9592,-0.86963 0.96402,1.37633 0.83655,1.83749 -1.08382,3.92081 l -1.74006,1.88777 h 1.50442 c 0.82741,0 1.62166,0.18974 1.76496,0.42161 0.16274,0.26335 -0.6983,0.4216 -2.29396,0.4216 -1.40492,0 -2.55443,-0.16721 -2.55443,-0.37156 z m 433.40506,-19.07369 c 0,-9.04192 -0.0873,-10.48837 -0.63239,-10.48837 -0.54599,0 -0.63239,1.50477 -0.63239,11.01323 0,9.74174 0.0732,10.95264 0.63239,10.48839 0.53111,-0.4408 0.63239,-2.20455 0.63239,-11.01325 z m 17.2856,0 c 0,-9.04192 -0.0872,-10.48837 -0.6324,-10.48837 -0.54598,0 -0.63239,1.50477 -0.63239,11.01323 0,9.74174 0.0732,10.95264 0.63239,10.48839 0.53112,-0.4408 0.6324,-2.20455 0.6324,-11.01325 z m 6.74558,0 c 0,-9.04192 -0.0872,-10.48837 -0.63239,-10.48837 -0.54599,0 -0.63239,1.50477 -0.63239,11.01323 0,9.74174 0.0732,10.95264 0.63239,10.48839 0.53112,-0.4408 0.63239,-2.20455 0.63239,-11.01325 z m 10.11842,0 c 0,-9.04192 -0.0872,-10.48837 -0.63239,-10.48837 -0.54599,0 -0.63239,1.50477 -0.63239,11.01323 0,9.74174 0.0732,10.95264 0.63239,10.48839 0.53112,-0.4408 0.63239,-2.20455 0.63239,-11.01325 z m 12.64798,-0.0498 c 0,-10.15752 -0.0226,-10.4386 -0.84318,-10.4386 -0.82155,0 -0.84319,0.28108 -0.84319,10.96519 0,10.85963 0.009,10.96011 0.84319,10.4386 0.80629,-0.50355 0.84318,-0.98318 0.84318,-10.96519 z m -43.10132,0.1719 c 0.0982,-9.25335 0.0312,-10.6105 -0.52707,-10.6105 -0.55509,0 -0.63963,1.42526 -0.63963,10.78596 0,8.44126 0.11459,10.74778 0.527,10.61048 0.39902,-0.13282 0.55439,-2.75388 0.6397,-10.78594 z m 2.20614,0.14032 c 0,-9.27521 -0.0868,-10.75082 -0.6324,-10.75082 -0.54513,0 -0.63239,1.44438 -0.63239,10.46974 0,5.75836 0.12642,10.59624 0.28101,10.75082 0.84296,0.84296 0.98378,-0.65517 0.98378,-10.46974 z m 1.68645,-0.47323 c 0,-8.85457 -0.0876,-10.27759 -0.63247,-10.27759 -0.54567,0 -0.63239,1.48134 -0.63239,10.80244 0,9.55435 0.0732,10.7418 0.63239,10.27759 0.5305,-0.44027 0.63247,-2.18114 0.63247,-10.80244 z m 2.95116,0.23754 c 0,-6.72902 -0.15179,-10.51513 -0.42159,-10.51513 -0.27012,0 -0.4216,3.87297 -0.4216,10.77571 0,7.07642 0.14471,10.68622 0.4216,10.51512 0.26279,-0.16245 0.42159,-4.22038 0.42159,-10.7757 z m 2.10797,0.23569 c 0,-9.27521 -0.0868,-10.75082 -0.63239,-10.75082 -0.54521,0 -0.63239,1.44828 -0.63239,10.50488 0,10.16445 0.0475,10.61228 1.15938,10.96345 0.0584,0.0183 0.1054,-4.80456 0.1054,-10.71751 z m 1.26486,-0.23569 c 0,-6.72902 -0.15187,-10.51513 -0.42167,-10.51513 -0.27003,0 -0.42159,3.87297 -0.42159,10.77571 0,7.07642 0.14478,10.68622 0.42159,10.51512 0.26287,-0.16245 0.42167,-4.22038 0.42167,-10.7757 z m 1.68638,0.23569 c 0,-6.88614 -0.15156,-10.75082 -0.4216,-10.75082 -0.26972,0 -0.42159,3.77098 -0.42159,10.46974 0,9.22248 0.11521,11.03188 0.70268,11.03188 0.077,0 0.14051,-4.83785 0.14051,-10.7508 z m 3.37283,0 c 0,-9.27521 -0.0868,-10.75082 -0.63239,-10.75082 -0.54482,0 -0.63247,1.4194 -0.63247,10.24489 0,7.40613 0.14019,10.38507 0.50598,10.75081 0.27821,0.27826 0.5628,0.50592 0.63239,0.50592 0.0693,0 0.12649,-4.83785 0.12649,-10.7508 z m 1.68638,-0.47323 c 0,-8.85457 -0.0876,-10.27759 -0.63247,-10.27759 -0.54568,0 -0.63231,1.48134 -0.63231,10.80244 0,9.55435 0.0732,10.7418 0.63231,10.27759 0.53057,-0.44027 0.63247,-2.18114 0.63247,-10.80244 z m 1.68638,0.47323 c 0,-9.27521 -0.0868,-10.75082 -0.6324,-10.75082 -0.54474,0 -0.63239,1.4194 -0.63239,10.24489 0,7.40613 0.1402,10.38507 0.5059,10.75081 0.27829,0.27826 0.56288,0.50592 0.63239,0.50592 0.0692,0 0.1265,-4.83785 0.1265,-10.7508 z m 3.37283,0 c 0,-9.27521 -0.0868,-10.75082 -0.63239,-10.75082 -0.54482,0 -0.63247,1.4194 -0.63247,10.24489 0,7.40613 0.14027,10.38507 0.50597,10.75081 0.27821,0.27826 0.5628,0.50592 0.63239,0.50592 0.0693,0 0.1265,-4.83785 0.1265,-10.7508 z m 3.37275,0 c 0,-9.27521 -0.0867,-10.75082 -0.63239,-10.75082 -0.54474,0 -0.63239,1.4194 -0.63239,10.24489 0,7.40613 0.14019,10.38507 0.5059,10.75081 0.27828,0.27826 0.56287,0.50592 0.63247,0.50592 0.0692,0 0.12641,-4.83785 0.12641,-10.7508 z m 3.37283,0 c 0,-6.88614 -0.15156,-10.75082 -0.42159,-10.75082 -0.2698,0 -0.42159,3.77098 -0.42159,10.46974 0,9.22248 0.1152,11.03188 0.7026,11.03188 0.077,0 0.14058,-4.83785 0.14058,-10.7508 z m 12.22639,0 c 0,-9.27521 -0.0868,-10.75082 -0.63239,-10.75082 -0.54474,0 -0.63239,1.4194 -0.63239,10.24489 0,7.40613 0.14019,10.38507 0.5059,10.75081 0.27829,0.27826 0.56288,0.50592 0.63247,0.50592 0.0693,0 0.12641,-4.83785 0.12641,-10.7508 z m 3.79443,0 c 0,-9.27521 -0.0868,-10.75082 -0.63239,-10.75082 -0.54482,0 -0.63239,1.4194 -0.63239,10.24489 0,7.40613 0.14011,10.38507 0.5059,10.75081 0.2782,0.27826 0.56287,0.50592 0.63239,0.50592 0.0692,0 0.12649,-4.83785 0.12649,-10.7508 z m 1.68638,-0.23569 c 0,-6.72902 -0.1518,-10.51513 -0.4216,-10.51513 -0.27003,0 -0.42159,3.87297 -0.42159,10.77571 0,7.07642 0.14471,10.68622 0.42159,10.51512 0.2628,-0.16245 0.4216,-4.22038 0.4216,-10.7757 z m 1.68637,0.23569 c 0,-9.27521 -0.0868,-10.75082 -0.63239,-10.75082 -0.54474,0 -0.63239,1.4194 -0.63239,10.24489 0,7.40613 0.14019,10.38507 0.5059,10.75081 0.27829,0.27826 0.56288,0.50592 0.63247,0.50592 0.0693,0 0.12641,-4.83785 0.12641,-10.7508 z m 1.68638,-0.23569 c 0,-6.72902 -0.15179,-10.51513 -0.42151,-10.51513 -0.27012,0 -0.4216,3.87297 -0.4216,10.77571 0,7.07642 0.14463,10.68622 0.4216,10.51512 0.26279,-0.16245 0.42151,-4.22038 0.42151,-10.7757 z m 1.68646,0.23569 c 0,-9.27521 -0.0869,-10.75082 -0.63239,-10.75082 -0.54482,0 -0.63248,1.4194 -0.63248,10.24489 0,7.40613 0.14028,10.38507 0.50598,10.75081 0.27821,0.27826 0.56288,0.50592 0.63239,0.50592 0.0692,0 0.1265,-4.83785 0.1265,-10.7508 z m 1.68637,-0.23569 c 0,-6.72902 -0.15179,-10.51513 -0.42159,-10.51513 -0.27004,0 -0.42159,3.87297 -0.42159,10.77571 0,7.07642 0.1447,10.68622 0.42159,10.51512 0.26287,-0.16245 0.42159,-4.22038 0.42159,-10.7757 z m 1.68638,0.23569 c 0,-9.27521 -0.0868,-10.75082 -0.63239,-10.75082 -0.54474,0 -0.63239,1.4194 -0.63239,10.24489 0,7.40613 0.14027,10.38507 0.5059,10.75081 0.27828,0.27826 0.56287,0.50592 0.63246,0.50592 0.0693,0 0.12642,-4.83785 0.12642,-10.7508 z m 3.37283,0 c 0,-9.27521 -0.0867,-10.75082 -0.63239,-10.75082 -0.54521,0 -0.63239,1.44828 -0.63239,10.50488 0,10.16445 0.0474,10.61228 1.15946,10.96345 0.0584,0.0183 0.10532,-4.80456 0.10532,-10.71751 z m 1.26486,-0.23569 c 0,-6.72902 -0.15179,-10.51513 -0.42167,-10.51513 -0.27003,0 -0.42159,3.87297 -0.42159,10.77571 0,7.07642 0.14478,10.68622 0.42159,10.51512 0.26288,-0.16245 0.42167,-4.22038 0.42167,-10.7757 z m 3.79435,-0.23754 c 0,-8.85457 -0.0876,-10.27759 -0.63239,-10.27759 -0.54567,0 -0.63239,1.48134 -0.63239,10.80244 0,9.55435 0.0732,10.7418 0.63239,10.27759 0.5305,-0.44027 0.63239,-2.18114 0.63239,-10.80244 z m 3.37283,0 c 0,-8.85457 -0.0876,-10.27759 -0.63239,-10.27759 -0.54567,0 -0.63247,1.48134 -0.63247,10.80244 0,9.55435 0.0732,10.7418 0.63247,10.27759 0.53042,-0.44027 0.63239,-2.18114 0.63239,-10.80244 z m 3.37276,0 c 0,-8.85457 -0.0876,-10.27759 -0.63239,-10.27759 -0.54568,0 -0.6324,1.48134 -0.6324,10.80244 0,9.55435 0.0732,10.7418 0.6324,10.27759 0.53049,-0.44027 0.63239,-2.18114 0.63239,-10.80244 z m 3.37283,0 c 0,-8.85457 -0.0876,-10.27759 -0.63239,-10.27759 -0.54568,0 -0.63247,1.48134 -0.63247,10.80244 0,9.55435 0.0732,10.7418 0.63247,10.27759 0.53042,-0.44027 0.63239,-2.18114 0.63239,-10.80244 z m 306.92505,8.45874 c 0,-1.52465 -0.1697,-2.66041 -0.3782,-2.53153 -0.208,0.12856 -1.3651,1.37295 -2.5713,2.76528 l -2.1931,2.53154 h 2.5713 2.5713 z m 21.5016,2.3437 c 0,-0.23188 -0.8538,-0.42161 -1.8972,-0.42161 -1.0434,0 -1.8972,0.18973 -1.8972,0.42161 0,0.23188 0.8538,0.42159 1.8972,0.42159 1.0434,0 1.8972,-0.18971 1.8972,-0.42159 z m 3.7943,-0.38647 c 0,-0.44444 -0.237,-0.89396 -0.5269,-0.99892 -0.4216,-0.15269 -0.4216,-0.36937 0,-1.08341 0.3222,-0.54558 0.5269,-2.45185 0.5269,-4.90349 v -4.01092 h -1.4755 -1.4756 v 5.90241 5.90239 h 1.4756 c 1.1731,0 1.4755,-0.16562 1.4755,-0.80806 z M 579.1023,28.399596 c -0.0724,-2.95647 -0.13171,-0.53755 -0.13171,5.3754 0,5.91295 0.0592,8.33188 0.13171,5.37541 0.0724,-2.95647 0.0724,-7.79435 0,-10.75081 z m 29.61855,5.3754 c 0,-6.7456 -0.15171,-10.54001 -0.42159,-10.54001 -0.26972,0 -0.42152,3.79441 -0.42152,10.54001 0,6.74561 0.1518,10.54001 0.42152,10.54001 0.26988,0 0.42159,-3.7944 0.42159,-10.54001 z m 10.1185,0 c 0,-6.7456 -0.15179,-10.54001 -0.4216,-10.54001 -0.26987,0 -0.42159,3.79441 -0.42159,10.54001 0,6.74561 0.15172,10.54001 0.42159,10.54001 0.26981,0 0.4216,-3.7944 0.4216,-10.54001 z m 311.14102,7.79309 c 0,-1.21151 -0.2069,-1.87986 -0.6324,-2.04314 -0.5195,-0.19934 -0.6324,0.21586 -0.6324,2.32532 0,2.23484 0.082,2.4999 0.6324,2.04314 0.3815,-0.31661 0.6324,-1.23923 0.6324,-2.32532 z M 525.2441,33.774996 v -10.1184 h -2.95124 c -2.06796,0 -2.95793,0.15772 -2.97358,0.52698 -0.13692,3.21584 0.0693,19.02282 0.25174,19.31835 0.13311,0.2153 1.46398,0.39148 2.95754,0.39148 h 2.71554 z m 16.02073,0 v -10.1184 h -7.16718 -7.16718 v 10.1184 10.11841 h 7.16718 7.16718 z m 399.67714,8.01041 v -1.68641 h -5.0592 -5.0593 v 1.68641 1.68639 h 5.0593 5.0592 z m 4.5675,1.40903 2.2486,-0.27004 -2.8174,-1.2019 c -1.5496,-0.66104 -2.8935,-1.20189 -2.9865,-1.20189 -0.093,0 -0.1691,0.66401 -0.1691,1.4756 0,1.64447 0,1.6452 3.7244,1.19823 z m 33.718,-1.09283 c 0.1326,-0.68969 -0.6988,-0.73781 -12.7478,-0.73781 -12.6399,0 -12.8898,0.0165 -12.8898,0.84939 0,0.83517 0.2133,0.84751 12.7479,0.7378 11.7543,-0.10289 12.7588,-0.16908 12.8897,-0.84938 z m 3.8745,0.10539 c 0,-0.6826 -0.2811,-0.8432 -1.4756,-0.8432 -1.1945,0 -1.4756,0.1606 -1.4756,0.8432 0,0.6826 0.2811,0.84321 1.4756,0.84321 1.1945,0 1.4756,-0.16061 1.4756,-0.84321 z m -465.44673,-7.7996 v -8.2212 l -45.84903,7.7e-4 c -25.21692,0 -50.54456,0.12575 -56.2836,0.27831 l -10.4346,0.2774 v 7.7041 7.70408 l 1.1594,0.17565 c 0.63767,0.0966 25.96526,0.20405 56.28361,0.2388 l 55.12422,0.0631 z m -386.28632,7.50993 c -0.40308,-0.10552 -1.16197,-0.10935 -1.68642,-0.009 -0.52439,0.10084 -0.19462,0.18719 0.73292,0.19185 0.92749,0.004 1.35659,-0.0778 0.9535,-0.18334 z m 84.84212,-0.34273 c 0,-0.55583 -3.4139,-0.63239 -28.19556,-0.63239 -24.54841,0 -28.26347,0.0818 -28.72043,0.63239 -0.46569,0.56109 2.71408,0.6324 28.19557,0.6324 25.24821,0 28.72042,-0.0764 28.72042,-0.6324 z m 83.47687,0.21081 c 0,-0.2757 -7.65906,-0.42161 -22.13401,-0.42161 -14.47495,0 -22.13402,0.14591 -22.13402,0.42161 0,0.27572 7.65907,0.42159 22.13402,0.42159 14.47495,0 22.13401,-0.14587 22.13401,-0.42159 z m 27.29864,0.10822 c -1.79709,-0.079 -4.73774,-0.079 -6.53482,0 -1.79707,0.0791 -0.32675,0.14369 3.26741,0.14369 3.59416,0 5.06448,-0.0647 3.26741,-0.14369 z m 4.66302,-2.11082 c -0.1123,-1.35735 -0.35626,-1.69114 -1.72441,-2.35955 -2.02539,-0.98949 -7.3034,-1.36007 -10.63282,-0.74659 -2.84174,0.52365 -4.00521,1.53134 -4.00521,3.46904 v 1.21809 h 8.24664 8.24665 z m 425.89624,1.36222 c 0,-0.39309 -8.91988,-12.6024 -10.27441,-14.06335 -0.7258,-0.78285 -2.17336,-1.8263 -3.21676,-2.31881 l -1.89725,-0.89547 -59.34025,-0.1139 -59.34025,-0.1139 v 7.82134 c 0,6.56336 0.10173,7.86036 0.63239,8.06401 0.3478,0.13347 0.63247,0.6018 0.63247,1.04077 0,0.77966 1.53201,0.79808 66.40203,0.79808 36.52107,0 66.40203,-0.0985 66.40203,-0.21877 z m 90.22248,-0.86294 c 0,-2.98705 -1.83652,-3.76669 -8.87262,-3.76669 -4.24617,0 -5.50238,0.13984 -6.37096,0.70924 -1.0441,0.68435 -1.87967,2.95703 -1.38288,3.76086 0.1286,0.20807 3.92218,0.3783 8.43018,0.3783 h 8.19628 z m 38.50068,0.76588 c -6.0706,-0.0657 -16.12576,-0.0658 -22.34484,-1.2e-4 -6.21908,0.0657 -1.25236,0.11957 11.03734,0.11964 12.2897,8e-5 17.3781,-0.0538 11.3075,-0.11952 z m -584.05146,-0.94897 c 0,-0.83359 -0.28108,-0.84319 -24.66361,-0.84319 -20.27195,0 -24.66361,0.10009 -24.66361,0.56213 0,0.30917 0.12649,0.68862 0.28108,0.8432 0.15459,0.15459 11.25322,0.28107 24.66361,0.28107 24.10145,0 24.38253,-0.01 24.38253,-0.84321 z m 677.10666,0.52702 c 0.01,-0.17392 0.3604,-2.9723 0.7804,-6.21862 0.5637,-4.35733 0.6432,-6.09555 0.3035,-6.64021 -0.4226,-0.67763 -1.557,-0.73779 -13.9121,-0.73779 h -13.452 l 0.2874,4.08993 c 0.1581,2.24945 0.3285,4.11872 0.3785,4.15391 0.131,0.0922 14.4894,4.44886 16.7441,5.08052 2.0614,0.57755 8.8432,0.78568 8.8702,0.27226 z m -80.1206,-0.94861 c 0,-0.83352 -0.2811,-0.84321 -24.4529,-0.84321 -24.17171,0 -24.4528,0.01 -24.4528,0.84321 0,0.83351 0.28109,0.8432 24.4528,0.8432 24.1718,0 24.4529,-0.01 24.4529,-0.8432 z m 59.6564,-0.65333 c -2.7825,-0.79439 -5.1066,-1.44667 -5.1646,-1.44951 -0.059,-0.004 -0.1055,0.65885 -0.1055,1.47043 v 1.47561 l 5.1647,-0.0261 5.1646,-0.0261 z m 7.7644,0.91255 c -0.2547,-0.23561 -11.6287,-3.63202 -12.1628,-3.63202 -2.5241,0 8.5617,3.68789 11.3196,3.76566 0.5604,0.0159 0.9399,-0.0444 0.8432,-0.13364 z m -750.9095,-0.88729 c 0.10653,-0.10654 -0.5098,-1.05226 -1.36967,-2.10162 l -1.56337,-1.9079 -22.21122,0.0369 c -12.21614,0.0203 -23.09617,0.1626 -24.17784,0.3162 -1.67123,0.23732 -2.24002,0.59062 -3.78646,2.35189 l -1.81982,2.07263 27.36734,-0.28721 c 15.05206,-0.15797 27.4545,-0.37438 27.56104,-0.48092 z m 737.0319,-11.57344 c 0,-2.537 -0.1725,-4.71941 -0.3836,-4.84977 -0.2109,-0.13039 -0.6852,-0.12127 -1.054,0.0202 -0.556,0.21339 -0.6704,1.04064 -0.6704,4.84977 v 4.5925 h 1.054 1.054 z M 769.7722,25.764616 v -2.10801 h -12.51752 -12.51752 l 2.2937,2.08886 2.29371,2.08887 10.22381,0.0192 10.22382,0.0192 z m 212.48657,-0.12127 c 0,-1.3217 -0.1384,-1.60072 -0.7378,-1.48716 -0.5055,0.0958 -0.7773,0.60818 -0.8632,1.62699 -0.1062,1.25845 0.01,1.48715 0.7377,1.48715 0.7209,0 0.8633,-0.26847 0.8633,-1.62698 z m -38.3656,0.12127 v -1.26481 H 857.04342 770.1938 v 1.26481 1.2648 h 86.84962 86.84975 z m 5.9024,-0.21081 c 0,-0.49188 -0.5622,-0.6324 -2.5296,-0.6324 -1.9675,0 -2.5296,0.14052 -2.5296,0.6324 0,0.49187 0.5621,0.6324 2.5296,0.6324 1.9674,0 2.5296,-0.14053 2.5296,-0.6324 z m 30.3552,0 c 0,-0.54895 -1.7801,-0.6324 -13.4912,-0.6324 -11.7111,0 -13.4913,0.0834 -13.4913,0.6324 0,0.54896 1.7802,0.6324 13.4913,0.6324 11.7111,0 13.4912,-0.0834 13.4912,-0.6324 z m 28.11333,-1.93606 c 8.2437,-2.00055 10.5652,-2.70796 10.3895,-3.16587 -0.1245,-0.32433 -0.4126,-0.58967 -0.6403,-0.58967 -0.2276,0 -4.7993,1.15293 -10.1592,2.56207 l -9.74592,2.56205 -7.7141,-0.0464 c -6.66961,-0.0402 -7.71371,0.0411 -7.71371,0.59993 0,0.55629 1.0426,0.64686 7.48351,0.65019 l 7.4838,0.004 z m -518.32907,1.40912 c -15.59393,-0.0613 -41.1113,-0.0613 -56.70522,0 -15.59397,0.0613 -2.83528,0.11137 28.3526,0.11137 31.18787,0 43.94655,-0.0502 28.35262,-0.11137 z m 251.90095,-3.30779 c -0.10914,-0.10914 -1.03009,-0.0526 -2.04656,0.12553 l -1.84805,0.32398 1.89725,0.21701 c 1.6863,0.19289 2.56389,-0.1 1.99736,-0.66652 z m -24.76384,0.48774 c 0,-0.40576 -9.38624,-7.82541 -9.89953,-7.82541 -1.33787,0 -0.79679,1.38882 1.78392,4.57956 l 2.775,3.43085 h 2.6703 c 1.46865,0 2.67031,-0.0833 2.67031,-0.185 z m 308.57906,-0.58345 c 2.3755,-0.74519 2.7988,-1.15628 2.1867,-2.12346 -0.2988,-0.47217 -0.621,-0.4797 -1.8291,-0.0428 -1.1286,0.40809 -1.7866,0.41872 -2.8554,0.0461 -2.9507,-1.02863 -4.288,-0.0389 -2.5077,1.85608 1.1286,1.20131 1.89,1.24149 5.0055,0.26413 z m -296.34115,-2.22532 c 0.25602,-0.95093 0.36313,-1.83143 0.23781,-1.95665 -0.43888,-0.43893 -8.8903,-2.17614 -9.15489,-1.88182 -0.14704,0.16358 -0.39271,1.00336 -0.54606,1.86617 -0.24847,1.39821 -0.17383,1.59325 0.68665,1.79401 0.53096,0.12392 2.48317,0.58423 4.33823,1.02294 1.85498,0.43872 3.50773,0.81716 3.67276,0.84098 0.16495,0.0239 0.5094,-0.7347 0.7655,-1.68563 z m 6.50451,1.33771 c 0.26217,-0.42407 -0.37622,-0.67444 -2.827,-1.1088 -2.23221,-0.39561 -2.0443,0.50347 0.21079,1.00848 2.43079,0.54436 2.34391,0.54103 2.61621,0.10032 z m 290.28154,-2.13284 c 0.9626,-0.51516 0.6619,-2.11351 -0.3976,-2.11351 -1.3086,0 -3.3866,0.91176 -3.3866,1.48593 0,0.91942 2.4726,1.3295 3.7842,0.62758 z m -306.50078,-2.00812 c 0.009,-0.75301 -0.69864,-0.65186 -1.00378,0.14345 -0.35114,0.91505 0.16666,1.69446 0.63489,0.95556 0.19927,-0.31459 0.36539,-0.80915 0.36889,-1.09901 z m -1.67992,0.38801 c 0,-0.32465 -5.82307,-1.75821 -7.14172,-1.75821 -1.38653,0 0.20309,0.59135 3.4404,1.27986 1.91975,0.40829 3.53793,0.76165 3.59585,0.78525 0.0584,0.0236 0.10547,-0.11452 0.10547,-0.3069 z"
       id="path1" /></g></svg>
