<svg
   width="1100mm"
   height="200mm"
   viewBox="0 0 1100 200"
   version="1.1"
   id="svg1"
   xml:space="preserve"
   xmlns="http://www.w3.org/2000/svg"
   xmlns:svg="http://www.w3.org/2000/svg"><defs
     id="defs1" /><g
     id="layer1"><path
       style="fill:#000000;stroke-width:0.132787"
       d="m 87.61996,186.90975 v -1.46131 l 98.5493,-0.0322 c 95.08268,-0.0311 98.4601,-0.0586 96.01947,-0.78059 -8.08386,-2.39149 -13.89161,-8.09345 -16.44425,-16.14461 l -0.95303,-3.00586 -0.29987,1.77507 c -0.16495,0.9763 -0.75642,2.31761 -1.31439,2.9807 -0.93197,1.10762 -1.01447,1.5691 -1.01447,5.67697 0,3.69347 -0.11003,4.47135 -0.63239,4.47135 -0.52549,0 -0.63238,-0.81978 -0.63238,-4.84841 v -4.84841 h -43.54453 -43.54459 l -9.8192,-1.4756 c -5.4006,-0.81158 -10.08969,-1.47559 -10.42028,-1.47559 -0.48956,0 -0.60108,1.01702 -0.60108,5.4808 0,3.3728 -0.16216,5.4808 -0.42159,5.4808 -0.26025,0 -0.42165,-2.17827 -0.42165,-5.6916 0,-4.27178 -0.13144,-5.6918 -0.52696,-5.6924 -0.52422,-7.8e-4 -30.45619,-4.39426 -33.12353,-4.86192 l -1.39789,-0.2451 0.24942,-13.5723 0.2495,-13.5723 -5.40122,-45.743642 -5.4012,-45.743631 -1.88239,-0.210801 c -1.6706,-0.18708 -1.88239,-0.329388 -1.88239,-1.264796 0,-0.930406 0.20057,-1.06874 1.71028,-1.179659 l 1.71023,-0.125657 -0.69197,-5.964323 c -0.41782,-3.601315 -0.88659,-6.029203 -1.18321,-6.128079 -0.27026,-0.09007 -0.49129,-0.40271 -0.49129,-0.694751 0,-0.397619 -1.95813,-0.601729 -7.7961,-0.812619 -7.66849,-0.27701 -7.96935,-0.323708 -18.38351,-2.853523 l -10.58739,-2.571904 -1.2301,0.909455 -1.23009,0.909448 -3.25827,-0.98785 -3.25821,-0.987859 0.0552,-1.455745 c 0.0303,-0.800672 0.37405,-2.323914 0.76364,-3.384992 l 0.70826,-1.929229 3.12008,0.832586 c 2.66184,0.710296 3.10699,0.959299 3.03083,1.695321 -0.0815,0.7874 0.93622,1.129618 11.65119,3.91783 l 11.7405,3.055072 22.09298,0.0221 22.093,0.02202 v -1.036618 c 0,-2.168674 3.14233,-2.27675 3.44878,-0.118624 0.11607,0.817072 0.42584,0.967938 2.22107,1.081456 1.14737,0.07255 2.47544,-0.06158 2.9512,-0.298098 0.57752,-0.287082 33.86453,-0.488562 100.15189,-0.606174 54.60778,-0.09691 99.70288,-0.31407 100.2114,-0.482591 0.55342,-0.18342 1.03081,-0.790248 1.1893,-1.511823 0.27951,-1.272638 0.36911,-1.285396 3.93429,-0.560116 0.54394,0.110662 1.26262,-0.02592 1.59704,-0.303484 0.33443,-0.277562 1.97634,-0.822388 3.64868,-1.210728 2.23163,-0.51822 3.14527,-0.935674 3.43421,-1.569085 0.3093,-0.678217 1.30241,-1.061023 4.6376,-1.787673 2.33415,-0.508568 4.57598,-1.019237 4.9818,-1.134818 0.40577,-0.115595 0.73781,-0.04686 0.73781,0.152743 0,0.199595 -2.18666,0.821759 -4.85922,1.382581 -3.96296,0.831614 -4.8129,1.139294 -4.60809,1.668116 0.13813,0.356635 0.35643,1.170158 0.48512,1.807826 0.12864,0.63767 0.44737,1.160708 0.70826,1.162312 0.53394,0.0032 8.40938,-1.753174 8.62081,-1.922691 0.0749,-0.06002 -0.0477,-0.774057 -0.27182,-1.586715 -0.35573,-1.288416 -0.30569,-1.504304 0.39087,-1.686471 0.82345,-0.215328 1.14875,0.368459 0.3531,0.633675 -0.51357,0.171192 -0.075,1.6081 0.49084,1.6081 0.20707,0 0.37648,-0.438098 0.37648,-0.973552 0,-0.89679 0.34067,-1.042472 4.32144,-1.847978 l 4.32139,-0.874442 -161.57835,-0.0492 C 108.06522,14.29524 53.891839,14.137375 53.891839,13.857127 c 0,-0.280342 54.664321,-0.421602 163.149861,-0.421602 h 163.14955 l 0.67847,1.035452 c 0.77375,1.180892 0.75822,1.217594 -1.99014,4.710607 l -2.03318,2.584055 32.14277,0.278474 c 17.67854,0.15317 60.41107,0.37151 94.96119,0.485206 34.55021,0.113706 88.89733,0.343324 120.77153,0.510273 l 57.95302,0.303539 -0.12626,9.380597 -0.12626,9.380617 35.76849,-0.0024 35.76841,-0.0024 0.06,-1.626476 c 0.0912,-2.48392 0.75227,-3.323455 3.18593,-4.046167 2.54381,-0.755452 8.21798,-0.846458 11.31836,-0.181544 1.91399,0.410471 2.24233,0.641881 2.79804,1.971929 0.34625,0.828796 0.55097,2.042421 0.45491,2.696973 l -0.1746,1.190067 h 7.09417 c 4.44838,0 7.09416,-0.157249 7.09416,-0.421601 0,-0.231885 -0.47429,-0.4216 -1.05398,-0.4216 -0.92353,0 -1.05399,-0.182705 -1.05399,-1.475604 v -1.475596 h 25.32275 25.32278 l -0.13219,1.370194 c -0.10119,1.050185 -0.35366,1.401664 -1.08069,1.504915 -0.52183,0.07411 -0.94859,0.311258 -0.94859,0.52701 0,0.236028 7.38897,0.392283 18.55034,0.392283 h 18.55044 v -1.370212 c 0,-1.437081 0.83846,-2.994292 2.81925,-5.246272 l 1.18434,-1.346463 24.45279,0.261558 24.45272,0.261558 3.1621,3.690014 3.162,3.690034 12.7083,0.0299 c 10.926,0.02572 12.7423,-0.0588 12.951,-0.602508 0.1335,-0.347825 0.633,-0.632401 1.11,-0.632401 0.7976,0 0.7272,-0.255485 -0.8795,-3.18277 -0.9607,-1.750526 -1.6463,-3.283328 -1.5233,-3.406242 0.1229,-0.12289 1.0463,1.306686 2.0522,3.176848 1.0056,1.87018 2.0454,3.402988 2.3104,3.406241 0.2651,0.0029 0.5912,0.290499 0.7247,0.638324 0.2105,0.548717 2.7408,0.634844 19.1224,0.650845 26.29147,0.02572 24.42887,-0.942594 25.64287,13.330748 0.7248,8.523572 0.8627,9.320723 1.8585,10.747511 0.6679,0.956977 1.54,1.637128 2.3008,1.794424 l 1.2253,0.253332 -0.2808,6.810167 c -0.2854,6.925612 -0.5425,7.940603 -2.0106,7.940603 -0.4354,0 -0.7916,0.232682 -0.7916,0.517083 0,0.284407 0.2988,6.308019 0.6639,13.385816 0.7408,14.357624 0.6276,49.253444 -0.168,51.755654 -0.263,0.8274 -0.28,1.45953 -0.043,1.60589 0.2173,0.13433 0.3844,3.64239 0.3766,7.91068 -0.016,8.55642 -0.1306,8.94395 -2.9436,9.92997 -0.8081,0.2833 -4.97917,0.92689 -9.26907,1.43016 -7.4147,0.86994 -9.8694,0.92188 -49.7488,1.05277 -23.0721,0.0757 -42.57645,0.0249 -43.34295,-0.11305 -2.11604,-0.38071 -3.02909,-1.54357 -3.05632,-3.89273 l -0.0236,-2.00258 -0.80056,3.05524 c -2.06772,7.89091 -8.63766,14.69923 -16.43851,17.03509 -1.61723,0.48422 7.62375,0.59919 62.60764,0.77888 35.4777,0.11593 73.04307,0.11593 83.47827,0 10.4351,-0.11594 19.2204,-0.13915 19.5227,-0.0516 0.3389,0.0982 0.5005,0.66389 0.4216,1.47559 l -0.1281,1.31639 -479.25662,0.0911 -479.25431,0.0911 z m 501.91534,-2.26091 c -5.96366,-1.73711 -11.61828,-6.07883 -14.41991,-11.07198 -1.22274,-2.17921 -2.84568,-6.6259 -3.20702,-8.78683 -0.0969,-0.57969 -0.20208,0.0113 -0.23369,1.31335 -0.0404,1.66381 -0.30794,2.68592 -0.90056,3.4393 -0.72813,0.92562 -0.84318,1.71035 -0.84318,5.74845 0,4.39544 -0.0506,4.67651 -0.84319,4.67651 -0.79213,0 -0.84327,-0.28107 -0.84327,-4.6376 v -4.63761 H 556.22889 544.2133 v -2.81389 -2.81389 l -0.98268,0.92323 c -0.9802,0.92078 -0.98487,0.92099 -1.74305,0.0831 -0.72323,-0.79911 -0.81844,-0.80577 -1.95135,-0.13653 -1.11455,0.6583 -1.24206,0.65747 -1.98304,-0.013 -0.74775,-0.67677 -0.83478,-0.66918 -1.56393,0.13653 l -0.77204,0.85316 -0.91947,-0.86378 c -0.81719,-0.76768 -0.97918,-0.79186 -1.45597,-0.21735 -0.67575,0.81425 -1.23232,0.81704 -2.12338,0.0107 -0.63037,-0.57042 -0.78209,-0.54807 -1.47473,0.21735 l -0.77204,0.85313 -0.95162,-0.89393 -0.95154,-0.89396 -0.54366,0.87053 c -0.50449,0.8079 -0.59806,0.82128 -1.30004,0.18595 -0.63986,-0.57905 -0.91239,-0.60112 -1.76804,-0.14317 -0.85089,0.4554 -1.1646,0.43425 -1.9747,-0.13323 -0.88437,-0.6194 -1.0255,-0.61821 -1.72475,0.0146 -0.70627,0.63918 -0.8228,0.63382 -1.60472,-0.0739 -0.81377,-0.73639 -0.87277,-0.73639 -1.68644,0 -0.81438,0.73698 -0.87343,0.73575 -1.72662,-0.0364 -0.87082,-0.78808 -0.89502,-0.78512 -1.69875,0.20737 l -0.81525,1.00686 -0.95721,-0.89925 c -0.88962,-0.83571 -1.00639,-0.85008 -1.65296,-0.20353 -0.5745,0.57448 -0.80961,0.60121 -1.34925,0.15331 -0.49304,-0.40917 -0.65357,-0.41721 -0.65357,-0.0327 0,0.36649 -0.94215,0.47401 -3.35252,0.38268 -1.84391,-0.0699 -3.48989,0.0103 -3.65775,0.17817 -0.16786,0.16785 -0.75085,-0.11347 -1.29548,-0.62515 l -0.99027,-0.93034 -0.91899,0.91899 -0.91899,0.91899 -1.00365,-0.94112 -1.00359,-0.9411 -0.74455,0.91773 -0.74456,0.91772 -0.89118,-0.89113 c -0.86774,-0.86772 -0.9137,-0.87074 -1.7492,-0.11459 -0.82833,0.74962 -0.88733,0.75008 -1.70131,0.0135 -0.81367,-0.73639 -0.87267,-0.73639 -1.68641,0 -0.78756,0.71274 -0.89432,0.71683 -1.61793,0.062 -0.72531,-0.65638 -0.82393,-0.64686 -1.54405,0.14888 -0.72169,0.79744 -0.81746,0.80641 -1.54812,0.14516 -0.6709,-0.60715 -0.92387,-0.62728 -1.82471,-0.14516 -0.902,0.48276 -1.15392,0.46181 -1.83262,-0.1524 -0.70227,-0.63554 -0.84423,-0.64297 -1.32052,-0.0691 -0.68021,0.81957 -1.44652,0.81834 -2.12848,-0.004 -0.4768,-0.57449 -0.63883,-0.55031 -1.45595,0.21735 l -0.91945,0.86378 -0.77493,-0.85627 -0.77494,-0.85628 -0.91148,0.85628 -0.91149,0.85627 -0.77208,-0.85314 c -0.71244,-0.78722 -0.82991,-0.80083 -1.5203,-0.17605 -0.41152,0.37242 -0.94022,0.55842 -1.17499,0.41335 -0.26433,-0.16337 -0.47506,0.66339 -0.55355,2.1721 l -0.12678,2.43587 -75.02059,-0.17119 -75.02053,-0.17118 -0.97288,-1.04979 c -0.72809,-0.78557 -0.98735,-1.59132 -1.03034,-3.20162 -0.0314,-1.1835 -0.13679,-1.67753 -0.23384,-1.09782 -1.52187,9.09147 -8.91598,17.20246 -17.83754,19.56703 -2.04325,0.54155 15.49198,0.61412 147.56006,0.61077 143.35278,-0.004 149.76878,-0.0359 147.34928,-0.74061 z m 276.89092,-0.047 c -8.15373,-2.89845 -14.07245,-9.12529 -16.1273,-16.96731 -0.76415,-2.91594 -0.8017,-2.97229 -0.82385,-1.23574 -0.0236,1.92562 -0.61567,3.44053 -1.56033,3.99843 -0.42947,0.25362 -0.57085,1.58544 -0.57085,5.37541 0,4.19738 -0.10557,5.03825 -0.6324,5.03825 -0.5269,0 -0.63239,-0.8432 -0.63239,-5.0592 v -5.05921 h -29.72292 -29.72275 v 1.8972 1.89721 H 750.37578 714.1182 v -1.89166 -1.89166 L 668.48,170.59262 c -39.68163,-0.0965 -45.80331,-0.19393 -46.90306,-0.74666 -1.16172,-0.58393 -1.28464,-0.85881 -1.5082,-3.3728 -0.13389,-1.50541 -0.27618,-2.24859 -0.3162,-1.65154 -0.10828,1.61481 -1.92652,6.64018 -3.24042,8.95608 -2.72526,4.80341 -8.4708,9.16307 -14.32875,10.87254 -2.42246,0.70692 3.16678,0.73814 131.96079,0.73741 131.67987,-7.8e-4 134.44432,-0.0172 132.28206,-0.78581 z m -578.12427,-3.40449 c 0,-2.20089 0.13859,-2.94054 0.52701,-2.81221 0.3317,0.1096 0.57263,1.19152 0.65013,2.91973 l 0.12312,2.7456 2.31961,-0.36375 c 8.34056,-1.30792 15.22929,-7.18623 18.07405,-15.42303 0.37959,-1.09891 0.80013,-3.51579 0.93464,-5.37082 1.06986,-14.75683 -13.15805,-26.70178 -27.48871,-23.07787 -10.22601,2.58595 -17.05056,11.23918 -17.05987,21.63114 -0.005,6.22009 2.13465,11.39982 6.52381,15.78894 3.55151,3.55153 8.50149,5.99167 13.499,6.65451 0.69563,0.0923 1.40708,0.19618 1.58099,0.23093 0.1739,0.0348 0.31622,-1.28069 0.31622,-2.92317 z m -3.85208,-4.84149 c -4.01045,-1.23474 -8.54146,-5.46051 -9.68904,-9.03619 -0.26043,-0.81158 -0.60493,-1.6204 -0.76545,-1.79735 -0.16059,-0.17698 -1.64162,-0.0665 -3.29126,0.24535 -3.53062,0.66761 -3.46691,0.74348 -3.47646,-4.14094 -0.0228,-11.77764 9.77097,-21.71109 21.40616,-21.71109 3.86837,0 7.58983,0.9262 10.62974,2.64555 2.90871,1.64516 7.17254,5.8473 8.42585,8.30399 2.27702,4.46341 3.33117,9.54075 2.76488,13.31721 l -0.29574,1.97201 -1.54771,-0.2672 c -4.68572,-0.80887 -5.13128,-0.81612 -5.13128,-0.0837 0,0.95699 -1.5352,3.92163 -2.98516,5.76484 -3.50403,4.45422 -10.4222,6.51851 -16.04453,4.78747 z m 10.41569,-1.61713 c 2.7018,-1.23693 5.48007,-3.97674 6.92049,-6.82473 1.47824,-2.92274 1.68986,-7.89673 0.47367,-11.13435 -2.22845,-5.93236 -8.02498,-9.62965 -14.38617,-9.17614 -3.42403,0.2441 -6.10268,1.40523 -8.6424,3.74626 -5.54147,5.10793 -6.15657,13.36247 -1.44036,19.32894 4.00981,5.07274 11.15274,6.7712 17.07477,4.06002 z m -10.56882,-1.27268 c -6.59887,-2.74815 -9.75718,-10.48412 -6.84643,-16.76962 3.99304,-8.62272 15.59076,-10.15635 21.38374,-2.82769 2.06001,2.6061 2.71724,4.52838 2.7251,7.97013 0.0204,8.87078 -9.11171,15.02162 -17.26241,11.62718 z m 7.37804,-0.27179 c 5.88613,-1.3304 10.13926,-7.92415 8.84616,-13.7145 -0.92703,-4.15097 -3.17466,-6.78988 -7.36025,-8.64136 -2.57235,-1.13788 -6.69719,-0.96965 -9.34222,0.381 -6.80657,3.47569 -8.61057,12.4012 -3.67252,18.17017 1.5839,1.85045 3.08878,2.79516 5.8372,3.66435 2.087,0.66005 3.26379,0.68907 5.69163,0.14034 z m -6.72123,-3.42339 c -3.75718,-1.95729 -5.73811,-6.1189 -4.72877,-9.93461 1.51094,-5.71215 7.34582,-8.39352 12.58432,-5.78304 3.08867,1.53913 4.49389,3.73274 4.68432,7.3125 0.12247,2.30104 -0.0238,3.11454 -0.83335,4.62658 -2.25322,4.20991 -7.57871,5.92887 -11.70652,3.77857 z m 2.08357,-1.14129 c 0,-0.9422 -0.97467,-1.43135 -1.60205,-0.80399 -0.62738,0.62736 -0.13819,1.60208 0.80396,1.60208 0.502,0 0.79809,-0.29611 0.79809,-0.79809 z m 5.82632,-0.39433 c 0.1013,-0.68818 -0.082,-0.91558 -0.73775,-0.91558 -0.56501,0 -0.87256,0.27242 -0.87256,0.77292 0,1.60278 1.37753,1.7248 1.61031,0.14266 z m -1.24237,-3.06407 c 3.05091,-2.84233 1.37584,-7.54832 -2.68673,-7.54832 -4.27664,0 -5.78927,5.27919 -2.2274,7.77402 1.35483,0.94894 3.77248,0.8379 4.91413,-0.2257 z m -4.84147,-0.94679 c -2.91719,-2.50927 0.15373,-6.92376 3.58288,-5.15047 2.04132,1.0556 2.3672,3.43474 0.69905,5.10291 -1.30147,1.30146 -2.80479,1.31816 -4.28193,0.0475 z m 4.27565,-0.84549 c 0.84749,-1.2099 0.77702,-2.22571 -0.22371,-3.22644 -1.68967,-1.68968 -4.6376,-0.61771 -4.6376,1.68641 0,2.57354 3.38604,3.64623 4.86131,1.54003 z m -7.88859,1.06194 c 0.0993,-0.67445 -0.0832,-0.91558 -0.69266,-0.91558 -0.99183,0 -1.46317,0.97228 -0.79512,1.6403 0.67265,0.67266 1.32923,0.35285 1.48778,-0.72472 z m 13.38153,0.73037 c 0.15703,-0.25413 0.0262,-0.72158 -0.29138,-1.03875 -0.73135,-0.73114 -1.85415,-0.11078 -1.4947,0.82586 0.29626,0.77215 1.36187,0.89917 1.78608,0.21289 z m -13.44704,-5.67949 c 0.13946,-0.36342 0.0466,-0.8676 -0.20614,-1.12045 -0.60876,-0.60873 -1.8008,0.34185 -1.47929,1.17961 0.30843,0.80371 1.36863,0.76649 1.68543,-0.0592 z m 13.21123,-0.18245 c 0,-0.5536 -0.28109,-0.8432 -0.81834,-0.8432 -0.92656,0 -1.46818,0.63495 -1.07887,1.2648 0.48594,0.78624 1.89721,0.47265 1.89721,-0.4216 z m -9.13457,-3.55279 c 0.32145,-0.83777 -0.87058,-1.78834 -1.47934,-1.17962 -0.58212,0.58218 -0.14599,1.78121 0.64791,1.78121 0.3303,0 0.70442,-0.27072 0.83143,-0.60159 z m 5.26591,-0.38324 c 0.17373,-0.89595 -1.15399,-1.44294 -1.63062,-0.67175 -0.41048,0.66416 0.32972,1.76352 1.03029,1.53028 0.25507,-0.0849 0.52521,-0.47123 0.60033,-0.85853 z m -2.34417,-9.00877 c -0.51858,-0.10007 -1.46713,-0.10266 -2.108,-0.006 -0.64089,0.0969 -0.21661,0.17878 0.94279,0.18194 1.1594,0.004 1.68373,-0.0762 1.16521,-0.17619 z m 305.54903,34.86802 c 0,-2.34223 0.13046,-2.95121 0.63239,-2.95121 0.49725,0 0.63239,0.58555 0.63239,2.74041 v 2.74039 l 1.37018,-0.005 c 3.92645,-0.0156 10.16279,-3.13525 13.65355,-6.83 4.28413,-4.53457 6.14114,-9.06897 6.1789,-15.08777 0.0404,-6.47832 -2.01542,-11.58959 -6.44341,-16.0176 -4.54934,-4.54928 -9.33221,-6.5219 -15.81321,-6.5219 -6.48115,0 -11.26402,1.97262 -15.81329,6.5219 -4.44191,4.44191 -6.51532,9.58888 -6.45274,16.0176 0.0584,6.0358 1.91734,10.56724 6.18824,15.08777 3.4418,3.64293 8.88991,6.39618 13.75895,6.95328 0.81158,0.0928 1.61787,0.19918 1.79177,0.23629 0.17398,0.0371 0.31628,-1.26057 0.31628,-2.88373 z m -3.58363,-4.80714 c -2.80116,-0.88823 -4.9651,-2.19324 -6.82686,-4.11708 -1.80002,-1.86008 -3.90714,-5.78175 -3.92629,-7.3074 -0.008,-0.57056 -0.11738,-0.67496 -0.3411,-0.32287 -0.18176,0.28619 -1.68957,0.77731 -3.35073,1.09141 l -3.02013,0.57108 -0.28288,-1.886 c -0.38438,-2.5634 0.0514,-7.0155 0.93684,-9.57202 5.52362,-15.94741 25.42262,-20.18578 36.5596,-7.78697 3.57554,3.98069 5.74531,9.54755 5.7464,14.74338 0,3.69988 -0.28568,4.33115 -1.83848,4.05243 -4.7891,-0.85963 -4.75835,-0.86226 -5.07789,0.43499 -0.68836,2.79492 -3.59826,6.49433 -6.6036,8.39522 -3.33383,2.10867 -8.41717,2.83194 -11.97488,1.70383 z m 7.78774,-0.92001 c 4.22365,-1.25429 7.41059,-3.93415 9.23311,-7.76407 0.92088,-1.93515 1.10381,-2.9117 1.10568,-5.90239 0,-2.9983 -0.18005,-3.97253 -1.11408,-5.96479 -3.9003,-8.31901 -14.62137,-10.97189 -21.71795,-5.374 -2.42354,1.9117 -4.55269,5.32736 -5.1885,8.32363 -2.19757,10.35519 7.6621,19.65715 17.68174,16.68162 z m -7.79101,-1.75023 c -6.89738,-2.46952 -10.27403,-9.62404 -7.7394,-16.3984 2.37466,-6.34687 9.44274,-9.69941 15.91604,-7.54931 2.67186,0.88744 5.84137,3.69436 7.22019,6.39423 1.45425,2.84749 1.49839,8.33638 0.0884,11.00093 -3.08995,5.83931 -9.68406,8.62961 -15.48526,6.55255 z m 7.28612,-0.75463 c 6.33995,-1.88276 9.95433,-8.75507 7.88356,-14.98956 -1.4997,-4.51544 -6.34298,-7.97685 -11.16119,-7.97685 -7.39985,0 -13.10655,7.1509 -11.39628,14.28015 0.99171,4.13382 4.07552,7.44895 8.09654,8.70379 2.43001,0.75836 3.9786,0.75423 6.57737,-0.0175 z m -6.56515,-2.75015 c -1.88565,-0.75672 -3.84883,-2.60068 -4.74947,-4.46111 -1.30394,-2.69348 -1.03655,-6.5629 0.61838,-8.95098 1.51038,-2.17942 4.73741,-3.85654 7.39596,-3.84371 7.12694,0.0344 11.31602,8.35652 7.05236,14.01031 -2.34212,3.10569 -7.00799,4.57344 -10.31723,3.24549 z m 1.46492,-1.4976 c 0.35948,-0.93664 -0.76332,-1.557 -1.49473,-0.82587 -0.31728,0.31719 -0.44837,0.78463 -0.29129,1.03876 0.42409,0.68629 1.48975,0.55926 1.78602,-0.21289 z m 5.96436,-0.30988 c 0.16573,-0.85481 -1.06745,-1.415 -1.70693,-0.77542 -0.332,0.33188 -0.30646,0.64444 0.0915,1.12402 0.6584,0.7933 1.42608,0.62762 1.61539,-0.3486 z m -1.15814,-3.62034 c 0.96649,-0.96653 1.2324,-1.61016 1.2324,-2.98363 0,-4.92972 -7.05228,-5.86175 -8.24981,-1.09032 -1.03842,4.13745 4.01822,7.07309 7.01741,4.07395 z m -4.92765,-0.59811 c -2.91715,-2.50927 0.15373,-6.92376 3.58292,-5.15048 2.04126,1.05561 2.36727,3.43475 0.69903,5.10292 -1.30145,1.30146 -2.80474,1.31815 -4.28195,0.0475 z m 4.27572,-0.84549 c 0.84739,-1.2099 0.77702,-2.22572 -0.22372,-3.22644 -1.68972,-1.68969 -4.63761,-0.61771 -4.63761,1.68641 0,2.57354 3.38606,3.64623 4.86133,1.54003 z m -8.24942,1.64044 c 0.5793,-0.6981 0.25057,-1.49408 -0.61714,-1.49408 -0.75865,0 -1.19044,0.72264 -0.89378,1.4958 0.29946,0.78043 0.86226,0.77978 1.51092,-0.002 z m 13.50651,-0.18417 c 0,-1.02029 -1.05485,-1.43855 -1.69183,-0.67091 -0.61931,0.74613 -0.18947,1.469 0.87347,1.469 0.52185,0 0.81836,-0.28914 0.81836,-0.79809 z m -13.25539,-5.14477 c 0.44557,-0.72089 -0.96019,-1.93338 -1.55358,-1.34001 -0.26435,0.26433 -0.36648,0.77791 -0.22707,1.14133 0.29183,0.76037 1.35983,0.87955 1.78065,0.19868 z m 13.15014,-0.27551 c 0.23049,-0.69233 -1.09049,-1.18653 -1.65703,-0.61994 -0.24255,0.24246 -0.30693,0.6576 -0.14323,0.92251 0.37248,0.60274 1.56557,0.4022 1.80026,-0.30257 z m -9.3115,-3.71758 c 0.13941,-0.3634 0.0374,-0.877 -0.22714,-1.14133 -0.59332,-0.59337 -1.99908,0.61914 -1.55351,1.34002 0.42082,0.68086 1.48882,0.56169 1.78065,-0.19869 z m 5.4116,-0.42261 c 0,-0.44126 -0.33262,-0.86635 -0.73911,-0.94462 -0.93396,-0.17987 -1.48975,1.13786 -0.69257,1.64207 0.83541,0.52843 1.43168,0.23797 1.43168,-0.69745 z m -18.89071,5.83438 c -0.10688,-0.4102 -0.20138,-0.17666 -0.21002,0.51898 -0.009,0.69563 0.079,1.03126 0.19437,0.74583 0.11552,-0.28544 0.12253,-0.85461 0.0156,-1.26481 z m 2.23743,-6.85903 c 0.24823,-0.46375 0.35644,-0.8432 0.24045,-0.8432 -0.11591,0 -0.41381,0.37945 -0.66205,0.8432 -0.24816,0.46377 -0.35636,0.84322 -0.24046,0.84322 0.11591,0 0.41389,-0.37945 0.66206,-0.84322 z m 1.31857,-2.0026 c 0.52442,-0.66868 0.50955,-0.68359 -0.15919,-0.15917 -0.40572,0.31823 -0.73779,0.65024 -0.73779,0.73781 0,0.34698 0.34616,0.12365 0.89698,-0.57864 z m 2.68665,-2.635 c 0.41965,-0.46375 0.6682,-0.8432 0.55229,-0.8432 -0.11599,0 -0.55424,0.37945 -0.97389,0.8432 -0.41972,0.46376 -0.6682,0.84321 -0.55229,0.84321 0.11591,0 0.55416,-0.37945 0.97389,-0.84321 z m 9.38553,-3.24087 c -0.40307,-0.10553 -1.16195,-0.10936 -1.68645,-0.009 -0.52435,0.10085 -0.19461,0.18719 0.73296,0.19187 0.92749,0.004 1.35656,-0.0778 0.95349,-0.18336 z m 276.6702,34.8609 c 0,-2.34223 0.13061,-2.95121 0.63239,-2.95121 0.50231,0 0.63249,0.61111 0.63249,2.97032 v 2.97028 l 1.58098,-0.26437 c 5.61181,-0.93842 9.62713,-2.95535 13.38579,-6.72378 8.71487,-8.7375 8.68642,-22.7951 -0.0639,-31.67576 -4.23312,-4.29612 -9.80037,-6.64587 -15.74597,-6.64587 -12.28645,0 -22.3448,10.2185 -22.3448,22.70048 0,5.93801 2.34285,11.4262 6.75535,15.82455 3.14315,3.13301 6.8653,5.19948 10.96677,6.08865 4.42186,0.95864 4.20108,1.07914 4.20108,-2.29329 z m -4.80915,-5.25984 c -1.36975,-0.56311 -3.17204,-1.56846 -4.00525,-2.23412 -1.8746,-1.49778 -4.51597,-5.31501 -4.96987,-7.1823 -0.39367,-1.61959 -0.14068,-1.56092 -3.95667,-0.91727 -1.63492,0.27577 -3.0895,0.38442 -3.23245,0.24146 -0.60001,-0.60001 -0.23514,-8.10031 0.50441,-10.36555 3.75865,-11.51478 14.8991,-18.1651 25.75583,-15.37506 10.06116,2.58555 16.79043,11.37121 16.72827,21.83988 -0.0122,2.04843 -0.10251,3.80483 -0.2009,3.90313 -0.0983,0.0983 -1.52304,-0.0756 -3.16618,-0.38618 l -2.98742,-0.5649 -0.88399,2.42443 c -2.79369,7.66186 -12.02706,11.72395 -19.58578,8.61648 z m 11.76418,-1.29295 c 6.90277,-3.49248 9.89982,-11.94364 6.66247,-18.78711 -2.4802,-5.24272 -6.50349,-7.98975 -12.14183,-8.29017 -4.64885,-0.24769 -7.55197,0.85177 -10.78459,4.08432 -2.94304,2.94311 -4.18218,5.93712 -4.18218,10.10503 0,3.35402 0.4708,4.9378 2.34925,7.90242 1.63281,2.5769 3.51888,4.09534 6.81216,5.48457 3.41016,1.43853 7.84262,1.24252 11.28472,-0.49906 z m -9.48654,-0.7377 c -5.82628,-1.64751 -9.62118,-7.14763 -9.17936,-13.3038 0.33861,-4.71601 2.81733,-8.42943 6.99679,-10.48184 3.22072,-1.58161 7.72435,-1.66638 10.69872,-0.20135 2.52626,1.24439 5.07641,3.79457 6.32089,6.32091 1.41326,2.86923 1.3884,7.9157 -0.0534,10.73647 -2.81356,5.50669 -9.21131,8.50543 -14.78416,6.92961 z m 5.82304,-0.78619 c 9.11774,-2.24837 12.30431,-13.3319 5.72465,-19.91149 -5.52663,-5.52669 -14.54946,-4.25849 -18.39347,2.58524 -3.76111,6.69642 -0.20029,15.23592 7.18176,17.22299 2.54184,0.68417 3.0895,0.69447 5.48706,0.10326 z m -5.12613,-2.87265 c -3.09316,-0.98763 -5.35977,-3.48711 -6.1901,-6.82618 -1.10704,-4.45228 2.00381,-9.33073 6.66265,-10.44839 4.66847,-1.11991 9.47586,1.88076 10.61398,6.625 0.9338,3.89265 -1.07404,8.17415 -4.7167,10.05786 -1.52558,0.7889 -4.79961,1.09303 -6.36983,0.59171 z m 0.4525,-1.32845 c 0.65516,-0.65506 0.19303,-1.63503 -0.77097,-1.63503 -0.49285,0 -0.79802,0.29561 -0.79802,0.77292 0,1.29742 0.73166,1.69946 1.56899,0.86211 z m 5.91453,-0.68621 c 0.23049,-0.69232 -1.0905,-1.18653 -1.65715,-0.61994 -0.24249,0.24246 -0.30683,0.65762 -0.14313,0.92251 0.37257,0.60274 1.56558,0.4022 1.80028,-0.30257 z m -0.85274,-3.701 c 1.35452,-1.3544 1.46605,-1.6465 1.24868,-3.26739 -0.27908,-2.08128 -2.19972,-4.09884 -3.90187,-4.09884 -4.63266,0 -6.22984,6.05101 -2.18948,8.2949 1.73077,0.96119 3.24277,0.67123 4.84267,-0.92867 z m -4.38991,0.22872 c -2.07411,-0.85612 -2.48949,-4.05541 -0.70847,-5.45636 0.61095,-0.48059 1.53398,-0.87378 2.05108,-0.87378 1.59412,0 3.16207,1.55991 3.16207,3.14589 0,2.46085 -2.30679,4.09146 -4.50468,3.18425 z m 3.2398,-1.27095 c 1.17672,-1.17661 1.0673,-2.7137 -0.26761,-3.76381 -0.61095,-0.48058 -1.37842,-0.87379 -1.70556,-0.87379 -0.89301,0 -2.66431,1.94921 -2.66431,2.93204 0,1.18529 1.46596,2.54876 2.74029,2.54876 0.5797,0 1.43348,-0.37943 1.89719,-0.8432 z m 5.71668,1.64595 c 0.15705,-0.25414 0.0263,-0.72158 -0.29134,-1.03876 -0.73131,-0.73113 -1.85411,-0.11077 -1.49476,0.82586 0.29624,0.77216 1.36196,0.89918 1.7861,0.2129 z m -13.16475,-0.56112 c 0.32137,-0.83778 -0.87059,-1.78835 -1.47935,-1.17963 -0.58214,0.58218 -0.14602,1.78121 0.64798,1.78121 0.33029,0 0.70435,-0.27071 0.83137,-0.60158 z m 13.16475,-4.9197 c 0.4455,-0.72089 -0.96024,-1.93338 -1.55359,-1.34001 -0.26437,0.26433 -0.36644,0.77791 -0.22708,1.14133 0.29177,0.76037 1.35986,0.87955 1.78067,0.19868 z m -13.30542,-0.80274 c 0,-0.56212 -0.2811,-0.8432 -0.8432,-0.8432 -0.5621,0 -0.84319,0.28108 -0.84319,0.8432 0,0.56213 0.28109,0.8432 0.84319,0.8432 0.5621,0 0.8432,-0.28107 0.8432,-0.8432 z m 9.27521,-3.64193 c 0,-0.79395 -1.19904,-1.23008 -1.78119,-0.64793 -0.33196,0.3319 -0.31541,0.63358 0.0595,1.08493 0.60228,0.72569 1.72201,0.44151 1.72201,-0.437 z m -5.48084,-0.15246 c 0,-0.56214 -0.28101,-0.84322 -0.84311,-0.84322 -0.5621,0 -0.84319,0.28108 -0.84319,0.84322 0,0.56212 0.28109,0.84319 0.84319,0.84319 0.5621,0 0.84311,-0.28107 0.84311,-0.84319 z m -13.20318,8.35294 c -0.13464,-0.33632 -0.23443,-0.23642 -0.25474,0.25472 -0.0184,0.44444 0.0814,0.69345 0.22139,0.55335 0.14015,-0.14009 0.15512,-0.50372 0.0333,-0.80807 z m -0.009,-4.24236 c -0.11696,-0.28985 -0.21264,-0.0527 -0.21264,0.52701 0,0.5797 0.0957,0.81686 0.21264,0.52699 0.11695,-0.28985 0.11695,-0.76412 0,-1.054 z m 7.79595,-10.88929 c 0.89222,-0.45515 2.61808,-1.11211 3.83534,-1.45991 1.81376,-0.51831 1.9252,-0.59715 0.61716,-0.43698 -3.485,0.42671 -8.48883,3.7385 -10.03551,6.64206 -0.28695,0.53874 0.48691,-0.12232 1.71966,-1.46905 1.23275,-1.34672 2.97131,-2.82097 3.86335,-3.27612 z m 10.15903,-1.93254 c -0.28985,-0.11694 -0.76423,-0.11694 -1.05399,0 -0.28994,0.11696 -0.0525,0.21266 0.52699,0.21266 0.5797,0 0.81676,-0.0957 0.527,-0.21266 z m -2.52958,-0.4216 c -0.28985,-0.11694 -0.76415,-0.11694 -1.05408,0 -0.28976,0.11696 -0.0525,0.21267 0.52708,0.21267 0.57961,0 0.81685,-0.0957 0.527,-0.21267 z m -87.79831,26.41844 v -1.6864 h -35.83606 -35.83598 v 1.6864 1.6864 h 35.83598 35.83606 z m -2.95116,-2.9512 c 0,-0.27742 -11.10212,-0.4216 -32.46323,-0.4216 -21.36111,0 -32.46323,0.14418 -32.46323,0.4216 0,0.27743 11.10212,0.4216 32.46323,0.4216 21.36111,0 32.46323,-0.14417 32.46323,-0.4216 z m -544.39132,-0.7378 c 0.13952,-0.41856 -6.51141,-0.527 -32.32273,-0.527 -28.66586,0 -32.49832,0.0748 -32.49832,0.63501 0,0.56104 3.76544,0.62245 32.32272,0.52702 25.40608,-0.0849 32.36027,-0.22081 32.49833,-0.63503 z m 22.17405,-5.02046 c 0.15185,-3.16706 0.2784,-7.1986 0.28113,-8.95901 0.01,-6.19506 2.29687,-11.65936 6.71169,-16.03483 1.58942,-1.57527 3.87401,-3.30937 5.30925,-4.02992 l 2.51929,-1.26481 12.34123,-0.12342 12.34123,-0.12345 3.04719,1.59474 c 4.19442,2.19514 8.16502,6.21615 10.14828,10.27728 2.43517,4.9863 2.80648,7.11378 2.80648,16.07826 v 7.92182 h 9.2752 9.27525 v -24.87442 -24.87441 h -46.16524 -46.16523 v 25.08521 25.08522 h 8.99906 8.99899 z m -14.73764,3.46903 c -0.41979,-1.09392 0.16855,-1.99804 1.20448,-1.85094 0.69679,0.0989 0.95047,0.41629 0.95047,1.18897 0,0.77268 -0.25368,1.09003 -0.95047,1.18897 -0.57012,0.081 -1.05211,-0.12994 -1.20448,-0.527 z m 80.51428,-0.45117 c -0.3744,-0.9757 0.15226,-1.8972 1.08428,-1.8972 1.07452,0 1.86812,1.36409 1.18884,2.04341 -0.68707,0.68704 -1.98541,0.60353 -2.27312,-0.14621 z m -82.36449,-43.00323 c 0,-2.26063 0.0292,-2.31755 1.1594,-2.26893 0.63762,0.0275 1.72855,0.19471 2.42417,0.37173 l 1.26483,0.32184 -1.1594,0.0499 c -1.08568,0.0467 -1.1594,0.17059 -1.1594,1.9471 0,1.82692 -0.0471,1.8972 -1.26483,1.8972 -1.25202,0 -1.26477,-0.0235 -1.26477,-2.3188 z m 83.47682,-0.4216 c 0,-2.26063 0.0291,-2.31755 1.1594,-2.26893 0.63768,0.0274 1.7286,0.19471 2.42422,0.37172 l 1.26483,0.32185 -1.15946,0.0498 c -1.08562,0.0467 -1.15934,0.17059 -1.15934,1.9471 0,1.82693 -0.0471,1.8972 -1.26483,1.8972 -1.25202,0 -1.26482,-0.0235 -1.26482,-2.3188 z m 76.30968,45.53284 c 0,-0.55667 -3.8881,-0.63241 -32.46324,-0.63241 -19.89708,0 -32.46318,0.15286 -32.46318,0.39488 0,0.21719 0.61655,0.47141 1.37019,0.56494 0.75358,0.0935 15.36206,0.2004 32.46318,0.2375 27.38718,0.0594 31.09305,-0.008 31.09305,-0.56491 z m 59.024,-24.45283 v -25.08521 h -27.61479 -27.61485 v 22.97721 22.97722 h 2.3188 c 2.19237,0 2.31886,0.0574 2.31886,1.054 0,0.9965 -0.12649,1.054 -2.31886,1.054 -2.19231,0 -2.3188,0.0574 -2.3188,1.054 v 1.054 h 27.61485 27.61479 z m -49.67316,22.43598 c -0.66194,-0.79763 0.33052,-2.13435 1.42784,-1.92304 1.1757,0.22643 1.12171,2.20969 -0.0648,2.37922 -0.48408,0.0692 -1.09743,-0.13613 -1.36309,-0.45618 z m 44.4044,-0.29819 c -0.33734,-1.06282 0.0437,-1.69017 1.02605,-1.69017 1.18465,0 1.94236,1.11302 1.29153,1.8972 -0.7438,0.89626 -2.00316,0.78375 -2.31758,-0.20703 z m -48.27446,-43.2178 c 0,-2.26063 0.0291,-2.31755 1.1594,-2.26893 0.63767,0.0274 1.7286,0.19471 2.42422,0.37172 l 1.26477,0.32185 -1.1594,0.0498 c -1.08562,0.0467 -1.1594,0.17059 -1.1594,1.9471 0,1.82693 -0.0471,1.8972 -1.26477,1.8972 -1.25202,0 -1.26482,-0.0235 -1.26482,-2.3188 z m 158.52172,38.34784 c 0,-8.97844 0.58709,-12.72366 2.66781,-17.01884 1.85265,-3.82451 5.82464,-7.94654 9.41348,-9.76911 l 2.83845,-1.44149 12.33404,-0.12328 12.33405,-0.12331 2.23469,1.12699 c 5.99106,3.02131 10.08806,7.81874 12.65087,14.81355 0.775,2.11504 0.91644,3.61189 1.07695,11.39578 l 0.1848,8.9609 44.96385,-0.10729 44.96386,-0.10731 0.10882,-24.97983 0.10867,-24.9798 h -84.32312 -84.32345 v 25.08521 25.08522 h 11.38328 11.3832 z m 65.35248,5.50396 c -0.73919,-0.89065 -0.21196,-1.90257 0.99125,-1.90257 1.17409,0 1.77543,1.09824 1.06799,1.95064 -0.6253,0.75344 -1.40918,0.73515 -2.05924,-0.0481 z m 7.58878,0 c -0.73912,-0.89065 -0.21197,-1.90257 0.99124,-1.90257 1.1741,0 1.77543,1.09824 1.068,1.95064 -0.62531,0.75344 -1.40918,0.73515 -2.05924,-0.0481 z m 67.91754,-0.37354 c -0.69287,-0.83483 -0.11528,-1.95063 1.0097,-1.95063 0.53003,0 1.08216,0.30863 1.22695,0.68583 0.29525,0.7695 -0.41965,1.84377 -1.22695,1.84377 -0.29106,0 -0.74534,-0.26053 -1.0097,-0.57897 z m -51.90116,-3.00463 c 0,-1.00716 0.1124,-1.054 2.52964,-1.054 2.41716,0 2.52957,0.0468 2.52957,1.054 0,1.00715 -0.11241,1.054 -2.52957,1.054 -2.41724,0 -2.52964,-0.0468 -2.52964,-1.054 z m 7.67308,0.12647 c -0.30663,-0.30661 -0.5059,-1.79551 -0.5059,-3.77957 0,-2.85091 0.10983,-3.33239 0.85004,-3.72855 0.56747,-0.30371 4.84677,-0.41374 12.87458,-0.33103 10.13663,0.10443 12.08736,0.22317 12.42403,0.75626 0.58429,0.92536 0.5108,6.47833 -0.0937,7.08289 -0.72238,0.72239 -24.82666,0.72239 -25.54903,0 z m 12.56375,-0.32738 -12.01567,-0.2207 v -2.95119 -2.9512 h 12.22647 12.22639 l 0.24349,2.74039 0.24334,2.74041 0.0724,-2.5507 c 0.0428,-1.51592 -0.13249,-2.75591 -0.43312,-3.05658 -0.36998,-0.36999 -3.75628,-0.50594 -12.60291,-0.50594 -10.64198,0 -12.12776,0.0802 -12.35288,0.6669 -0.45203,1.17785 -0.27292,5.47149 0.25003,5.99439 0.37411,0.37414 3.58627,0.48106 12.33179,0.41043 l 11.82589,-0.0955 z m 6.24413,-0.7465 c -3.17434,-0.0715 -8.48645,-0.0717 -11.80487,0 -3.31827,0.0713 -0.72113,0.12983 5.77154,0.13004 6.4926,0 9.20766,-0.0581 6.03333,-0.12966 z m 0,-1.68641 c -3.17434,-0.0715 -8.48645,-0.0717 -11.80487,0 -3.31827,0.0713 -0.72113,0.12985 5.77154,0.13006 6.4926,0 9.20766,-0.0581 6.03333,-0.12967 z m 0,-1.6864 c -3.17434,-0.0715 -8.48645,-0.0717 -11.80487,0 -3.31827,0.0713 -0.72113,0.12984 5.77154,0.13005 6.4926,0 9.20766,-0.0581 6.03333,-0.12966 z m 0,-0.84319 c -3.17434,-0.0715 -8.48645,-0.0717 -11.80487,0 -3.31827,0.0713 -0.72113,0.12984 5.77154,0.13005 6.4926,0 9.20766,-0.0581 6.03333,-0.12968 z m 25.88648,-2.5308 c 0.11435,-3.46173 0.1802,-3.6973 1.07041,-3.82372 0.92391,-0.13122 0.94859,-0.0352 0.94859,3.68899 0,3.81321 0,3.82374 -1.07041,3.82374 h -1.07041 z m 1.5974,0.1054 c 0,-1.82693 -0.17802,-3.162 -0.42159,-3.162 -0.24365,0 -0.4216,1.33507 -0.4216,3.162 0,1.82692 0.17795,3.16201 0.4216,3.16201 0.24357,0 0.42159,-1.33509 0.42159,-3.16201 z M 546.60913,128.67971 c -0.15833,-0.1583 -0.28786,-2.05853 -0.28786,-4.22275 v -3.93493 h 2.95123 c 1.68638,0 2.95124,0.18068 2.95124,0.4216 0,0.23187 0.28452,0.42159 0.63232,0.42159 0.50948,0 0.63247,0.65583 0.63247,3.37281 0,2.71698 0.12291,3.3728 0.63239,3.3728 0.51524,0 0.63239,-0.70267 0.63239,-3.7944 v -3.7944 h 1.71479 c 1.58253,0 1.69268,0.0732 1.42708,0.94859 -0.44463,1.46574 -0.43662,1.67337 0.0716,1.86175 0.2603,0.0964 0.57432,-0.21091 0.69778,-0.68298 0.28685,-1.09677 1.39859,-1.52905 2.20706,-0.85811 0.94649,0.78549 0.80575,1.1219 -1.48095,3.53972 -1.15938,1.2259 -2.10805,2.35287 -2.10805,2.50437 0,0.15151 1.13837,0.27546 2.52965,0.27546 1.40528,0 2.52964,-0.18737 2.52964,-0.4216 0,-0.23188 -0.70261,-0.4216 -1.56121,-0.4216 h -1.5612 l 1.5612,-1.59877 c 1.64279,-1.68238 2.07489,-3.62128 1.03811,-4.65808 -0.41638,-0.41638 0.29315,-0.49808 3.47815,-0.40052 l 4.00133,0.12256 v 4.00521 4.0052 l -11.20081,0.11214 c -6.16045,0.0616 -11.33027,-0.0174 -11.4886,-0.17566 z m 23.32181,-1.77217 c 0,-1.42813 0.11481,-1.63894 0.79554,-1.46092 1.22711,0.32089 1.50034,-0.65756 0.44036,-1.57685 -0.52217,-0.45292 -0.81392,-0.95908 -0.64819,-1.12481 0.16572,-0.16572 0.4704,-0.0277 0.67707,0.30667 0.20667,0.33439 0.4999,0.48381 0.6517,0.33204 0.40268,-0.40269 -0.1806,-1.17524 -0.88741,-1.17524 -0.3341,0 -0.60748,-0.18973 -0.60748,-0.4216 0,-0.23189 0.28451,-0.42161 0.63239,-0.42161 0.3478,0 0.63239,0.18972 0.63239,0.42161 0,0.23187 0.25556,0.4216 0.56786,0.4216 0.31239,0 0.98689,0.36335 1.49894,0.80744 0.78185,0.6781 0.91036,1.16765 0.80232,3.05659 l -0.12867,2.24918 -2.21345,0.12743 -2.21337,0.12742 z m 4.15281,-0.79932 c -0.039,-1.23702 -0.13031,-1.55936 -0.23882,-0.84319 -0.0988,0.6521 -0.44355,1.1594 -0.78808,1.1594 -0.44066,0 -0.55034,-0.32511 -0.391,-1.1594 0.12175,-0.63767 0.0968,-0.87482 -0.0552,-0.527 -0.1521,0.34783 -0.46862,0.75747 -0.7033,0.91034 -0.26474,0.17241 -0.16076,0.54399 0.274,0.97871 0.3854,0.38543 0.70074,0.87696 0.70074,1.09227 0,0.21531 0.28466,0.39148 0.63246,0.39148 0.48224,0 0.61738,-0.4755 0.56918,-2.00261 z m -20.02627,-1.79179 c 0,-1.97097 0.0724,-2.77729 0.16128,-1.79181 0.0888,0.9855 0.0888,2.59812 0,3.5836 -0.0887,0.9855 -0.16128,0.17919 -0.16128,-1.79179 z m 153.31514,-1.6864 c 0,-2.02877 0.0436,-2.10642 1.15938,-2.06598 0.63768,0.0231 1.63368,0.19393 2.21345,0.37958 1.01117,0.32382 1.01537,0.33926 0.10532,0.37958 -0.81859,0.0362 -0.94859,0.27308 -0.94859,1.72842 0,1.5927 -0.07,1.6864 -1.26478,1.6864 -1.23668,0 -1.26478,-0.0468 -1.26478,-2.108 z m -132.38247,0.45001 c 0,-0.21625 -0.42689,-0.5264 -0.94867,-0.68923 -0.92547,-0.28882 -1.56144,-0.91599 -1.57452,-1.55259 -0.008,-0.17391 0.65762,-0.31619 1.4692,-0.31619 1.40529,0 1.47558,0.0703 1.47558,1.4756 0,0.81159 -0.0949,1.47561 -0.21088,1.47561 -0.11582,0 -0.21071,-0.17695 -0.21071,-0.3932 z m 271.17255,37.1778 c 0.14759,-8.73734 0.21019,-9.32814 1.32765,-12.52724 2.0657,-5.91348 6.28823,-10.71375 11.65842,-13.25322 2.29883,-1.08713 2.41928,-1.09766 14.0321,-1.22646 l 11.71341,-0.12993 2.30898,1.05714 c 4.81912,2.20619 9.24317,6.53071 11.69257,11.42911 2.18073,4.36128 2.51084,6.21119 2.72759,15.28815 l 0.20415,8.54257 15.44516,-0.11056 15.4452,-0.11054 0.1087,-24.76903 0.1088,-24.769 h -72.94014 -72.94027 v 24.87441 24.87442 h 29.47641 29.47641 z m -56.11207,6.48285 c -0.69287,-0.83483 -0.11536,-1.95063 1.00962,-1.95063 0.53011,0 1.08216,0.30863 1.22695,0.68583 0.29526,0.7695 -0.41965,1.84377 -1.22695,1.84377 -0.29105,0 -0.74534,-0.26053 -1.00962,-0.57897 z m 43.12267,-0.0239 c -0.41976,-1.09392 0.1686,-1.99803 1.20447,-1.85094 0.69683,0.0989 0.95052,0.4163 0.95052,1.18898 0,0.77267 -0.25369,1.09002 -0.95052,1.18896 -0.57006,0.081 -1.05215,-0.12994 -1.20447,-0.527 z m 7.25197,-0.083 c -0.29527,-0.7695 0.41959,-1.84376 1.22698,-1.84376 0.80738,0 1.52233,1.07426 1.22697,1.84376 -0.14471,0.37722 -0.69683,0.68583 -1.22697,0.68583 -0.53006,0 -1.08227,-0.30861 -1.22698,-0.68583 z m 86.76486,0.083 c -0.4197,-1.09392 0.1686,-1.99803 1.2045,-1.85094 0.6968,0.0989 0.9505,0.4163 0.9505,1.18898 0,0.77267 -0.2537,1.09002 -0.9505,1.18896 -0.5701,0.081 -1.0521,-0.12994 -1.2045,-0.527 z M 790.00618,155.93646 c 0,-3.7663 0.008,-3.79441 1.05407,-3.79441 1.0462,0 1.05398,0.0281 1.05398,3.79441 0,3.7663 -0.008,3.7944 -1.05398,3.7944 -1.0462,0 -1.05407,-0.0281 -1.05407,-3.7944 z m 1.68646,0 c 0,-1.96747 -0.17569,-3.3728 -0.4216,-3.3728 -0.2459,0 -0.42159,1.40533 -0.42159,3.3728 0,1.96747 0.17569,3.3728 0.42159,3.3728 0.24591,0 0.4216,-1.40533 0.4216,-3.3728 z m 10.06821,-10.07428 c -0.84833,-0.68688 -0.92773,-0.96805 -0.56591,-2.0026 0.75242,-2.15186 3.98887,-1.74263 3.98887,0.50438 0,1.06715 -1.00697,2.29729 -1.88051,2.29729 -0.30561,0 -0.99973,-0.35959 -1.54245,-0.79907 z m -1.63617,-8.89773 v -3.37281 h 1.89718 1.89725 v 3.37281 3.3728 h -1.89725 -1.89718 z m 0.96096,1.66967 c -0.12369,-0.47296 -0.31907,-0.76572 -0.4342,-0.65058 -0.22808,0.22808 0.17476,1.5105 0.47453,1.5105 0.1015,0 0.0833,-0.38697 -0.0404,-0.85992 z m 2.33037,-0.20524 c -0.12976,-0.1298 -0.36555,0.10419 -0.52388,0.51998 -0.22878,0.60086 -0.18036,0.64929 0.2361,0.23602 0.28809,-0.286 0.41762,-0.62619 0.28778,-0.756 z m -0.76176,-0.79756 c 0,-0.097 0.11513,-0.47641 0.25594,-0.84319 0.19297,-0.50302 -0.014,-0.6669 -0.84326,-0.6669 -1.1945,0 -1.22174,0.0329 -0.84319,1.01952 0.22014,0.57365 1.43051,0.98872 1.43051,0.49057 z m 0.42159,-2.56409 c 0,-0.34781 -0.1897,-0.63239 -0.42159,-0.63239 -0.2319,0 -0.4216,0.28458 -0.4216,0.63239 0,0.34784 0.1897,0.63242 0.4216,0.63242 0.23189,0 0.42159,-0.28458 0.42159,-0.63242 z m -14.75596,-10.75079 c 0,-2.73055 0.067,-2.95121 0.89831,-2.95121 0.77951,0 0.86872,0.1827 0.67427,1.38099 -0.12922,0.79615 0,1.68885 0.30747,2.10799 0.6545,0.89494 1.07111,0.93174 1.07111,0.0946 0,-0.34782 -0.23718,-0.58497 -0.52699,-0.52701 -0.28988,0.0579 -0.508,-0.13176 -0.48488,-0.4216 0.0234,-0.28985 0.0708,-1.0013 0.10548,-1.581 0.0452,-0.75185 0.30491,-1.054 0.90639,-1.054 0.76286,0 0.84319,0.28108 0.84319,2.95121 v 2.9512 h -1.89717 -1.89718 z m 137.86335,-1.2648 c 0,-2.02877 0.044,-2.10642 1.1593,-2.06597 0.6377,0.0231 1.6336,0.19392 2.2134,0.37956 1.0111,0.32383 1.0155,0.33926 0.1053,0.37958 -0.8186,0.0362 -0.9485,0.27309 -0.9485,1.72843 0,1.5927 -0.07,1.68639 -1.2648,1.68639 -1.2366,0 -1.2647,-0.0468 -1.2647,-2.10799 z m 32.5686,46.0599 c -14.4775,-0.0727 -22.4502,-0.26127 -22.4502,-0.53077 0,-0.26428 3.6419,-0.41791 9.9075,-0.41791 h 9.9077 v -1.89719 -1.89721 l -10.2239,-0.0975 -10.2238,-0.0975 10.2238,-0.12075 10.2239,-0.12075 v -5.05172 -5.05169 l -10.2239,-0.0976 -10.2238,-0.0976 10.2238,-0.12075 10.2239,-0.12075 V 111.87173 70.351593 h -10.3293 -10.3292 v 49.538047 49.53803 l 22.8719,-0.10163 22.8718,-0.10163 z m -22.8719,-8.12516 v -1.27407 l 4.3977,0.0509 c 3.5861,0.0415 4.4448,0.17374 4.653,0.71652 0.1405,0.3661 -0.026,0.94765 -0.3712,1.29236 -0.5149,0.51493 -0.7433,0.52998 -1.2804,0.0843 -0.4421,-0.36696 -0.6535,-0.38932 -0.6535,-0.0692 0,0.31046 -1.1601,0.47323 -3.3728,0.47323 h -3.3728 z m 6.3239,0.009 c 0,-0.75671 -0.281,-0.84319 -2.7403,-0.84319 -2.4593,0 -2.7403,0.0865 -2.7403,0.84319 0,0.75672 0.281,0.84321 2.7403,0.84321 2.4593,0 2.7403,-0.0865 2.7403,-0.84321 z m -5.9022,-48.90565 V 72.459637 h 9.6967 9.6968 v 39.630433 39.63042 h -9.6968 -9.6967 z m 18.5503,28.96592 v -9.8213 l -8.8536,-6.00527 -8.8535,-6.00526 v 15.82655 15.82657 h 8.8535 8.8536 z m 0,-40.34914 V 72.881232 h -8.8536 -8.8535 v 21.899757 21.899771 l 8.7273,5.92586 c 4.8001,3.25922 8.7842,5.92586 8.8537,5.92586 0.069,0 0.1261,-12.52153 0.1261,-27.82562 z m 46.87887,66.81695 c 0.7669,-0.16232 1.8214,-0.68717 2.3431,-1.16631 0.9128,-0.83823 0.9487,-1.14359 0.9487,-8.07427 0,-6.41994 -0.081,-7.24852 -0.7378,-7.62071 -0.442,-0.25011 -4.247,-0.36869 -9.48617,-0.29563 l -8.7482,0.122 v 9.38543 9.38543 l 7.1429,-0.72039 c 3.9286,-0.39622 7.77057,-0.85321 8.53747,-1.01555 z M 169.83224,143.92079 V 119.25717 H 150.43483 131.0374 l 0.10914,21.81782 0.10922,21.81782 18.55047,2.7932 c 10.20274,1.53627 18.88244,2.81687 19.28826,2.8458 0.69481,0.0495 0.73775,-1.38289 0.73775,-24.61102 z m -5.26877,22.5594 c -0.33734,-1.06283 0.0437,-1.69018 1.02605,-1.69018 1.18466,0 1.94237,1.11303 1.29154,1.8972 -0.7438,0.89624 -2.00317,0.78375 -2.31759,-0.20702 z m -31.24671,-5.66581 c -0.41972,-1.09392 0.16861,-1.99805 1.20456,-1.85094 0.69679,0.099 0.95046,0.41629 0.95046,1.18897 0,0.77267 -0.25367,1.09002 -0.95046,1.18896 -0.57014,0.081 -1.05218,-0.12994 -1.20456,-0.52699 z m 28.50511,-29.5416 v -2.31883 l 1.3702,0.0498 c 0.75363,0.0274 1.93939,0.19472 2.63501,0.37172 l 1.26477,0.32185 -1.1594,0.0498 c -1.08562,0.0468 -1.1594,0.17057 -1.1594,1.94708 0,1.88717 -0.008,1.8972 -1.47557,1.8972 h -1.47561 z M 783.2606,166.4764 v -1.68639 h -32.46315 -32.46323 v 1.68639 1.68641 h 32.46323 32.46315 z M 957.69773,92.801748 c -0.061,-13.854832 -0.112,-2.519058 -0.112,25.190632 0,27.70968 0.051,39.04546 0.112,25.1906 0.061,-13.85483 0.061,-36.52638 0,-50.381232 z m 3.8999,25.190632 c 0,-33.165901 -0.143,-50.170439 -0.4216,-50.170439 -0.2787,0 -0.4216,17.004538 -0.4216,50.170439 0,33.16589 0.1429,50.17043 0.4216,50.17043 0.2786,0 0.4216,-17.00454 0.4216,-50.17043 z m 19.3936,48.06244 v -2.10801 h -9.2752 -9.2752 v 2.10801 2.10799 h 9.2752 9.2752 z m -742.09766,-0.10542 -0.12963,-1.7918 -32.35782,-0.0975 -32.35787,-0.0975 v 1.88931 1.88929 h 32.4875 32.48745 z M 404.242,165.8549 v -1.88623 h -32.46318 -32.46324 v 1.88664 1.88669 h 32.46324 32.46318 z m 61.02664,-92.025202 c -0.061,-16.869287 -0.11096,-3.06714 -0.11096,30.671432 0,33.73855 0.0501,47.54069 0.11096,30.67141 0.0609,-16.86928 0.0609,-44.473559 0,-61.342842 z m 1.79184,30.460632 c 0,-53.171361 -0.0756,-60.459187 -0.63244,-60.921248 -0.56163,-0.466121 -0.63238,6.350293 -0.63238,60.921248 0,54.57094 0.0707,61.38736 0.63238,60.92124 0.55674,-0.46206 0.63244,-7.74988 0.63244,-60.92124 z m 1.68636,0.15917 c 0,-54.337684 -0.0707,-61.124939 -0.63238,-60.658817 -0.55669,0.462032 -0.63239,7.722825 -0.63239,60.677737 0,58.51351 0.0495,61.16475 1.13834,61.16475 0.0695,0 0.12643,-27.53265 0.12643,-61.18367 z m 1.68642,-0.15917 c 0,-53.171361 -0.0756,-60.459187 -0.63239,-60.921248 -0.56164,-0.466121 -0.63238,6.350293 -0.63238,60.921248 0,54.57094 0.0707,61.38736 0.63238,60.92124 0.55674,-0.46206 0.63239,-7.74988 0.63239,-60.92124 z m 1.68641,0.15917 c 0,-54.337684 -0.0707,-61.124939 -0.63238,-60.658817 -0.55676,0.462032 -0.63245,7.722825 -0.63245,60.677737 0,58.51351 0.0495,61.16475 1.13834,61.16475 0.0696,0 0.12649,-27.53265 0.12649,-61.18367 z m 1.68641,-0.15917 c 0,-53.171361 -0.0756,-60.459187 -0.63244,-60.921248 -0.56163,-0.466121 -0.63238,6.350293 -0.63238,60.921248 0,54.57094 0.0707,61.38736 0.63238,60.92124 0.55681,-0.46206 0.63244,-7.74988 0.63244,-60.92124 z m 1.68636,0.15917 c 0,-54.337684 -0.0707,-61.124939 -0.63238,-60.658817 -0.55669,0.462032 -0.63239,7.722825 -0.63239,60.677737 0,58.51351 0.0495,61.16475 1.13834,61.16475 0.0695,0 0.12643,-27.53265 0.12643,-61.18367 z m 1.68642,-0.15917 c 0,-53.171361 -0.0756,-60.459187 -0.63239,-60.921248 -0.56164,-0.466121 -0.63238,6.350293 -0.63238,60.921248 0,54.57094 0.0707,61.38736 0.63238,60.92124 0.55675,-0.46206 0.63239,-7.74988 0.63239,-60.92124 z m 1.68641,0.15917 c 0,-54.337684 -0.0707,-61.124939 -0.63239,-60.658817 -0.55674,0.462032 -0.63244,7.722825 -0.63244,60.677737 0,58.51351 0.0495,61.16475 1.13834,61.16475 0.0696,0 0.12649,-27.53265 0.12649,-61.18367 z m 3.37283,0 c 0,-54.337684 -0.0708,-61.124939 -0.63244,-60.658817 -0.55669,0.462032 -0.63239,7.722825 -0.63239,60.677737 0,58.51351 0.0495,61.16475 1.13834,61.16475 0.0695,0 0.12649,-27.53265 0.12649,-61.18367 z m 1.68392,-10.7858 c -0.005,-56.35062 -0.11323,-70.984791 -0.52836,-70.846629 -0.76876,0.25586 -0.97107,18.702785 -0.21516,19.618889 0.42624,0.516636 0.42793,0.68473 0.008,0.826014 -0.41833,0.140808 -0.52702,12.782734 -0.52702,61.325906 0,54.36458 0.0704,61.09018 0.63379,60.62256 0.55936,-0.46425 0.63313,-8.85973 0.6286,-71.54674 z m 5.06168,10.80229 c 0,-48.746358 -0.10706,-61.131515 -0.52702,-60.991516 -0.41768,0.139219 -0.54917,12.756552 -0.63384,60.825196 -0.10518,59.73012 -0.079,61.25756 1.05544,61.32705 0.0581,0.004 0.10542,-27.51879 0.10542,-61.16073 z m 1.26477,0.0351 c 0,-39.985689 -0.14365,-60.749492 -0.42159,-60.92124 -0.28033,-0.173262 -0.42159,20.240731 -0.42159,60.92124 0,40.68051 0.14126,61.09449 0.42159,60.92125 0.27794,-0.17177 0.42159,-20.93557 0.42159,-60.92125 z m 3.37283,0 c 0,-39.985689 -0.14371,-60.749492 -0.42165,-60.92124 -0.28032,-0.173262 -0.42159,20.240731 -0.42159,60.92124 0,40.68051 0.14127,61.09449 0.42159,60.92125 0.27794,-0.17177 0.42165,-20.93557 0.42165,-60.92125 z m 2.108,0.0133 c 0,-54.154621 -0.072,-61.091161 -0.63244,-60.876136 -0.55803,0.214146 -0.63238,7.339405 -0.63238,60.612896 0,58.72706 0.0495,61.38205 1.13833,61.38205 0.0695,0 0.12649,-27.50346 0.12649,-61.11881 z m 1.68636,-0.22402 c 0,-53.171357 -0.0756,-60.459189 -0.63238,-60.92125 -0.56164,-0.466122 -0.63238,6.350299 -0.63238,60.92125 0,54.57095 0.0707,61.38736 0.63238,60.92124 0.55674,-0.46206 0.63238,-7.74989 0.63238,-60.92124 z m 2.10556,-10.118409 c -0.005,-63.043453 -0.0792,-71.461249 -0.63378,-71.461249 -0.53952,0 -0.62854,1.432821 -0.62854,10.118395 0,7.588813 0.12648,10.118412 0.50589,10.118412 0.39349,0 0.39349,0.11242 0,0.505919 -0.38877,0.388792 -0.50589,14.524912 -0.50589,61.061772 0,33.30572 0.12648,60.68235 0.28107,60.83693 0.15453,0.15459 0.43975,0.28106 0.63379,0.28106 0.19397,0 0.35037,-32.15755 0.34746,-71.461239 z m 1.26727,10.118409 c 0,-40.126225 -0.14371,-60.96029 -0.42159,-61.13205 -0.28032,-0.173261 -0.42159,20.310986 -0.42159,61.13205 0,40.82103 0.14127,61.30529 0.42159,61.13205 0.27788,-0.17178 0.42159,-21.00585 0.42159,-61.13205 z m 9.2752,-0.029 c 0,-52.770866 -0.0756,-60.008661 -0.63239,-60.47068 -0.56163,-0.466141 -0.63093,6.331838 -0.619,60.76422 0.0116,53.98158 0.0872,61.19149 0.63238,60.47068 0.53755,-0.71067 0.61901,-8.70881 0.61901,-60.76422 z m 1.26482,0.21488 c 0,-40.663931 -0.14126,-61.069621 -0.42164,-60.896361 -0.47576,0.294041 -0.6154,121.297331 -0.14052,121.772211 0.15459,0.15459 0.34432,0.28108 0.42159,0.28108 0.0773,0 0.14057,-27.52064 0.14057,-61.15693 z m 5.48077,-0.21488 c 0,-52.770866 -0.0756,-60.008661 -0.63238,-60.47068 -0.56163,-0.466141 -0.63092,6.331838 -0.619,60.76422 0.0116,53.98158 0.0872,61.19149 0.63239,60.47068 0.53757,-0.71067 0.61899,-8.70881 0.61899,-60.76422 z m 5.05921,-0.0227 c 0,-54.525052 -0.0708,-61.335736 -0.63239,-60.869614 -0.55673,0.462072 -0.6324,7.771227 -0.6324,61.113394 0,33.3237 0.1265,60.71503 0.2811,60.86961 0.15459,0.15459 0.43918,0.28108 0.63239,0.28108 0.1932,0 0.3513,-27.62752 0.3513,-61.39447 z m 1.68637,0.26243 c 0,-52.983975 -0.0755,-60.248412 -0.63239,-60.710444 -0.56163,-0.466121 -0.63239,6.326875 -0.63239,60.710444 0,54.38356 0.0708,61.17655 0.63239,60.71043 0.55681,-0.46204 0.63239,-7.72646 0.63239,-60.71043 z m 1.26487,-0.025 c 0,-40.663929 -0.14129,-61.06962 -0.42168,-60.896359 -0.47577,0.294042 -0.61534,121.297329 -0.1405,121.772209 0.15459,0.15459 0.34429,0.28107 0.42159,0.28107 0.077,0 0.14059,-27.52062 0.14059,-61.15692 z m 3.37275,0 c 0,-40.663929 -0.14128,-61.06962 -0.42159,-60.896359 -0.47578,0.294042 -0.61543,121.297329 -0.14051,121.772209 0.15452,0.15459 0.3443,0.28107 0.4216,0.28107 0.077,0 0.1405,-27.52062 0.1405,-61.15692 z m 3.37283,-0.23754 c 0,-54.525057 -0.0708,-61.335741 -0.63247,-60.86962 -0.55672,0.462051 -0.63239,7.746251 -0.63239,60.88854 0,58.72066 0.0498,61.37554 1.13837,61.37554 0.0693,0 0.12649,-27.62751 0.12649,-61.39446 z m 1.68638,0.0451 c 0,-53.302564 -0.0748,-60.431448 -0.63239,-60.645594 -0.56039,-0.215024 -0.63239,6.727251 -0.63239,60.927764 0,54.32592 0.0708,61.11171 0.63239,60.64559 0.55673,-0.46206 0.63239,-7.75061 0.63239,-60.92776 z m 1.45409,-60.865965 c -0.12929,-0.12934 -0.41162,0.04393 -0.62733,0.385039 -0.23711,0.374887 -0.39473,24.391978 -0.39871,60.719316 -0.008,47.52412 0.10385,60.2094 0.52062,60.62615 0.42159,0.4216 0.54832,-11.67522 0.63379,-60.48417 0.0592,-33.556163 0,-61.117001 -0.12837,-61.246335 z m 1.91874,61.276945 c 0,-32.995576 -0.11513,-60.292052 -0.25587,-60.658834 -0.14081,-0.366786 -0.42541,-0.666874 -0.63247,-0.666874 -0.2192,0 -0.37652,25.562433 -0.37652,61.183658 0,54.3377 0.0708,61.12495 0.63247,60.65883 0.55665,-0.46203 0.63239,-7.70495 0.63239,-60.51678 z m 1.68638,-0.24529 c 0,-54.337679 -0.0708,-61.124939 -0.63239,-60.658817 -0.55673,0.462032 -0.63239,7.722827 -0.63239,60.677737 0,58.51351 0.049,61.16475 1.13828,61.16475 0.0693,0 0.1265,-27.53265 0.1265,-61.18367 z m 3.79193,-10.311443 c -0.008,-56.726326 -0.11326,-71.459123 -0.52831,-71.320945 -0.75126,0.25006 -0.98393,20.13037 -0.23571,20.13037 0.39941,0 0.40105,0.11242 0.008,0.505919 -0.38883,0.388779 -0.5059,14.474938 -0.5059,60.836929 0,58.70335 0.049,61.34284 1.13968,61.34284 0.07,0 0.12556,-32.1728 0.12268,-71.495113 z m -61.55115,10.152273 c 0,-39.84515 -0.1437,-60.538699 -0.42158,-60.710448 -0.28039,-0.17326 -0.42165,20.17046 -0.42165,60.710448 0,40.53997 0.14126,60.88369 0.42165,60.71044 0.27788,-0.17175 0.42158,-20.8653 0.42158,-60.71044 z m 4.63114,-0.10541 c -0.005,-39.555337 -0.15022,-60.804137 -0.41513,-60.394237 -0.46348,0.717161 -0.60265,120.677717 -0.14056,121.139817 0.15458,0.15459 0.34432,0.28107 0.42164,0.28107 0.0772,0 0.1376,-27.46199 0.13405,-61.02665 z m 1.69288,0.10541 c 0,-39.84515 -0.14372,-60.538699 -0.42165,-60.710448 -0.28032,-0.17326 -0.42159,20.17046 -0.42159,60.710448 0,40.53997 0.14127,60.88369 0.42159,60.71044 0.27793,-0.17175 0.42165,-20.8653 0.42165,-60.71044 z M 491.93244,93.961 c -0.005,-46.337908 -0.14993,-71.250442 -0.41921,-71.250442 -0.46999,0 -0.61137,141.748932 -0.14184,142.218462 0.15534,0.15534 0.3463,0.28243 0.42432,0.28243 0.0781,0 0.13958,-32.06271 0.13673,-71.25045 z m 14.33683,0.421596 V 23.553871 h -2.3188 -2.3188 v 70.828851 70.828858 h 2.3188 2.3188 z m 1.67995,9.802204 c -0.005,-39.555328 -0.15023,-60.804128 -0.41513,-60.394227 -0.46348,0.717161 -0.60265,120.677717 -0.14051,121.139817 0.15454,0.15459 0.34427,0.28107 0.42159,0.28107 0.0773,0 0.1376,-27.462 0.13405,-61.02665 z m 5.06565,0.10541 c 0,-39.84515 -0.14365,-60.538699 -0.42159,-60.710448 -0.28032,-0.17326 -0.42159,20.17046 -0.42159,60.710448 0,40.53997 0.14127,60.88369 0.42159,60.71044 0.27794,-0.17175 0.42159,-20.8653 0.42159,-60.71044 z m 1.68642,-0.0249 c 0,-40.523401 -0.14127,-60.858826 -0.4216,-60.685564 -0.27794,0.171748 -0.42159,20.943853 -0.42159,60.946124 0,40.17596 0.14249,60.68555 0.42159,60.68555 0.2791,0 0.4216,-20.59644 0.4216,-60.94611 z m 3.37285,0 c 0,-40.523401 -0.14128,-60.858826 -0.42159,-60.685564 -0.47585,0.294042 -0.6155,120.875724 -0.14059,121.350604 0.1546,0.1546 0.3443,0.28107 0.4216,0.28107 0.077,0 0.14058,-27.42575 0.14058,-60.94611 z m 2.10797,0.0249 c 0,-52.796603 -0.0755,-60.037627 -0.63247,-60.499647 -0.56163,-0.466122 -0.63231,6.303451 -0.63231,60.499647 0,54.19617 0.0708,60.96577 0.63231,60.49964 0.55681,-0.46203 0.63247,-7.70304 0.63247,-60.49964 z m 6.32399,0 c 0,-39.84515 -0.14369,-60.538699 -0.42159,-60.710448 -0.28039,-0.17326 -0.42159,20.17046 -0.42159,60.710448 0,40.53997 0.1412,60.88369 0.42159,60.71044 0.2779,-0.17175 0.42159,-20.8653 0.42159,-60.71044 z m 3.37284,0.2108 c 0,-39.704623 -0.14378,-60.327916 -0.4216,-60.499646 -0.28039,-0.17325 -0.42159,20.100186 -0.42159,60.499646 0,40.39944 0.1412,60.67289 0.42159,60.49964 0.27782,-0.17175 0.4216,-20.79504 0.4216,-60.49964 z m 10.43601,0.12308 c 0.0943,-53.239062 0.0326,-60.367963 -0.52699,-60.832346 -0.56358,-0.467704 -0.63387,6.239259 -0.63387,60.481976 0,48.61901 0.10703,60.97232 0.52699,60.83234 0.4177,-0.13921 0.54918,-12.6879 0.63387,-60.48197 z m 3.89835,-0.11656 c 0,-52.989782 -0.0755,-60.254935 -0.6324,-60.716967 -0.56163,-0.466122 -0.63239,6.296236 -0.63239,60.434787 0,54.01314 0.0716,60.93198 0.63239,60.71696 0.55806,-0.21414 0.6324,-7.31961 0.6324,-60.43478 z m 202.36813,54.37993 v -5.05921 h -14.12364 -14.12357 v 5.05921 5.05919 h 14.12357 14.12364 z m -27.6911,2.69372 c -0.56451,-1.47114 0.13653,-1.75594 4.47189,-1.81677 l 4.24716,-0.0596 v 1.29064 1.29063 l -4.24716,-0.0595 c -3.19403,-0.0447 -4.30282,-0.20483 -4.47189,-0.64533 z m 8.08665,-0.58572 c 0,-0.4813 -0.62958,-0.6624 -2.63496,-0.75792 -2.4339,-0.11594 -2.63504,-0.058 -2.63504,0.75792 0,0.816 0.20114,0.87384 2.63504,0.75791 2.00538,-0.0955 2.63496,-0.27662 2.63496,-0.75791 z m 22.452,-45.21664 0.10727,-47.957029 h -1.26665 -1.26658 v 47.781359 c 0,26.27976 0.13444,47.91585 0.29884,48.08023 0.16432,0.16437 0.6861,0.24341 1.15946,0.17566 0.85977,-0.12307 0.86063,-0.16235 0.96766,-48.08022 z m 5.05929,0 0.10711,-47.957029 h -1.26657 -1.26658 v 48.090439 48.09044 l 1.15939,-0.13341 1.15938,-0.1334 z m 28.6804,43.00323 0.11871,-4.9538 h -14.13696 -14.13695 v 5.06489 5.06489 l 14.01817,-0.11109 14.01816,-0.11108 z m -9.18322,2.20676 v -1.30535 l 4.31643,0.12899 c 3.83304,0.11456 4.33341,0.21777 4.46823,0.92168 0.22863,1.19335 -0.50465,1.42009 -4.82895,1.49317 l -3.95571,0.0669 z m 5.90239,0.006 c 0,-0.75671 -0.28108,-0.8432 -2.74036,-0.8432 -2.45935,0 -2.74044,0.0865 -2.74044,0.8432 0,0.75672 0.28109,0.84321 2.74044,0.84321 2.45928,0 2.74036,-0.0865 2.74036,-0.84321 z m 201.10339,1.95915 c 0,-0.42336 -1.0488,-0.63303 -4.0671,-0.81311 -4.0567,-0.24201 -4.9621,-0.61946 -4.4827,-1.8687 0.1242,-0.32358 0.6282,-0.55694 1.1204,-0.51857 0.492,0.0383 2.3649,0.0488 4.162,0.0231 l 3.2674,-0.0467 v -2.9512 -2.9512 h -9.2752 -9.2752 v 4.84841 4.8484 h 9.2752 c 7.516,0 9.2752,-0.10819 9.2752,-0.57046 z m -778.69575,-4.69913 v -4.84841 h -14.12359 -14.12364 v 4.84841 4.8484 h 14.12364 14.12359 z m -27.42098,2.93076 c -0.23052,-0.27779 -0.30808,-0.79462 -0.17228,-1.14847 0.19648,-0.512 1.10209,-0.65383 4.43407,-0.69445 l 4.18721,-0.051 v 1.29549 1.29549 l -4.01493,-0.096 c -2.49456,-0.0596 -4.17359,-0.28722 -4.43407,-0.60105 z m 8.02736,-0.61196 c 0,-0.75671 -0.28108,-0.84321 -2.74039,-0.84321 -2.45931,0 -2.74039,0.0865 -2.74039,0.84321 0,0.75671 0.28108,0.84319 2.74039,0.84319 2.45931,0 2.74039,-0.0865 2.74039,-0.84319 z m 22.34481,-45.32194 V 67.40023 h -1.05398 -1.05397 v 47.85164 47.85163 h 1.05397 1.05398 z m 4.63765,0 c 0,-47.570579 -0.005,-47.851635 -0.84324,-47.851635 -0.83823,0 -0.84318,0.281056 -0.84318,47.851635 0,47.57056 0.005,47.85164 0.84318,47.85164 0.83823,0 0.84324,-0.28108 0.84324,-47.85164 z m 29.09041,46.746 c 0,-0.8311 -0.13085,-0.99962 -0.52701,-0.67871 -0.28987,0.23479 -2.37675,0.45537 -4.6376,0.49017 l -4.11058,0.0633 v -1.2987 -1.2987 l 4.11058,0.0633 c 2.26085,0.0348 4.34773,0.25537 4.6376,0.49017 0.421,0.34101 0.52701,-8.68016 0.52719,-44.84136 V 69.719118 l -14.12382,0.116388 -14.12376,0.116406 v 41.305838 41.30583 h 13.91279 c 8.99411,0 13.91279,0.14906 13.91279,0.4216 0,0.27255 -4.91868,0.4216 -13.91279,0.4216 h -13.91279 v 4.84841 4.84841 h 14.12359 14.12358 z m -25.81568,-21.12734 c -0.0621,-5.74257 -0.0628,-23.48431 0,-39.42608 l 0.11113,-28.98501 h 12.22283 12.22289 l -0.10758,39.31422 -0.10757,39.31423 -12.11363,0.11185 -12.11362,0.11186 z m 23.70767,-7.93634 c 0,-13.90096 -0.10891,-17.45735 -0.52701,-17.21188 -0.28986,0.17017 -5.50713,3.71971 -11.59399,7.88786 l -11.06704,7.57846 v 9.63343 9.63343 h 11.59405 11.59399 z m -6.65663,-15.71701 6.62376,-4.49491 0.0163,-19.920621 0.0163,-19.920607 h -11.594 -11.59404 v 27.812368 27.81238 l 4.95381,-3.39683 c 2.72467,-1.86827 7.93455,-5.41957 11.57763,-7.89178 z m 137.35272,41.03792 v -4.8484 h -14.12364 -14.12359 v 4.8484 4.84841 h 14.12359 14.12364 z m -27.46532,2.87733 c -0.99847,-1.20304 0.31756,-1.72606 4.50052,-1.78863 l 3.99276,-0.0597 v 1.29943 1.2994 l -4.01487,-0.096 c -2.71793,-0.065 -4.16463,-0.27639 -4.47841,-0.65449 z m 8.0717,-0.55853 c 0,-0.75671 -0.28108,-0.8432 -2.74039,-0.8432 -2.45937,0 -2.74039,0.0865 -2.74039,0.8432 0,0.75672 0.28102,0.8432 2.74039,0.8432 2.45931,0 2.74039,-0.0865 2.74039,-0.8432 z M 370.514,115.25169 V 67.40023 h -1.05398 -1.05403 v 47.85164 47.85163 h 1.05403 1.05398 z m 4.6376,0 c 0,-47.570579 -0.005,-47.851635 -0.84319,-47.851635 -0.83829,0 -0.84318,0.281056 -0.84318,47.851635 0,47.57056 0.005,47.85164 0.84318,47.85164 0.83823,0 0.84319,-0.28108 0.84319,-47.85164 z m 29.0904,0 V 67.40023 h -14.12358 c -13.84257,0 -14.12359,0.01676 -14.12359,0.843201 0,0.826166 0.28102,0.843203 13.91279,0.843203 8.99412,0 13.91279,0.149039 13.91279,0.4216 0,0.272544 -4.91867,0.4216 -13.91279,0.4216 h -13.91279 v 41.316836 41.31682 h 13.91279 c 8.99412,0 13.91279,0.14906 13.91279,0.4216 0,0.27255 -4.91867,0.4216 -13.91279,0.4216 h -13.91279 v 4.8484 4.84841 h 14.12359 14.12358 z m -9.20014,45.45169 0.13574,-1.18366 h 4.21601 4.21601 v 1.054 c 0,1.04781 -0.0256,1.05476 -4.35175,1.18366 l -4.35174,0.12965 z m 6.03816,-0.12966 c 0,-0.48129 -0.62964,-0.6624 -2.63502,-0.75793 -2.43388,-0.11593 -2.63501,-0.058 -2.63501,0.75793 0,0.81601 0.20113,0.87384 2.63501,0.75791 2.00538,-0.0955 2.63502,-0.27662 2.63502,-0.75791 z m -22.62658,-19.49256 c -0.039,-5.62664 -0.067,-10.79943 -0.0619,-11.49506 0.005,-0.69565 0.0367,-13.83376 0.071,-29.19583 l 0.0619,-27.93101 h 12.2286 12.22858 l -0.10758,39.31422 -0.10757,39.31423 -12.12101,0.11186 -12.12102,0.11188 z m 23.68056,-8.33978 v -17.71392 l -4.95376,3.41638 c -2.72462,1.87903 -7.93613,5.4393 -11.58108,7.91174 l -6.62732,4.49532 -0.0128,9.8022 -0.0128,9.80221 h 11.59399 11.594 z m -10.387,-13.24092 10.387,-7.13443 V 92.623691 72.881117 H 390.54 378.94601 v 27.656223 27.65622 l 1.207,-0.77921 c 0.6638,-0.42856 5.88112,-3.98969 11.59399,-7.91363 z m -261.26478,10.61266 c -0.15389,-17.91251 -0.27997,-39.350884 -0.28015,-47.640606 V 67.40031 h -1.05402 -1.05399 v 47.35976 c 0,26.04787 0.12649,47.48626 0.28108,47.64083 0.1546,0.15459 0.75499,0.28108 1.33418,0.28108 h 1.05305 z m -2.8101,27.08783 v -5.05921 h -4.42684 -4.42682 v 4.40769 4.40771 l 1.37025,0.25339 c 8.21442,1.51906 7.48341,1.91073 7.48341,-4.00958 z m 108.14057,3.3728 c 0,-0.48129 -0.62959,-0.6624 -2.63502,-0.75793 -2.43382,-0.11593 -2.63495,-0.058 -2.63495,0.75793 0,0.816 0.20113,0.87384 2.63495,0.75791 2.00543,-0.0955 2.63502,-0.27663 2.63502,-0.75791 z m 744.75694,0.2108 c 0,-0.49188 -0.5622,-0.63241 -2.5296,-0.63241 -1.9675,0 -2.5296,0.14053 -2.5296,0.63241 0,0.49186 0.5621,0.63239 2.5296,0.63239 1.9674,0 2.5296,-0.14053 2.5296,-0.63239 z m -668.2453,-8.89619 c -1.0911,-5.25574 -5.17282,-11.04085 -9.90921,-14.04459 l -2.05186,-1.30125 h -11.5617 -11.5617 l -2.37396,1.44912 c -2.92697,1.78667 -5.8948,4.80037 -7.58738,7.70472 -1.36461,2.34144 -2.60419,7.34513 -2.55846,10.32741 l 0.0279,1.80957 0.61447,-2.3188 c 2.09153,-7.89327 8.38989,-14.37863 16.61565,-17.10903 3.15214,-1.04629 9.81408,-1.05245 13.28041,-0.0123 5.71181,1.71401 11.45034,6.28005 14.25997,11.34636 1.41022,2.54289 2.73328,6.36854 2.89456,8.36944 0.0437,0.54402 0.14866,-0.11853 0.23297,-1.47236 0.0842,-1.3538 -0.0604,-3.49055 -0.32152,-4.74831 z m 307.16822,0.23073 c -0.35714,-1.7127 -1.17254,-4.15607 -1.81201,-5.42969 -1.40568,-2.79938 -5.3052,-7.07633 -8.06883,-8.84972 l -2.02141,-1.29716 H 596.07025 584.5502 l -1.93423,1.1239 c -3.35321,1.9484 -6.26467,4.73591 -7.78345,7.45222 -1.70211,3.04435 -2.8028,6.94685 -2.77088,9.82436 l 0.0226,2.04714 0.75055,-2.3188 c 1.32022,-4.07873 3.04108,-6.88004 6.1146,-9.95353 5.04224,-5.04225 9.80066,-7.01675 16.91001,-7.01675 7.12889,0 11.86419,1.97216 16.95719,7.06236 3.40568,3.4038 5.49668,7.16494 6.48761,11.66938 l 0.58639,2.66534 0.12564,-1.93251 c 0.0692,-1.06287 -0.16659,-3.33381 -0.52365,-5.04654 z m 277.3739,-1.5893 c -1.30943,-4.54383 -4.72379,-9.20561 -8.67459,-11.84385 l -2.57843,-1.72181 -5.53819,0.0526 c -4.338,0.0411 -5.08131,0.12453 -3.43011,0.38456 9.61899,1.51474 17.66312,8.6921 19.94522,17.79609 l 0.71311,2.84484 0.12632,-2.55959 c 0.0744,-1.49347 -0.1609,-3.5564 -0.56333,-4.95283 z m -44.35958,-0.79517 c 1.54659,-2.93355 5.58231,-7.16747 8.51528,-8.93351 2.70983,-1.63156 6.22013,-2.91498 9.29903,-3.39983 1.6764,-0.264 1.0209,-0.34272 -3.20216,-0.38456 l -5.30997,-0.0526 -2.48957,1.63343 c -2.9433,1.93115 -5.52129,4.58634 -7.02551,7.2359 -1.2998,2.28929 -2.43626,6.43969 -2.37909,8.68794 l 0.0411,1.62554 0.69648,-2.10799 c 0.38299,-1.15941 1.21743,-3.09635 1.85429,-4.30432 z m 128.48436,-37.8557 V 70.351512 h -9.2752 -9.2752 v 41.527638 41.52762 h 9.2752 9.2752 z m -17.9346,39.31421 c -0.1105,-0.28984 -0.152,-18.07611 -0.092,-39.52502 l 0.1087,-38.998023 8.7482,-0.113962 8.7482,-0.113956 v 39.638991 39.63898 h -8.656 c -6.5366,0 -8.7053,-0.12905 -8.857,-0.52701 z m 17.0913,-15.71814 v -15.40195 l -8.2211,5.51856 -8.2212,5.51855 v 9.88339 9.8834 h 8.2212 8.2211 z m 0,-40.043749 V 73.302636 h -8.2211 -8.2212 v 27.620064 27.62008 l 8.2212,-5.4913 8.2211,-5.49131 z M 746.58143,111.66826 V 70.351429 h -14.12364 -14.12357 v 41.316831 41.31683 h 14.12357 14.12364 z m -26.70188,20.97461 c -0.0917,-10.26068 -0.16433,-18.84553 -0.16152,-19.0774 0,-0.23189 0.0755,-9.57851 0.16175,-20.77028 l 0.15686,-20.348661 12.11297,0.111844 12.11305,0.111861 0.10758,39.314226 0.1075,39.31423 h -12.2158 -12.21588 z m 23.729,8.432 -0.0218,-9.80219 -11.17568,-7.5888 c -6.14666,-4.17385 -11.35424,-7.65206 -11.57235,-7.72935 -0.24365,-0.0863 -0.39661,6.62109 -0.39661,17.39101 v 17.53156 h 11.59392 11.594 z m 0.0218,-40.15742 V 73.302636 H 732.03222 720.4341 l 0.1096,19.913131 0.10952,19.913123 11.17241,7.68446 c 6.1448,4.22646 11.3147,7.69222 11.4886,7.70169 0.1739,0.009 0.31612,-12.40943 0.31612,-27.59759 z m 39.63048,9.48601 V 67.82183 h -14.12364 c -13.84255,0 -14.12356,0.01676 -14.12356,0.843203 0,0.826159 0.28101,0.843201 13.91276,0.843201 8.99414,0 13.91285,0.14904 13.91285,0.4216 0,0.272545 -4.91871,0.421595 -13.91285,0.421595 h -13.91276 v 41.316831 41.31683 h 14.12356 14.12364 z m -26.23023,30.46062 c -0.0662,-5.73903 -0.0662,-23.47787 0,-39.41963 l 0.11918,-28.985017 h 12.21261 12.21253 v 39.419627 39.41963 h -12.21206 -12.21199 z m 24.12218,-7.905 c 0,-9.8549 -0.10524,-17.91801 -0.23391,-17.91801 -0.28755,0 -21.61053,14.60417 -22.63781,15.50472 -0.66322,0.58131 -0.73779,1.64291 -0.73779,10.48903 v 9.84228 h 11.80472 11.80479 z m -11.8248,-12.64801 c 6.09327,-4.17384 11.24651,-7.54138 11.45155,-7.48342 0.21243,0.0601 0.37294,-8.42423 0.37294,-19.709806 V 73.302636 h -11.80479 -11.80472 v 27.439154 c 0,15.09153 0.15895,27.37591 0.35317,27.29861 0.19429,-0.0773 5.33858,-3.55549 11.43185,-7.72933 z m -567.03261,-9.0644 V 69.929834 h -14.12359 -14.12364 v 41.316836 41.31682 h 14.12364 14.12359 z m -26.27974,39.77096 c -0.15459,-0.15458 -0.28108,-17.89344 -0.28108,-39.41964 V 72.459433 h 12.22644 12.22637 v 39.419627 39.41963 h -11.9453 c -6.56995,0 -12.07184,-0.12649 -12.22643,-0.28106 z m 23.75015,-10.20662 v -9.64447 l -11.06699,-7.56976 c -6.08686,-4.16337 -11.30418,-7.70794 -11.59405,-7.87682 -0.41804,-0.24359 -0.52695,3.31451 -0.52695,17.21424 v 17.52129 h 11.59399 11.594 z m -0.10235,-40.20976 -0.10845,-27.509414 -11.48863,-0.112181 -11.48856,-0.112176 0.0198,19.927391 0.0198,19.92739 11.25829,7.683 c 6.19204,4.22565 11.40198,7.68804 11.57757,7.69421 0.1756,0.006 0.27043,-12.36804 0.2108,-27.49822 z M 367.5627,111.24667 V 69.929834 h -14.12365 -14.12358 v 41.316836 41.31682 h 14.12358 14.12365 z m -26.65775,20.98105 c -0.0626,-10.49612 -0.0629,-28.23785 0,-39.426077 l 0.11328,-20.34221 h 12.22067 12.22068 l -0.10758,39.314227 -0.10758,39.31423 -12.11252,0.11185 -12.11251,0.11187 z m 23.70656,8.5572 v -9.67056 l -11.40129,-7.82584 c -6.27072,-4.30422 -11.48798,-7.82585 -11.594,-7.82585 -0.106,0 -0.19275,7.87338 -0.19275,17.49641 v 17.49641 h 11.59399 11.59405 z m 0,-40.29585 V 72.867479 l -11.48862,0.112176 -11.48863,0.112181 v 19.788603 19.788621 l 11.17241,7.70171 c 6.14481,4.23595 11.31472,7.7103 11.48862,7.72081 0.17391,0.0105 0.31622,-12.41062 0.31622,-27.60251 z M 127.672,148.97988 v -2.3188 h -4.42683 -4.42682 v 2.3188 2.31881 h 4.42682 4.42683 z m 876.2778,-0.24107 c 0.2217,-0.21803 0.4814,-4.42681 0.5771,-9.35286 l 0.174,-8.95647 -9.74697,0.12051 -9.7468,0.12052 v 9.36549 9.36549 l 9.1702,-0.13317 c 5.0436,-0.0733 9.35167,-0.31152 9.57337,-0.52951 z M 127.672,143.49908 v -2.3188 H 123.45597 119.24 v 2.3188 2.3188 h 4.21597 4.21603 z m 0,-5.4808 v -2.3188 h -4.42683 -4.42682 v 2.3188 2.3188 h 4.42682 4.42683 z m 0,-5.6916 v -2.52961 h -4.42683 -4.42682 v 2.52961 2.5296 h 4.42682 4.42683 z m -5e-5,-34.25503 c -0.005,-16.985224 -0.008,-31.783396 -0.005,-32.884828 l 0.005,-2.002595 h 2.7404 2.74039 V 53.48742 43.790612 l -3.05662,0.03392 c -1.68112,0.01867 -3.89258,0.255805 -4.91427,0.526998 -3.3817,0.897562 -3.32405,0.67662 -4.92681,18.888726 -1.41574,16.086915 -1.42359,16.311324 -1.43018,40.944584 l -0.006,24.76903 h 4.43206 4.43213 z m 876.84895,29.93362 c 0.1317,-0.68545 -0.5486,-0.7378 -9.58607,-0.7378 -9.4768,0 -9.7277,0.022 -9.7277,0.85112 0,0.83212 0.2139,0.84859 9.5858,0.7378 8.74207,-0.10334 9.59857,-0.17827 9.72797,-0.85112 z m -18.47057,-1.76691 c 0,-0.10226 -0.1897,-0.30318 -0.4216,-0.44649 -0.2319,-0.14331 -0.4216,-0.0596 -0.4216,0.18592 0,0.24556 0.1897,0.44649 0.4216,0.44649 0.2319,0 0.4216,-0.0837 0.4216,-0.18592 z M 118.99545,59.811427 c 1.22061,-13.221268 1.23155,-13.287462 2.45712,-14.861421 l 1.23109,-1.580994 h -7.41348 c -6.29593,0 -7.4135,0.09496 -7.4135,0.629957 0,0.525811 9.0819,78.391561 9.36781,80.317311 0.0517,0.34782 0.19538,-11.03539 0.31943,-25.296029 0.2112,-24.280482 0.30342,-26.772496 1.45153,-39.208824 z m 885.86225,53.859433 c -0.3661,-12.34525 -0.8855,-22.60478 -1.8034,-35.62523 l -0.7206,-10.2238 -7.40397,-0.09477 -7.4038,-0.09477 7.2725,-0.125988 c 6.07507,-0.105233 7.27277,-0.228499 7.27277,-0.748428 0,-0.524449 -1.1284,-0.622446 -7.16727,-0.622446 -4.4971,0 -7.1672,-0.157074 -7.1672,-0.421601 0,-0.264537 2.6701,-0.421595 7.1672,-0.421595 7.16187,0 7.16727,-0.0011 7.13257,-0.94861 -0.019,-0.521722 -0.2562,-3.414959 -0.5269,-6.429398 l -0.4924,-5.480806 -3.37287,-0.134086 c -4.967,-0.197441 -8.5633,0.265386 -9.5236,1.225668 -0.7797,0.779731 -0.8056,1.895023 -0.8056,34.714327 0,30.263973 0.071,33.979923 0.6625,34.571223 0.5572,0.55717 1.9751,0.66252 8.9165,0.66252 h 8.25427 z m -839.66317,0.52701 v -1.68641 h -15.59921 -15.59928 v 1.68641 1.6864 h 15.59928 15.59921 z m 672.03086,-0.2108 v -1.47561 h -19.81531 -19.81512 v 1.47561 1.4756 h 19.81512 19.81531 z m 89.80084,-0.21081 v -1.68639 h -42.79236 -42.79251 v 1.68639 1.68641 h 42.79251 42.79236 z m -471.34906,-0.21079 v -1.4756 h -19.81522 -19.81522 v 1.4756 1.4756 h 19.81522 19.81522 z m 254.22493,0 v -1.4756 h -34.57119 -34.57128 v 1.4756 1.4756 h 34.57128 34.57119 z M 165.19453,89.534245 V 67.40023 h -15.59921 -15.59928 v 22.134015 22.134015 h 15.59928 15.59921 z m 672.03086,0.2108 V 67.82183 h -19.81531 -19.81512 v 21.923215 21.923215 h 19.81512 19.81531 z m 89.80084,5.480809 V 78.78344 h -42.79236 -42.79251 v 16.442414 16.442406 h 42.79251 42.79236 z M 455.67717,89.323445 V 67.40023 h -19.81522 -19.81522 v 21.923215 21.923225 h 19.81522 19.81522 z m 254.22493,0.2108 V 67.82183 h -34.57119 -34.57128 v 21.712415 21.712425 h 34.57128 34.57119 z M 330.46185,102.81466 v -1.68641 h -41.10599 -41.10605 v 1.68641 1.6864 h 41.10605 41.10599 z m 306.08176,0 v -1.68641 h -41.31678 -41.31679 v 1.68641 1.6864 h 41.31679 41.31678 z m 0,-13.069615 V 78.78344 h -41.31678 -41.31679 v 10.961605 10.961615 h 41.31679 41.31678 z m -306.08176,-0.2108 V 78.78344 h -41.10599 -41.10605 v 10.750805 10.750815 h 41.10605 41.10599 z m 676.13985,-7.483412 c 0.2297,-0.289847 0.5459,-3.396703 0.7028,-6.904114 0.2475,-5.535154 0.1993,-6.410105 -0.366,-6.626968 -0.5488,-0.210603 -0.6628,0.261454 -0.7255,3.004314 l -0.074,3.254167 -0.2418,-2.951199 -0.2418,-2.9512 -0.3132,2.9512 c -0.3905,3.680166 -0.4139,10.093949 -0.039,10.469736 0.4201,0.4201 0.8323,0.34202 1.2981,-0.245936 z M 327.51067,73.091836 v -3.583602 h -37.94401 -37.94408 v 3.583602 3.5836 h 37.94408 37.94401 z m 305.66011,0 V 69.508234 H 595.22683 557.2828 v 3.583602 3.5836 h 37.94403 37.94395 z m 290.90425,-0.421602 v -3.5836 h -40.05196 -40.05213 v 3.5836 3.583602 h 40.05213 40.05196 z m 80.65147,-0.94861 c 0.2082,-3.366122 0.1506,-3.899794 -0.4211,-3.899794 -0.5455,0 -0.6151,0.345342 -0.3943,1.956039 0.1475,1.075831 0.268,2.909785 0.268,4.075474 0,3.278023 0.2802,2.187196 0.5474,-2.131719 z M 746.58127,68.665033 c 0,-0.826434 -0.28101,-0.843203 -14.12364,-0.843203 -13.84247,0 -14.12356,0.01676 -14.12356,0.843203 0,0.826415 0.28109,0.843201 14.12356,0.843201 13.84263,0 14.12364,-0.01682 14.12364,-0.843201 z m 209.53546,0 c 0,-0.820256 -0.2812,-0.843203 -10.3293,-0.843203 -10.0481,0 -10.3292,0.02293 -10.3292,0.843203 0,0.820254 0.2811,0.843201 10.3292,0.843201 10.0481,0 10.3293,-0.02293 10.3293,-0.843201 z m 24.8743,0 c 0,-0.817655 -0.281,-0.843203 -9.2751,-0.843203 -8.9942,0 -9.2752,0.02554 -9.2752,0.843203 0,0.817636 0.281,0.843201 9.2752,0.843201 8.9941,0 9.2751,-0.02554 9.2751,-0.843201 z M 202.29537,68.243431 c 0,-0.826427 -0.28109,-0.843201 -14.12359,-0.843201 -13.84257,0 -14.12364,0.01676 -14.12364,0.843201 0,0.826417 0.28107,0.843203 14.12364,0.843203 13.8425,0 14.12359,-0.01682 14.12359,-0.843203 z m 36.67924,0 c 0,-0.826427 -0.28107,-0.843201 -14.12364,-0.843201 -13.84251,0 -14.12359,0.01676 -14.12359,0.843201 0,0.826417 0.28108,0.843203 14.12359,0.843203 13.84257,0 14.12364,-0.01682 14.12364,-0.843203 z m 128.58809,0 c 0,-0.826427 -0.28109,-0.843201 -14.12365,-0.843201 -13.84251,0 -14.12358,0.01676 -14.12358,0.843201 0,0.826417 0.28107,0.843203 14.12358,0.843203 13.84256,0 14.12365,-0.01682 14.12365,-0.843203 z m 636.769,-1.475602 c -0.1335,-0.34782 -0.3173,-0.632402 -0.4084,-0.632402 -0.091,0 -0.1658,0.284582 -0.1658,0.632402 0,0.347813 0.1839,0.632401 0.4085,0.632401 0.2247,0 0.2992,-0.284588 0.1657,-0.632401 z M 463.26594,53.487048 v -9.69718 l -149.52126,0.0018 c -149.40276,0.0018 -149.52064,0.0024 -148.75956,0.843557 0.75591,0.835236 0.73269,0.841665 -3.04642,0.841665 -2.87067,0 -3.93732,-0.155684 -4.33296,-0.632401 -0.43072,-0.518987 -1.87666,-0.632402 -8.06203,-0.632402 -7.42881,0 -7.53719,0.01303 -7.53719,0.905422 0,0.882388 -0.10193,0.898272 -4.00524,0.62389 l -4.00524,-0.281537 v 8.862083 8.862117 h 164.63502 164.63488 z m 521.09799,4.183937 c 0,-5.489531 0.01,-5.518355 1.1926,-6.705851 1.6723,-1.672299 3.7052,-2.110273 9.808,-2.112967 l 5.30907,-0.0024 -0.2499,-1.535565 c -0.1641,-1.008696 -0.65807,-1.840464 -1.43997,-2.424197 L 997.79353,44.001366 783.1243,43.717733 C 599.0548,43.474536 568.36148,43.518552 567.79774,44.02653 c -0.52084,0.46938 -2.88507,0.615843 -11.38312,0.705222 l -10.72582,0.112815 -0.11365,9.169804 -0.11365,9.16981 h 219.45118 219.45125 z m -124.95831,1.897984 c -0.48069,-1.252572 -0.28136,-8.418181 0.24888,-8.948432 0.38378,-0.383783 7.48308,-0.504365 29.40664,-0.499466 15.8954,0.0035 29.14449,0.161206 29.44269,0.350345 0.4002,0.25392 0.5105,1.548209 0.4216,4.947342 l -0.1204,4.603469 -29.57126,0.108231 c -26.69217,0.09769 -29.59617,0.04299 -29.82815,-0.561489 z m 59.09791,-4.289754 0.1202,-4.321394 h -29.31599 -29.31595 v 4.429683 4.429683 l 29.19584,-0.108273 29.1958,-0.108288 z m -222.88978,3.955357 c -0.32102,-0.386826 -0.46059,-1.742345 -0.38151,-3.705558 l 0.12471,-3.095597 3.7056,-0.122054 3.70569,-0.12206 -0.12206,3.705661 -0.12205,3.705662 -3.20213,0.12195 c -2.39497,0.09122 -3.32955,-0.03177 -3.70825,-0.488004 z m 6.69958,-3.428347 v -3.162008 h -3.16203 -3.16204 v 3.162008 3.161999 h 3.16204 3.16203 z m -4.82451,1.381783 c -0.36104,-0.515349 -0.65637,-1.179379 -0.65637,-1.475603 0,-0.740923 1.54665,-2.224985 2.31885,-2.224985 0.81711,0 2.31876,1.501627 2.31876,2.318805 0,0.898108 -1.5352,2.318798 -2.50566,2.318798 -0.45063,0 -1.11463,-0.421653 -1.47558,-0.937015 z m 272.96221,-5.386986 c 0,-2.716981 -0.123,-3.372807 -0.6324,-3.372807 -0.3478,0 -0.6323,-0.189726 -0.6323,-0.421601 0,-0.231885 0.4742,-0.4216 1.0539,-0.4216 1.0462,0 1.054,0.0281 1.054,3.794408 0,2.248525 -0.1717,3.794401 -0.4216,3.794401 -0.2459,0 -0.4216,-1.405342 -0.4216,-3.372801 z m 3.7945,3.001232 c 0,-0.20436 0.6679,-0.881004 1.4843,-1.50367 1.9645,-1.498417 2.8686,-2.931617 2.5274,-4.006529 -0.3713,-1.170058 -2.0431,-1.12093 -2.8842,0.08476 l -0.6617,0.948611 -0.022,-0.933775 c -0.042,-1.806456 2.8569,-2.443373 3.9592,-0.869627 0.964,1.376343 0.8366,1.837485 -1.0838,3.92082 l -1.7401,1.887784 h 1.5044 c 0.8275,0 1.6217,0.189715 1.765,0.4216 0.1628,0.263346 -0.6983,0.421602 -2.2939,0.421602 -1.405,0 -2.5545,-0.167211 -2.5545,-0.37157 z M 136.85345,39.047606 136.73644,33.039807 h -1.47556 -1.47564 l -0.005,6.007799 -0.005,6.007809 h 1.59781 1.59787 z m 4.73147,5.635378 c 0,-0.426378 -1.45009,-0.878146 -2.84583,-0.886617 -0.56472,-0.0035 -0.94861,0.250184 -0.94861,0.626647 0,0.468437 0.49188,0.632401 1.89722,0.632401 1.04344,0 1.89722,-0.167606 1.89722,-0.372431 z m 22.32837,0.0562 c -0.009,-0.173907 -1.04786,-1.454512 -2.30856,-2.845791 l -2.29215,-2.529606 -0.01,2.845798 -0.0105,2.845808 h 2.3188 c 1.27536,0 2.31141,-0.142297 2.30234,-0.316209 z m -5.88596,-2.880927 c 0,-1.69442 -0.14766,-2.305428 -0.52701,-2.180807 -1.06998,0.351484 -0.73065,4.534742 0.36783,4.534742 0.0876,0 0.15918,-1.059273 0.15918,-2.353935 z M 559.81236,33.672191 V 23.553787 h -7.16718 -7.16718 v 10.118404 10.118402 h 7.16718 7.16718 z m 7.36475,9.718369 c 0.18386,-0.297602 0.36671,-15.021849 0.23967,-19.309779 -0.0109,-0.369923 -0.89526,-0.526994 -2.96672,-0.526994 h -2.95124 v 10.118404 10.118402 h 2.71553 c 1.49356,0 2.82669,-0.180016 2.96276,-0.400033 z M 144.95772,42.104195 c 0,-0.695651 -0.1386,-1.264803 -0.30803,-1.264803 -0.69265,0 -4.75119,1.866955 -4.75119,2.185573 0,0.18921 1.13835,0.344027 2.52961,0.344027 h 2.52961 z m 10.96161,-0.2108 v -1.475603 h -5.05919 -5.05919 v 1.475603 1.475597 h 5.05919 5.05919 z m 312.82739,-9.326838 c 0,-8.479806 -0.0883,-9.855974 -0.63238,-9.855974 -0.545,0 -0.63238,1.434496 -0.63238,10.380818 0,9.179597 0.0732,10.320098 0.63238,9.85599 0.52916,-0.439137 0.63238,-2.134291 0.63238,-10.380834 z m 3.37284,-0.0351 c 0,-7.725389 -0.11538,-9.852697 -0.52702,-9.715679 -0.39809,0.132543 -0.5546,2.681476 -0.64001,10.422293 -0.10065,9.122857 -0.0431,10.188583 0.52701,9.715676 0.53901,-0.447346 0.64002,-2.092132 0.64002,-10.42229 z m 3.37276,0 c 0,-7.725389 -0.11537,-9.852697 -0.52696,-9.715679 -0.39814,0.132543 -0.55465,2.681476 -0.64006,10.422293 -0.10059,9.122857 -0.0431,10.188583 0.52702,9.715676 0.53906,-0.447346 0.64,-2.092132 0.64,-10.42229 z m 3.37284,0 c 0,-7.725389 -0.11538,-9.852697 -0.52702,-9.715679 -0.39809,0.132543 -0.55466,2.681476 -0.64001,10.422293 -0.10065,9.122857 -0.0431,10.188583 0.52701,9.715676 0.53901,-0.447346 0.64002,-2.092132 0.64002,-10.42229 z m 3.37282,0 c 0,-7.725389 -0.11543,-9.852697 -0.52702,-9.715679 -0.39814,0.132543 -0.55465,2.681476 -0.64005,10.422293 -0.1006,9.122857 -0.0426,10.188583 0.52701,9.715676 0.53906,-0.447346 0.64006,-2.092132 0.64006,-10.42229 z m 13.4912,0.0351 c 0,-8.479806 -0.0883,-9.855974 -0.63243,-9.855974 -0.545,0 -0.63239,1.434496 -0.63239,10.380818 0,9.179597 0.0732,10.320098 0.63239,9.85599 0.52916,-0.439137 0.63243,-2.134291 0.63243,-10.380834 z m 14.33439,0.473234 c 0,-8.90045 -0.0875,-10.329208 -0.63238,-10.329208 -0.54407,0 -0.63239,1.372532 -0.63239,9.82328 0,7.078203 0.14132,9.964668 0.5059,10.32921 0.27822,0.278258 0.56285,0.505919 0.63238,0.505919 0.0696,0 0.12649,-4.648146 0.12649,-10.329201 z m 6.55601,-9.793488 c -0.11303,-0.29465 -0.40119,-0.53572 -0.64038,-0.53572 -0.67713,0 -0.58805,19.493203 0.0922,20.174 0.42165,0.421973 0.5497,-1.435271 0.64038,-9.287549 0.0622,-5.398259 0.021,-10.056091 -0.0922,-10.350731 z m 3.37283,0 c -0.11311,-0.29465 -0.40128,-0.53572 -0.64041,-0.53572 -0.67707,0 -0.5881,19.493203 0.0922,20.174 0.42159,0.421973 0.54964,-1.435271 0.64041,-9.287549 0.0622,-5.398259 0.021,-10.056091 -0.0922,-10.350731 z m 3.56238,9.793488 c 0,-8.90045 -0.0875,-10.329208 -0.63239,-10.329208 -0.54404,0 -0.6324,1.372532 -0.6324,9.82328 0,7.078203 0.14137,9.964668 0.5059,10.32921 0.27829,0.278258 0.56288,0.505919 0.63239,0.505919 0.0692,0 0.1265,-4.648146 0.1265,-10.329201 z m 6.32399,0 c 0,-6.60508 -0.15203,-10.329208 -0.4216,-10.329208 -0.26925,0 -0.42159,3.630436 -0.42159,10.048135 0,8.849409 0.11661,10.610274 0.70269,10.610274 0.077,0 0.1405,-4.648146 0.1405,-10.329201 z m 3.37275,-0.0351 c 0,-8.103959 -0.11489,-10.326086 -0.52691,-10.188928 -0.72565,0.241529 -0.98331,19.117079 -0.27268,19.97336 0.26474,0.318956 0.55291,0.579909 0.64048,0.579909 0.0875,0 0.15911,-4.66396 0.15911,-10.364341 z m 5.05929,-0.438089 c 0,-8.479806 -0.0883,-9.855981 -0.63247,-9.855981 -0.54497,0 -0.63239,1.434495 -0.63239,10.380826 0,9.179591 0.0732,10.320093 0.63239,9.855985 0.52917,-0.439139 0.63247,-2.134292 0.63247,-10.38083 z m 2.10797,0.473227 c 0,-8.90045 -0.0874,-10.329208 -0.63239,-10.329208 -0.54404,0 -0.63239,1.372533 -0.63239,9.823288 0,7.078196 0.14136,9.964663 0.5059,10.329204 0.27828,0.278257 0.5628,0.505919 0.63239,0.505919 0.0693,0 0.12649,-4.648147 0.12649,-10.329203 z m 3.79435,0 c 0,-8.90045 -0.0874,-10.329208 -0.63239,-10.329208 -0.54404,0 -0.63231,1.372533 -0.63231,9.823288 0,7.078196 0.14136,9.964663 0.50582,10.329204 0.27828,0.278257 0.56287,0.505919 0.63246,0.505919 0.0693,0 0.12642,-4.648147 0.12642,-10.329203 z M 106.5919,42.104232 c 0,-0.682595 -0.28108,-0.843202 -1.47562,-0.843202 -1.19456,0 -1.47558,0.160607 -1.47558,0.843202 0,0.682578 0.28102,0.843196 1.47558,0.843196 1.19454,0 1.47562,-0.160618 1.47562,-0.843196 z m 26.56096,0 c 0,-0.82477 -0.28108,-0.843202 -12.8589,-0.843202 -12.5778,0 -12.85887,0.01844 -12.85887,0.843202 0,0.82477 0.28107,0.843196 12.85887,0.843196 12.57782,0 12.8589,-0.01844 12.8589,-0.843196 z m 8.93517,-1.006316 c 3.55287,-1.476597 3.82865,-1.523289 8.99938,-1.523289 4.31748,0 5.57526,-0.140633 6.59863,-0.737804 l 1.26442,-0.737793 1.82029,2.002589 1.82035,2.002613 h 13.1065 c 8.45663,0 13.10656,-0.149586 13.10656,-0.4216 0,-0.231887 -0.4743,-0.421602 -1.05397,-0.421602 -0.92353,0 -1.05403,-0.182704 -1.05403,-1.475602 v -1.475601 h 25.29605 25.29599 v 1.475597 c 0,1.292898 -0.1305,1.475602 -1.05403,1.475602 -0.57967,0 -1.05398,0.189715 -1.05398,0.421602 0,0.231873 0.75888,0.4216 1.68642,0.4216 1.65215,0 1.68641,-0.03048 1.68641,-1.503327 0,-2.055989 0.64647,-3.095106 2.37484,-3.817281 2.16566,-0.904871 7.49527,-1.192568 11.03421,-0.595657 3.50706,0.591539 4.24289,1.28608 4.40825,4.160828 l 0.10071,1.751068 35.7047,0.0024 35.70475,0.0024 3.99975,-6.429408 3.99979,-6.429398 -9.66547,-0.113176 c -8.12552,-0.09514 -9.66549,-0.210906 -9.66549,-0.726556 0,-0.534513 -11.53609,-0.628391 -89.69545,-0.730046 -49.33251,-0.06414 -89.73246,-0.111322 -89.77761,-0.104846 -0.0447,0.0062 0.032,3.477788 0.17135,7.714024 0.17483,5.315387 0.39622,7.64556 0.71442,7.519316 0.25362,-0.100614 2.11046,-0.868406 4.12626,-1.706226 z m 323.28592,-8.50457 c 0,-6.307419 -0.15255,-9.882727 -0.42159,-9.882727 -0.26938,0 -0.42159,3.662164 -0.42159,10.143273 0,6.65485 0.14499,10.053687 0.42159,9.882741 0.26165,-0.161723 0.42159,-4.009588 0.42159,-10.143287 z m 1.68641,0.235683 c 0,-8.713076 -0.0879,-10.11841 -0.63244,-10.11841 -0.54359,0 -0.63238,1.349124 -0.63238,9.612482 0,6.914249 0.14202,9.75449 0.50595,10.118409 0.27823,0.278257 0.5628,0.505918 0.63238,0.505918 0.0695,0 0.12649,-4.553279 0.12649,-10.118399 z m 3.37278,0 c 0,-8.713076 -0.0878,-10.11841 -0.63238,-10.11841 -0.54366,0 -0.63239,1.349124 -0.63239,9.612482 0,6.914249 0.14196,9.75449 0.50589,10.118409 0.27829,0.278257 0.56286,0.505918 0.63239,0.505918 0.0696,0 0.12649,-4.553279 0.12649,-10.118399 z m 3.37282,-0.0351 c 0,-7.935313 -0.11513,-10.115219 -0.527,-9.978139 -0.72554,0.241498 -0.98306,18.695796 -0.27276,19.551582 0.26472,0.319049 0.55302,0.580096 0.64058,0.580096 0.0876,0 0.15918,-4.569094 0.15918,-10.153539 z m 3.37278,0 c 0,-7.935313 -0.11509,-10.115219 -0.52696,-9.978139 -0.72559,0.241498 -0.98305,18.695796 -0.27282,19.551582 0.26479,0.319049 0.55308,0.580096 0.64059,0.580096 0.0876,0 0.15919,-4.569094 0.15919,-10.153539 z m 3.37282,0.0351 c 0,-6.464544 -0.15226,-10.11841 -0.42158,-10.11841 -0.26903,0 -0.42165,3.560182 -0.42165,9.837337 0,8.662881 0.11735,10.399472 0.70267,10.399472 0.0773,0 0.14056,-4.553279 0.14056,-10.118399 z m 4.6376,-0.02491 c 0,-6.65483 -0.14498,-10.053676 -0.42158,-9.882719 -0.26171,0.161702 -0.42165,4.009567 -0.42165,10.143273 0,6.307413 0.15255,9.882729 0.42165,9.882729 0.26938,0 0.42158,-3.66217 0.42158,-10.143283 z m 1.68642,0.02491 c 0,-6.464544 -0.15226,-10.11841 -0.42165,-10.11841 -0.26897,0 -0.42158,3.560182 -0.42158,9.837337 0,8.662881 0.11735,10.399472 0.70266,10.399472 0.0773,0 0.14057,-4.553279 0.14057,-10.118399 z m 2.01037,-0.3394 c -0.0851,-7.14189 -0.24396,-9.541964 -0.64017,-9.673868 -0.41194,-0.137096 -0.52702,2.05313 -0.52702,10.029748 0,9.078474 0.0707,10.14651 0.64018,9.673866 0.54424,-0.451663 0.62319,-1.954723 0.52701,-10.029746 z m 1.3624,0.3394 c 0,-6.464544 -0.15221,-10.11841 -0.42159,-10.11841 -0.26904,0 -0.42158,3.560182 -0.42158,9.837337 0,8.662881 0.11734,10.399472 0.70266,10.399472 0.0773,0 0.14051,-4.553279 0.14051,-10.118399 z m 3.37283,0 c 0,-6.464544 -0.15226,-10.11841 -0.42165,-10.11841 -0.26897,0 -0.42158,3.560182 -0.42158,9.837337 0,8.662881 0.11735,10.399472 0.70266,10.399472 0.0773,0 0.14057,-4.553279 0.14057,-10.118399 z m 3.79437,0 c 0,-8.713076 -0.0878,-10.11841 -0.63239,-10.11841 -0.54412,0 -0.63238,1.378004 -0.63238,9.872475 0,9.537884 0.0495,9.98061 1.1594,10.331048 0.0581,0.01832 0.10537,-4.519993 0.10537,-10.085113 z m 10.54002,0 c 0,-6.464544 -0.15221,-10.11841 -0.4216,-10.11841 -0.26938,0 -0.42158,3.653866 -0.42158,10.11841 0,6.464531 0.1522,10.118399 0.42158,10.118399 0.26939,0 0.4216,-3.653868 0.4216,-10.118399 z m 3.37282,-0.235683 c 0,-6.307419 -0.15255,-9.882727 -0.42164,-9.882727 -0.26939,0 -0.4216,3.662164 -0.4216,10.143273 0,6.65485 0.145,10.053687 0.4216,9.882741 0.2617,-0.161723 0.42164,-4.009588 0.42164,-10.143287 z m 1.68636,0.235683 c 0,-6.464544 -0.1522,-10.11841 -0.42159,-10.11841 -0.26898,0 -0.42159,3.560182 -0.42159,9.837337 0,8.662881 0.11736,10.399472 0.70267,10.399472 0.0773,0 0.14051,-4.553279 0.14051,-10.118399 z m 1.68642,-0.235683 c 0,-6.307419 -0.1525,-9.882727 -0.4216,-9.882727 -0.26938,0 -0.42158,3.662164 -0.42158,10.143273 0,6.65485 0.14499,10.053687 0.42158,9.882741 0.26166,-0.161723 0.4216,-4.009588 0.4216,-10.143287 z m 3.37281,0 c 0,-6.307419 -0.15257,-9.882727 -0.42159,-9.882727 -0.26933,0 -0.42159,3.662164 -0.42159,10.143273 0,6.65485 0.14494,10.053687 0.42159,9.882741 0.26163,-0.161723 0.42159,-4.009588 0.42159,-10.143287 z m 3.69674,-0.103717 c -0.0851,-7.14189 -0.24388,-9.541964 -0.6401,-9.673868 -0.41194,-0.137096 -0.52707,2.05313 -0.52707,10.029748 0,9.078474 0.0708,10.14651 0.64025,9.673866 0.5442,-0.451663 0.62313,-1.954723 0.52692,-10.029746 z m 3.04885,0.103717 c 0,-6.307419 -0.15249,-9.882727 -0.42159,-9.882727 -0.26942,0 -0.4216,3.662164 -0.4216,10.143273 0,6.65485 0.14494,10.053687 0.4216,9.882741 0.2617,-0.161723 0.42159,-4.009588 0.42159,-10.143287 z m 1.68638,0.235683 c 0,-6.464544 -0.15218,-10.11841 -0.4216,-10.11841 -0.26894,0 -0.42159,3.560182 -0.42159,9.837337 0,8.662881 0.11738,10.399472 0.70268,10.399472 0.077,0 0.14051,-4.553279 0.14051,-10.118399 z m 1.68645,-0.235683 c 0,-6.307419 -0.15249,-9.882727 -0.42159,-9.882727 -0.26941,0 -0.4216,3.662164 -0.4216,10.143273 0,6.65485 0.14495,10.053687 0.4216,9.882741 0.26163,-0.161723 0.42159,-4.009588 0.42159,-10.143287 z m 3.27499,0.09537 c 0.0985,-8.690868 0.0304,-9.9781 -0.52692,-9.9781 -0.55463,0 -0.6401,1.35543 -0.6401,10.153525 0,7.935343 0.11513,10.11522 0.527,9.978119 0.39746,-0.132324 0.55478,-2.627758 0.64002,-10.153544 z m 3.37291,-0.03768 c 0.0897,-7.94137 0,-9.97894 -0.4216,-9.837796 -0.40758,0.135663 -0.56163,2.559643 -0.6478,10.193808 -0.0898,7.941368 0,9.978942 0.42159,9.837816 0.40759,-0.135682 0.56163,-2.559657 0.64781,-10.193828 z m 1.78407,0.178018 c 0,-8.713084 -0.0878,-10.118411 -0.63239,-10.118411 -0.54404,0 -0.6324,1.374097 -0.6324,9.837337 0,5.410527 0.1265,9.963813 0.28109,10.118404 0.83977,0.839774 0.9837,-0.599815 0.9837,-9.83733 z m -35.836,-0.210805 c 0,-6.324 -0.15249,-9.907606 -0.42159,-9.907606 -0.2688,0 -0.42158,3.489907 -0.42158,9.626533 0,8.476384 0.11805,10.188679 0.70266,10.188679 0.0773,0 0.14051,-4.458436 0.14051,-9.907606 z m 179.28547,9.636996 1.58098,-0.261325 v -7.95524 -7.955233 h -56.28361 -56.28362 v 8.221205 8.221206 l 54.70264,-0.0046 c 30.08646,-0.0024 55.41411,-0.12223 56.28361,-0.265963 z m -446.15847,-0.57259 c 0,-0.27572 -7.66733,-0.4216 -22.15886,-0.4216 -14.66526,0 -22.07077,0.142576 -21.89832,0.4216 0.16827,0.272305 8.01474,0.421602 22.15886,0.421602 14.31786,0 21.89832,-0.145951 21.89832,-0.421602 z m 229.35057,-8.862076 v -9.283677 l -59.55101,0.113868 c -50.4104,0.09638 -59.71282,0.205418 -60.60505,0.710328 -2.48584,1.406767 -4.83,3.859308 -6.95546,7.277102 -1.25104,2.011649 -3.23465,5.18947 -4.40807,7.061808 l -2.13349,3.404249 h 66.82654 66.82654 z m 367.63541,8.862076 c 0,-0.27572 -7.66735,-0.4216 -22.1589,-0.4216 -14.66519,0 -22.0708,0.142576 -21.8983,0.4216 0.16822,0.272305 8.01481,0.421602 22.15892,0.421602 14.31777,0 21.89828,-0.145951 21.89828,-0.421602 z m 96.21218,-0.105408 c -0.3399,-0.409103 -6.7647,-0.562025 -28.72054,-0.683561 -25.86447,-0.143187 -28.28279,-0.09812 -28.28279,0.526992 0,0.623674 2.51672,0.683579 28.72041,0.683579 22.92872,0 28.63212,-0.106288 28.28292,-0.52701 z m 29.5734,0.03171 c -0.6322,-0.305941 -1.1411,-0.301198 -1.6865,0.0157 -0.6497,0.377644 -0.4976,0.451274 0.9054,0.438194 1.4714,-0.01374 1.571,-0.07156 0.7811,-0.453921 z M 255.69826,39.716418 c -0.13784,-0.849533 -0.42404,-1.71802 -0.636,-1.929976 -0.69597,-0.695996 -3.58676,-1.142773 -7.44483,-1.150604 -5.86734,-0.01191 -7.91431,0.7842 -8.36941,3.254999 l -0.25235,1.370205 h 8.47665 8.47658 z m 515.61424,0.806814 c -0.11,-0.405782 -0.31441,-1.25273 -0.45429,-1.882088 -0.34103,-1.535184 -2.59612,-2.161652 -7.83453,-2.176426 -5.88208,-0.01658 -8.43204,1.060454 -8.43204,3.561625 v 1.234699 h 8.46053 c 7.85259,0 8.44598,-0.05301 8.26033,-0.73781 z M 124.28286,38.2329 c 4.76254,-1.433602 8.70011,-2.628654 8.75015,-2.655673 0.0501,-0.02708 0.22028,-1.8896 0.37842,-4.139066 l 0.28747,-4.089932 h -13.52002 -13.52001 l -0.27439,1.24948 c -0.24344,1.108288 0.25758,7.108386 0.90771,10.871524 l 0.23674,1.370206 h 4.04741 c 3.74528,0 4.69372,-0.194562 12.70652,-2.606539 z m 8.87,1.130936 c 0,-0.811579 -0.062,-1.475601 -0.13766,-1.475601 -0.38651,0 -9.35623,2.607696 -9.51466,2.766097 -0.10176,0.101808 2.02835,0.185107 4.73362,0.185107 h 4.9187 z m 103.29216,0.421601 v -1.054002 h -24.45281 -24.45287 v 1.054002 1.054002 h 24.45287 24.45281 z M 127.07958,38.862101 c 3.2182,-0.885867 5.65168,-1.771836 5.65168,-2.057627 0,-0.325427 -2.1862,0.162006 -6.21866,1.386546 -3.42021,1.038625 -6.29769,1.96455 -6.39429,2.057607 -0.50466,0.486108 1.89397,0.0084 6.96127,-1.386526 z m 706.35135,0.712536 c 0,-0.83352 -0.28109,-0.843202 -24.45277,-0.843202 -24.17177,0 -24.45286,0.0097 -24.45286,0.843202 0,0.833509 0.28109,0.843201 24.45286,0.843201 24.17168,0 24.45277,-0.0097 24.45277,-0.843201 z m 91.4873,-0.300245 c 0,-0.165132 -0.7985,-1.113725 -1.7742,-2.108005 l -1.7742,-1.807757 -24.04886,0.0218 -24.04879,0.0218 -1.42272,1.77005 -1.42271,1.770039 1.42271,0.260704 c 2.00749,0.367845 53.06877,0.436605 53.06877,0.07145 z M 136.43454,27.453565 c -0.1145,-4.33722 -0.16047,-4.537992 -1.0683,-4.666922 -0.9347,-0.132744 -0.94861,-0.0664 -0.94861,4.532201 v 4.666931 h 1.0683 1.0683 z m 203.05233,-1.264798 c 1.25907,-1.10143 2.30472,-2.144892 2.32374,-2.3188 0.0193,-0.173914 -5.44714,-0.316195 -12.14684,-0.316195 -13.22118,0 -12.69312,-0.09647 -12.69312,2.318799 0,2.387402 -0.30679,2.318808 10.36944,2.318808 h 9.8576 z M 106.1703,25.993647 c 0,-1.315614 -0.14842,-1.59667 -0.84323,-1.59667 -0.70041,0 -0.84319,0.281056 -0.84319,1.660182 0,1.400314 0.13201,1.650258 0.84319,1.596696 0.68359,-0.05154 0.84323,-0.365766 0.84323,-1.660208 z m 210.37876,-0.331872 v -1.264798 h -86.84952 -86.84973 v 1.264798 1.264798 h 86.84973 86.84964 z m -212.48678,0.210796 c 0,-0.53803 -1.10022,-0.632398 -7.37251,-0.632398 h -7.37258 l -9.80768,-2.554546 c -5.3942,-1.405 -10.13967,-2.65096 -10.54549,-2.768814 -0.51154,-0.148562 -0.7363,0.0207 -0.73292,0.55195 0.005,0.6508 1.60751,1.15848 10.64544,3.370636 l 10.64051,2.604442 7.27261,0.03052 c 6.19707,0.02608 7.27262,-0.06298 7.27262,-0.60183 z m 29.51218,0 c 0,-0.548967 -1.78011,-0.632398 -13.49129,-0.632398 -7.4202,0 -13.49127,0.158098 -13.49127,0.351334 0,0.193228 0.12649,0.477804 0.28109,0.63239 0.15459,0.154604 6.22564,0.281074 13.49127,0.281074 11.46134,0 13.2102,-0.08372 13.2102,-0.6324 z m 8.43206,0 c 0,-0.491862 -0.56216,-0.632398 -2.52962,-0.632398 -1.96751,0 -2.5296,0.140536 -2.5296,0.632398 0,0.491864 0.56209,0.6324 2.5296,0.6324 1.96746,0 2.52962,-0.140536 2.52962,-0.6324 z m 511.32862,-0.94854 c -15.45996,-0.06126 -40.8825,-0.06126 -56.49448,-2.3e-5 -15.61199,0.06126 -2.96292,0.111408 28.10895,0.111423 31.07195,8e-6 43.84542,-0.05013 28.38553,-0.1114 z M 65.85057,21.836764 c 2.29261,-1.803375 0.84713,-3.472011 -1.98321,-2.289399 -1.3802,0.57668 -1.70508,0.577412 -3.07062,0.007 -1.93131,-0.806968 -1.84572,-0.825557 -1.84572,0.400648 0,0.90403 0.34164,1.146937 2.63501,1.873525 3.28755,1.041531 2.95194,1.040877 4.26454,0.0084 z m 280.9483,0.161577 c -0.40576,-0.106044 -1.06979,-0.106044 -1.47561,0 -0.40577,0.106045 -0.0738,0.192808 0.73781,0.192808 0.81158,0 1.14356,-0.08676 0.7378,-0.192808 z m 10.64539,-0.597682 c 0,-0.256684 -0.28457,-0.357498 -0.63238,-0.224038 -0.34782,0.133477 -0.63239,0.08523 -0.63239,-0.10722 0,-0.442596 -2.04185,-0.07184 -2.34992,0.42671 -0.12619,0.204188 0.63547,0.37126 1.69264,0.37126 1.12414,0 1.92205,-0.193749 1.92205,-0.466712 z m 14.68825,-2.063406 c 3.32198,-2.715212 3.30004,-2.786095 -0.60312,-1.948098 -2.91575,0.626 -3.54511,0.927398 -3.54511,1.697702 0,0.35044 -1.64196,0.887084 -4.63759,1.515708 -2.55072,0.535244 -4.6376,1.038799 -4.6376,1.118992 0,0.0802 2.32403,0.145574 5.16462,0.145293 h 5.1646 z m 5.91708,-0.248512 c 2.35913,-2.88153 2.82772,-4.050472 1.7165,-4.282085 -0.50956,-0.106185 -6.73519,4.503797 -9.0203,6.679389 -0.24087,0.229324 0.68341,0.37907 2.3188,0.375683 l 2.71932,-0.0054 z m -24.29432,1.664823 c 0.99492,-0.164449 1.58099,-0.492041 1.58099,-0.883675 0,-0.366224 -0.24791,-0.52721 -0.60248,-0.39115 -0.33129,0.127156 -1.27989,0.358286 -2.10795,0.51362 -0.82804,0.155342 -1.50558,0.45105 -1.50558,0.65713 0,0.439544 0.48862,0.458842 2.63502,0.104075 z m 3.38959,-0.994195 c -0.12131,-0.463754 -0.46523,-0.843196 -0.76428,-0.843196 -0.33618,0 -0.45958,0.321862 -0.32327,0.843196 0.12126,0.463762 0.46523,0.843196 0.76429,0.843196 0.33617,0 0.45958,-0.32187 0.32326,-0.843196 z M 63.35042,18.926588 c 1.59768,-0.607435 1.31579,-1.493149 -0.66411,-2.086331 -1.42726,-0.427612 -1.81039,-0.42056 -2.10154,0.03868 -0.7509,1.184504 -0.37563,1.752722 1.60625,2.432107 0.0431,0.01471 0.56459,-0.158292 1.1594,-0.384448 z m 309.34332,-2.344339 c 1.69305,-0.356145 3.2706,-0.851768 3.50578,-1.101392 0.29992,-0.318336 0.17577,-0.38395 -0.41561,-0.219718 -0.46376,0.12879 -2.0764,0.46032 -3.58361,0.736746 -1.50722,0.276426 -2.92064,0.666674 -3.14092,0.867234 -0.56641,0.515628 0.0762,0.465622 3.63436,-0.28287 z"
       id="path1" /></g></svg>
